<?xml version="1.0" encoding="utf-8"?>
<!-- Generator: Adobe Illustrator 18.1.1, SVG Export Plug-In . SVG Version: 6.00 Build 0)  -->
<svg version="1.1" id="Слой_1" xmlns="http://www.w3.org/2000/svg" xmlns:xlink="http://www.w3.org/1999/xlink" x="0px" y="0px"
	 width="16px" height="16px" viewBox="-289 389 16 16" enable-background="new -289 389 16 16" xml:space="preserve">
<g>
	<path fill="#161616" d="M-273,396.4c0-0.4-0.3-0.8-0.7-0.8c0,0-0.1,0-0.1,0l0,0h-5.4h-1.6h-0.2h-1.3h-5.7l0,0c0,0-0.1,0-0.1,0
		c-0.4,0-0.7,0.4-0.7,0.8c0,0,0,0.1,0,0.1l0,0l1.4,7.9l0,0c0.1,0.3,0.4,0.5,0.7,0.5h4.5h1.4h1.7h4.2c0.3,0,0.6-0.2,0.7-0.5l0,0
		l1.4-7.9l0,0C-273,396.5-273,396.4-273,396.4z M-285.2,402.5c0,0.2-0.2,0.4-0.4,0.4c-0.2,0-0.4-0.2-0.4-0.4V398
		c0-0.2,0.2-0.4,0.4-0.4c0.2,0,0.4,0.2,0.4,0.4V402.5z M-282.9,402.5c0,0.2-0.2,0.4-0.4,0.4c-0.2,0-0.4-0.2-0.4-0.4V398
		c0-0.2,0.2-0.4,0.4-0.4c0.2,0,0.4,0.2,0.4,0.4V402.5z M-280.6,402.5c0,0.2-0.2,0.4-0.4,0.4c-0.2,0-0.4-0.2-0.4-0.4V398
		c0-0.2,0.2-0.4,0.4-0.4c0.2,0,0.4,0.2,0.4,0.4V402.5z M-278.4,402.5c0,0.2-0.2,0.4-0.4,0.4c-0.2,0-0.4-0.2-0.4-0.4V398
		c0-0.2,0.2-0.4,0.4-0.4c0.2,0,0.4,0.2,0.4,0.4V402.5z M-276.1,402.5c0,0.2-0.2,0.4-0.4,0.4c-0.2,0-0.4-0.2-0.4-0.4V398
		c0-0.2,0.2-0.4,0.4-0.4c0.2,0,0.4,0.2,0.4,0.4V402.5z"/>
	<path fill="#161616" d="M-286.1,391.7c0.1-0.5,0.5-1.2,1.1-1.2h1.7c0.1,0.5,0.6,0.9,1.1,0.9h2.3c0.5,0,1-0.4,1.1-0.9h1.7
		c0.6,0,1,0.6,1.1,1.2l0.5,3.2h0.6l-0.5-3.3c-0.2-1-0.9-1.7-1.7-1.7h-1.7c-0.1-0.5-0.6-0.9-1.1-0.9h-2.3c-0.5,0-1,0.4-1.1,0.9h-1.7
		c-0.8,0-1.5,0.7-1.7,1.7l-0.5,3.3h0.6L-286.1,391.7z"/>
</g>
</svg>
