<?xml version="1.0" encoding="utf-8"?>
<!-- Generator: Adobe Illustrator 18.1.1, SVG Export Plug-In . SVG Version: 6.00 Build 0)  -->
<svg version="1.1" id="Слой_1" xmlns="http://www.w3.org/2000/svg" xmlns:xlink="http://www.w3.org/1999/xlink" x="0px" y="0px"
	 width="16px" height="16px" viewBox="-289 389 16 16" enable-background="new -289 389 16 16" xml:space="preserve">
<g>
	<g>
		<rect x="-289" y="401.5" width="5.3" height="1.8"/>
		<polygon points="-276.6,401.4 -280.1,401.4 -280.1,399.7 -281.9,399.7 -281.9,401.4 -281.9,403.2 -281.9,405 -280.1,405 
			-280.1,403.2 -276.6,403.2 -273,403.2 -273,401.4 		"/>
	</g>
	<g>
		<g>
			<g>
				<rect x="-289" y="390.8" width="8.9" height="1.8"/>
				<polygon points="-273,390.8 -276.6,390.8 -276.6,389 -278.3,389 -278.3,390.8 -278.3,392.6 -278.3,394.3 -276.6,394.3 
					-276.6,392.6 -273,392.6 				"/>
			</g>
		</g>
		<g>
			<g>
				<rect x="-281.9" y="396.1" width="8.9" height="1.8"/>
				<polygon points="-289,396.1 -285.4,396.1 -285.4,394.3 -283.7,394.3 -283.7,396.1 -283.7,397.9 -283.7,399.7 -285.4,399.7 
					-285.4,397.9 -289,397.9 				"/>
			</g>
		</g>
	</g>
</g>
</svg>
