<?xml version="1.0" encoding="utf-8"?>
<!-- Generator: Adobe Illustrator 18.1.1, SVG Export Plug-In . SVG Version: 6.00 Build 0)  -->
<svg version="1.1" id="Слой_1" xmlns="http://www.w3.org/2000/svg" xmlns:xlink="http://www.w3.org/1999/xlink" x="0px" y="0px"
	 width="16px" height="16px" viewBox="1386.395 387.805 16 16" enable-background="new 1386.395 387.805 16 16"
	 xml:space="preserve">
<g>
	<path fill="#000103" d="M1397.968,403.805l-6.927-0.007c-0.159-0.033-1.564-0.344-1.914-1.266
		c-0.139-0.365-0.092-0.757,0.139-1.169c-0.307-0.213-0.755-0.61-0.865-1.157c-0.07-0.346,0.001-0.69,0.212-1.026
		c-0.228-0.191-0.516-0.513-0.583-0.952c-0.058-0.38,0.058-0.762,0.345-1.139c-0.214-0.238-0.469-0.67-0.469-1.383
		c-0.001-0.462,0.14-0.839,0.417-1.116c0.411-0.412,0.996-0.473,1.307-0.473h4.074c-0.154-0.602-0.407-1.708-0.352-2.261
		c0.073-0.729,0.807-2.92,0.839-3.013c0.026-0.064,0.451-1.037,1.45-1.037c0.839,0,1.381,0.597,1.383,1.522v2.295
		c0.118,0.299,0.936,2.147,3.687,3.55l0.17,0.086l0.003,7.599l-0.141,0.092C1400.69,402.984,1399.42,403.805,1397.968,403.805z
		 M1391.137,403.182l6.831,0.001c1.01,0,1.947-0.473,2.293-0.67l-0.003-6.875c-3.089-1.639-3.812-3.773-3.842-3.865l-0.015-0.096
		v-2.35c-0.001-0.335-0.1-0.899-0.758-0.899c-0.593,0-0.867,0.63-0.87,0.636c-0.198,0.592-0.746,2.307-0.801,2.854
		c-0.052,0.526,0.298,1.93,0.438,2.426l0.111,0.396h-4.886l0,0c-0.178,0-0.609,0.029-0.871,0.291
		c-0.159,0.159-0.236,0.38-0.235,0.676c0,0.817,0.418,1.071,0.435,1.081l0.342,0.2l-0.27,0.288c-0.299,0.309-0.431,0.599-0.391,0.86
		c0.064,0.424,0.55,0.699,0.555,0.702l0.338,0.185l-0.251,0.292c-0.235,0.273-0.325,0.525-0.276,0.771
		c0.107,0.53,0.822,0.901,0.829,0.904l0.334,0.167l-0.224,0.298c-0.25,0.333-0.331,0.622-0.241,0.858
		C1389.898,402.809,1390.776,403.101,1391.137,403.182z"/>
</g>
</svg>
