<?xml version="1.0" encoding="utf-8"?>
<!-- Generator: Adobe Illustrator 18.1.1, SVG Export Plug-In . SVG Version: 6.00 Build 0)  -->
<svg version="1.1" id="Layer_1" xmlns="http://www.w3.org/2000/svg" xmlns:xlink="http://www.w3.org/1999/xlink" x="0px" y="0px"
	 width="16px" height="16px" viewBox="-289 389 16 16" enable-background="new -289 389 16 16" xml:space="preserve">
<path d="M-285.8,395.9c1.3,2.5,3.3,4.6,5.9,5.9l2-2c0.2-0.2,0.6-0.3,0.9-0.2c1,0.3,2.1,0.5,3.2,0.5c0.5,0,0.9,0.4,0.9,0.9v3.1
	c0,0.5-0.4,0.9-0.9,0.9c-8.3,0-15.1-6.8-15.1-15.1c0-0.5,0.4-0.9,0.9-0.9h3.1c0.5,0,0.9,0.4,0.9,0.9c0,1.1,0.2,2.2,0.5,3.2
	c0.1,0.3,0,0.7-0.2,0.9C-283.8,394-285.8,395.9-285.8,395.9z"/>
</svg>
