<?xml version="1.0" encoding="utf-8"?>
<!-- Generator: Adobe Illustrator 18.1.1, SVG Export Plug-In . SVG Version: 6.00 Build 0)  -->
<svg version="1.1" id="Слой_1" xmlns="http://www.w3.org/2000/svg" xmlns:xlink="http://www.w3.org/1999/xlink" x="0px" y="0px"
	 width="48px" height="48px" viewBox="-543.833 739.689 48 48" enable-background="new -543.833 739.689 48 48"
	 xml:space="preserve">
<g>
	<path fill="#212332" d="M-505.331,768.297h-29.006c-0.275,0-0.497-0.222-0.497-0.497s0.223-0.497,0.497-0.497h29.006
		c0.275,0,0.497,0.222,0.497,0.497S-505.056,768.297-505.331,768.297z"/>
	<path fill="#212332" d="M-519.875,756.137c-1.394,0-2.528-1.134-2.528-2.528c0-1.394,1.134-2.528,2.528-2.528
		s2.528,1.134,2.528,2.528C-517.347,755.003-518.481,756.137-519.875,756.137z M-519.875,752.076c-0.846,0-1.534,0.688-1.534,1.533
		s0.688,1.534,1.534,1.534s1.533-0.688,1.533-1.534S-519.029,752.076-519.875,752.076z"/>
	<path fill="#212332" d="M-530.648,768.131c-0.012,0-0.024,0-0.036-0.001c-0.274-0.019-0.48-0.257-0.461-0.531
		c0.007-0.102,0.853-10.242,11.206-11.563c0.27-0.031,0.521,0.158,0.556,0.43c0.035,0.272-0.158,0.521-0.43,0.556
		c-9.555,1.218-10.333,10.553-10.34,10.647C-530.171,767.931-530.389,768.131-530.648,768.131z"/>
	<path fill="#212332" d="M-509.061,768.13c-0.258,0-0.476-0.199-0.496-0.461c-0.028-0.385-0.806-9.432-10.341-10.647
		c-0.272-0.035-0.465-0.284-0.43-0.556c0.035-0.272,0.284-0.461,0.556-0.43c10.353,1.32,11.2,11.46,11.207,11.563
		c0.02,0.273-0.186,0.511-0.46,0.531C-509.036,768.13-509.048,768.13-509.061,768.13z"/>
</g>
</svg>
