<?xml version="1.0" encoding="utf-8"?>
<!-- Generator: Adobe Illustrator 18.1.1, SVG Export Plug-In . SVG Version: 6.00 Build 0)  -->
<svg version="1.1" id="Слой_1" xmlns="http://www.w3.org/2000/svg" xmlns:xlink="http://www.w3.org/1999/xlink" x="0px" y="0px"
	 width="48px" height="48px" viewBox="0 0 48 48" enable-background="new 0 0 48 48" xml:space="preserve">
<g>
	<g>
		<path fill="#F7DD41" d="M37.958,20.949"/>
	</g>
	<g>
		<path fill="#212332" d="M30.731,34.219H17.268c-0.292,0-0.529-0.237-0.529-0.529v-2.241c-8.312-3.667-7.736-10.704-7.729-10.775
			c0.026-0.271,0.254-0.478,0.526-0.478h28.926c0.273,0,0.5,0.207,0.526,0.478c0.007,0.072,0.583,7.108-7.729,10.775v2.241
			C31.26,33.982,31.024,34.219,30.731,34.219z M17.797,33.161h12.406V31.1c0-0.213,0.128-0.405,0.324-0.488
			c6.677-2.797,7.369-7.799,7.416-9.36H10.051c0.029,1.565,0.677,6.535,7.421,9.36c0.196,0.082,0.324,0.275,0.324,0.488V33.161z"/>
	</g>
	<g>
		<path fill="#212332" d="M25,21.1c-0.292,0-0.529-0.237-0.529-0.529c0-2.751-2.238-4.989-4.989-4.989s-4.989,2.238-4.989,4.989
			c0,0.292-0.237,0.529-0.529,0.529s-0.529-0.237-0.529-0.529c0-3.334,2.712-6.046,6.046-6.046s6.046,2.712,6.046,6.046
			C25.529,20.863,25.292,21.1,25,21.1z"/>
	</g>
	<g>
		<path fill="#212332" d="M20.264,19.95c-0.135,0-0.271-0.052-0.374-0.155c-0.207-0.207-0.207-0.541,0-0.748l0.947-0.947
			c0.207-0.207,0.541-0.207,0.748,0s0.207,0.541,0,0.748l-0.947,0.947C20.535,19.898,20.4,19.95,20.264,19.95z"/>
	</g>
	<g>
		<path fill="#212332" d="M18.872,19.95c-0.135,0-0.271-0.052-0.374-0.155l-0.948-0.947c-0.207-0.207-0.207-0.541,0-0.748
			c0.207-0.207,0.541-0.206,0.748,0l0.948,0.947c0.207,0.207,0.207,0.541,0,0.748C19.142,19.898,19.007,19.95,18.872,19.95z"/>
	</g>
	<g>
		<path fill="#212332" d="M35.11,21.199c-0.066,0-0.133-0.012-0.197-0.038c-0.271-0.109-0.402-0.417-0.293-0.688
			c0.785-1.95,0.406-3.705,0.163-4.473c-3.952,1.16-6.244,4.903-6.267,4.942c-0.151,0.25-0.476,0.33-0.725,0.18
			c-0.25-0.15-0.331-0.475-0.18-0.726c0.109-0.181,2.723-4.449,7.379-5.545c0.248-0.057,0.495,0.065,0.6,0.291
			c0.051,0.109,1.229,2.699,0.011,5.724C35.518,21.074,35.319,21.199,35.11,21.199z"/>
	</g>
	<g>
		<path fill="#212332" d="M30.441,21.209c-0.123,0-0.247-0.043-0.347-0.13c-0.22-0.192-0.244-0.525-0.052-0.746
			c1.612-1.853,2.577-2.346,2.682-2.396c0.264-0.126,0.579-0.015,0.705,0.249c0.125,0.262,0.015,0.576-0.245,0.703
			c-0.025,0.013-0.891,0.467-2.344,2.138C30.736,21.147,30.589,21.209,30.441,21.209z"/>
	</g>
	<g>
		<path fill="#212332" d="M26.564,21.099c-0.001,0-0.001,0-0.001,0c-0.291,0-0.528-0.236-0.528-0.528
			c0-0.171,0.035-4.206,3.058-6.671c0.156-0.127,0.372-0.155,0.553-0.072c0.073,0.033,1.794,0.834,2.676,2.771
			c0.121,0.266,0.004,0.579-0.262,0.7c-0.265,0.12-0.579,0.004-0.7-0.262c-0.517-1.136-1.41-1.804-1.866-2.087
			c-2.362,2.164-2.401,5.585-2.401,5.621C27.092,20.863,26.855,21.099,26.564,21.099z"/>
	</g>
</g>
</svg>
