<?xml version="1.0" encoding="utf-8"?>
<!-- Generator: Adobe Illustrator 18.1.1, SVG Export Plug-In . SVG Version: 6.00 Build 0)  -->
<svg version="1.1" id="Слой_1" xmlns="http://www.w3.org/2000/svg" xmlns:xlink="http://www.w3.org/1999/xlink" x="0px" y="0px"
	 width="48px" height="48px" viewBox="0 0 48 48" enable-background="new 0 0 48 48" xml:space="preserve">
<g>
	<g>
		<path fill="#212332" d="M22.755,36.844c-0.634,0-1.233-0.199-1.734-0.568c-0.501,0.369-1.101,0.568-1.734,0.568
			c-0.981,0-1.875-0.479-2.42-1.26c-0.361,0.155-0.749,0.235-1.146,0.235c-1.473,0-2.698-1.084-2.92-2.496
			c-1.247-0.358-2.136-1.499-2.136-2.829c0-0.354,0.064-0.698,0.192-1.03c-0.555-0.551-0.876-1.305-0.876-2.096
			c0-0.481,0.118-0.958,0.342-1.381c0.152-0.286,0.506-0.396,0.792-0.244s0.395,0.506,0.244,0.792
			c-0.137,0.258-0.206,0.538-0.206,0.832c0,0.579,0.286,1.125,0.764,1.46c0.25,0.175,0.323,0.512,0.17,0.776
			c-0.166,0.284-0.25,0.583-0.25,0.891c0,0.902,0.68,1.658,1.583,1.761c0.296,0.033,0.52,0.284,0.52,0.582
			c0,0.015-0.001,0.033-0.002,0.052c0.014,0.972,0.808,1.758,1.783,1.758c0.369,0,0.726-0.116,1.033-0.337
			c0.146-0.104,0.332-0.137,0.504-0.087c0.172,0.049,0.313,0.175,0.381,0.341c0.276,0.673,0.923,1.108,1.648,1.108
			c0.496,0,0.959-0.205,1.303-0.577c0.222-0.24,0.639-0.24,0.861,0c0.344,0.372,0.808,0.577,1.304,0.577
			c0.983,0,1.782-0.8,1.782-1.784l-0.001,0.001c-0.003,0-0.006-0.03-0.007-0.06c-0.009-0.215,0.101-0.417,0.286-0.527
			c0.185-0.11,0.415-0.11,0.6,0.001c0.286,0.171,0.59,0.257,0.904,0.257c0.965,0,1.762-0.786,1.778-1.752
			c0.003-0.183,0.092-0.354,0.239-0.463c0.148-0.108,0.337-0.14,0.513-0.089c0.214,0.063,0.405,0.091,0.594,0.08
			c0.763-0.039,1.413-0.566,1.618-1.31c0.076-0.277,0.343-0.458,0.627-0.428c0.094,0.01,0.188,0.021,0.285,0.015
			c0.881-0.045,1.601-0.749,1.673-1.635c0.026-0.315,0.298-0.563,0.613-0.538l0.101,0.007c0.029,0.002,0.061,0.007,0.086,0.005
			c0.981-0.05,1.738-0.891,1.688-1.873c-0.018-0.358-0.144-0.699-0.361-0.985c-0.1-0.131-0.14-0.297-0.111-0.458
			c0.029-0.161,0.124-0.303,0.263-0.392c0.546-0.347,0.865-0.956,0.832-1.59c-0.013-0.24-0.072-0.471-0.176-0.686
			c-0.141-0.291-0.019-0.642,0.272-0.783c0.294-0.14,0.642-0.018,0.783,0.272c0.172,0.357,0.27,0.739,0.291,1.136
			c0.044,0.863-0.299,1.695-0.918,2.283c0.173,0.355,0.274,0.742,0.295,1.143c0.08,1.555-1.062,2.895-2.583,3.085
			c-0.328,1.212-1.405,2.114-2.69,2.181c-0.001,0-0.002,0-0.003,0c-0.452,0.991-1.416,1.665-2.524,1.722
			c-0.109,0.005-0.217,0.004-0.326-0.003c-0.327,1.277-1.492,2.23-2.86,2.23c-0.238,0-0.476-0.03-0.708-0.09
			C25.279,35.907,24.124,36.844,22.755,36.844z"/>
	</g>
	<g>
		<path fill="#212332" d="M19.696,32.091L19.696,32.091c-1.319,0-2.064-1.102-2.095-1.149c-2.212-3.133-7.21-5.257-7.26-5.278
			c-0.799-0.389-1.234-0.896-1.324-1.522c-0.145-1.005,0.704-1.816,0.801-1.905c0.083-0.084,2.531-2.515,7.881-6.357
			c4.425-3.178,8.231-4.723,11.632-4.723c1.529,0,2.991,0.322,4.345,0.956c4.741,2.222,5.709,5.946,5.203,7.907
			c-0.281,1.092-4.373,3.813-15.634,10.395c-1.012,0.591-1.753,1.025-2.062,1.216C20.689,31.936,20.189,32.091,19.696,32.091z
			 M29.332,12.329c-3.148,0-6.729,1.473-10.949,4.503c-5.262,3.778-7.73,6.227-7.755,6.251c-0.145,0.136-0.502,0.556-0.451,0.893
			c0.041,0.271,0.375,0.487,0.648,0.62c0.187,0.078,5.33,2.264,7.744,5.683c0.011,0.017,0.445,0.639,1.127,0.639l0,0
			c0.271,0,0.564-0.096,0.869-0.285c0.313-0.194,1.064-0.633,2.088-1.232c3.58-2.092,14.474-8.46,15.104-9.711
			c0.27-1.059,0.001-4.37-4.578-6.517C31.983,12.613,30.689,12.329,29.332,12.329z"/>
	</g>
	<g>
		<path fill="#212332" d="M21.168,28.09c-0.204,0-0.401-0.106-0.509-0.295c-2.319-4.057-6.161-4.873-6.2-4.882
			c-0.317-0.064-0.523-0.372-0.46-0.689c0.063-0.317,0.371-0.524,0.687-0.461c0.179,0.035,4.396,0.91,6.99,5.45
			c0.161,0.281,0.063,0.639-0.218,0.8C21.366,28.066,21.266,28.09,21.168,28.09z"/>
	</g>
	<g>
		<path fill="#212332" d="M25.309,25.508c-0.204,0-0.401-0.106-0.509-0.295c-2.319-4.057-6.161-4.873-6.2-4.882
			c-0.317-0.064-0.523-0.372-0.46-0.689c0.063-0.317,0.37-0.523,0.687-0.461c0.179,0.035,4.396,0.91,6.99,5.45
			c0.161,0.281,0.063,0.639-0.218,0.8C25.508,25.483,25.408,25.508,25.309,25.508z"/>
	</g>
	<g>
		<path fill="#212332" d="M28.606,23.334c-0.204,0-0.401-0.106-0.509-0.295c-2.319-4.057-6.161-4.873-6.2-4.882
			c-0.317-0.064-0.523-0.372-0.46-0.689s0.37-0.523,0.687-0.461c0.179,0.035,4.396,0.91,6.99,5.45
			c0.161,0.281,0.063,0.639-0.218,0.8C28.805,23.31,28.705,23.334,28.606,23.334z"/>
	</g>
	<g>
		<path fill="#212332" d="M32.884,21.112c-0.204,0-0.401-0.106-0.509-0.295c-2.319-4.057-6.161-4.873-6.2-4.882
			c-0.317-0.064-0.523-0.372-0.46-0.689c0.063-0.317,0.37-0.524,0.687-0.461c0.179,0.035,4.396,0.91,6.99,5.45
			c0.161,0.281,0.063,0.639-0.218,0.8C33.082,21.088,32.982,21.112,32.884,21.112z"/>
	</g>
</g>
</svg>
