<?xml version="1.0" encoding="utf-8"?>
<!-- Generator: Adobe Illustrator 18.1.1, SVG Export Plug-In . SVG Version: 6.00 Build 0)  -->
<svg version="1.1" id="Слой_1" xmlns="http://www.w3.org/2000/svg" xmlns:xlink="http://www.w3.org/1999/xlink" x="0px" y="0px"
	 width="48px" height="48px" viewBox="266.64 372.055 48 48" enable-background="new 266.64 372.055 48 48" xml:space="preserve">
<g>
	<g>
		<path fill="#212332" d="M304.758,396.817h-28.238c-0.239,0-0.454-0.147-0.541-0.369c-0.225-0.573-0.339-1.162-0.339-1.753
			c0-4.573,6.589-8.156,14.999-8.156s15,3.582,15.001,8.156c0,0.591-0.115,1.181-0.341,1.753
			C305.212,396.671,304.997,396.817,304.758,396.817z M276.938,395.653h27.404c0.089-0.318,0.135-0.638,0.135-0.958
			c-0.001-3.79-6.337-6.992-13.837-6.992s-13.836,3.202-13.836,6.992C276.804,395.015,276.849,395.335,276.938,395.653z"/>
	</g>
	<g>
		<g>
			<path fill="#212332" d="M281.931,394.263c-0.227,0-0.453-0.093-0.616-0.256c-0.163-0.163-0.256-0.384-0.256-0.616
				c0-0.227,0.093-0.454,0.256-0.617c0.326-0.32,0.907-0.326,1.234,0c0.163,0.163,0.256,0.39,0.256,0.617
				c0,0.232-0.093,0.453-0.256,0.616C282.385,394.169,282.158,394.263,281.931,394.263z"/>
		</g>
		<g>
			<path fill="#212332" d="M286.818,390.841c-0.227,0-0.454-0.093-0.616-0.256c-0.163-0.163-0.256-0.39-0.256-0.617
				c0-0.232,0.093-0.453,0.256-0.622c0.326-0.32,0.913-0.32,1.233,0c0.163,0.169,0.256,0.39,0.256,0.622
				c0,0.227-0.093,0.454-0.256,0.617C287.278,390.748,287.051,390.841,286.818,390.841z"/>
		</g>
		<g>
			<path fill="#212332" d="M290.641,390.841c-0.233,0-0.454-0.093-0.617-0.256c-0.163-0.163-0.256-0.39-0.256-0.617
				c0-0.232,0.093-0.46,0.25-0.616c0.332-0.326,0.914-0.326,1.239-0.006c0.163,0.169,0.256,0.39,0.256,0.622
				c0,0.227-0.093,0.454-0.256,0.617S290.868,390.841,290.641,390.841z"/>
		</g>
		<g>
			<path fill="#212332" d="M294.458,390.841c-0.227,0-0.454-0.093-0.616-0.256c-0.163-0.163-0.256-0.39-0.256-0.623
				c0-0.227,0.093-0.448,0.256-0.611c0.326-0.326,0.907-0.326,1.234-0.006c0.163,0.169,0.256,0.39,0.256,0.616
				c0,0.233-0.093,0.46-0.25,0.623C294.912,390.748,294.691,390.841,294.458,390.841z"/>
		</g>
		<g>
			<path fill="#212332" d="M299.351,394.263c-0.233,0-0.454-0.093-0.616-0.251c-0.163-0.169-0.256-0.39-0.256-0.622
				c0-0.227,0.093-0.454,0.256-0.617c0.326-0.326,0.902-0.326,1.233,0c0.163,0.163,0.256,0.39,0.256,0.617
				c0,0.227-0.093,0.453-0.256,0.616C299.799,394.169,299.578,394.263,299.351,394.263z"/>
		</g>
		<g>
			<path fill="#212332" d="M290.641,394.263c-0.233,0-0.454-0.093-0.617-0.251c-0.163-0.169-0.256-0.39-0.256-0.622
				c0-0.227,0.093-0.454,0.25-0.617c0.332-0.326,0.907-0.32,1.239,0c0.163,0.163,0.256,0.39,0.256,0.617
				c0,0.232-0.093,0.453-0.256,0.616C291.095,394.169,290.868,394.263,290.641,394.263z"/>
		</g>
		<g>
			<path fill="#212332" d="M294.993,394.263c-0.227,0-0.453-0.093-0.616-0.256c-0.163-0.157-0.256-0.384-0.256-0.616
				c0-0.227,0.093-0.454,0.256-0.617c0.326-0.32,0.907-0.326,1.234,0c0.163,0.163,0.256,0.39,0.256,0.617
				c0,0.232-0.093,0.453-0.256,0.616C295.447,394.169,295.22,394.263,294.993,394.263z"/>
		</g>
		<g>
			<path fill="#212332" d="M286.283,394.263c-0.227,0-0.454-0.093-0.616-0.251c-0.163-0.169-0.256-0.39-0.256-0.622
				c0-0.227,0.093-0.454,0.256-0.617c0.331-0.326,0.907-0.326,1.233,0c0.163,0.163,0.256,0.39,0.256,0.617
				c0,0.232-0.093,0.453-0.256,0.616C286.737,394.169,286.51,394.263,286.283,394.263z"/>
		</g>
	</g>
	<g>
		<g>
			<path fill="#212332" d="M301.785,400.879h-22.29c-1.441,0-2.613-1.172-2.613-2.613c0-1.441,1.172-2.614,2.613-2.614h22.29
				c1.44,0,2.612,1.173,2.612,2.614C304.397,399.707,303.225,400.879,301.785,400.879z M279.495,396.816
				c-0.799,0-1.449,0.651-1.449,1.45c0,0.799,0.65,1.449,1.449,1.449h22.29c0.799,0,1.449-0.65,1.449-1.449
				c0-0.799-0.65-1.45-1.449-1.45H279.495z"/>
		</g>
		<g>
			<path fill="#212332" d="M296.5,399.292c-2.505,0-3.701-0.741-4.757-1.395c-0.937-0.58-1.746-1.081-3.449-1.081
				c-0.322,0-0.582-0.26-0.582-0.582s0.26-0.582,0.582-0.582c2.035,0,3.065,0.639,4.063,1.256c1.013,0.628,1.97,1.22,4.144,1.22
				c1.999,0,2.836-0.503,3.186-0.925c0.35-0.422,0.287-0.857,0.286-0.861c-0.06-0.316,0.148-0.62,0.464-0.68
				c0.316-0.057,0.621,0.148,0.68,0.464c0.019,0.098,0.161,0.982-0.534,1.82C299.841,398.839,298.468,399.292,296.5,399.292z"/>
		</g>
	</g>
	<g>
		<path fill="#212332" d="M302.933,405.571h-24.587c-0.641,0-1.247-0.285-1.634-0.764c-0.023-0.025-0.044-0.052-0.063-0.081
			c-0.083-0.115-0.153-0.243-0.213-0.389c-0.44-0.83-0.673-1.677-0.673-2.454c0-0.606,0.114-1.21,0.339-1.794
			c0.086-0.225,0.302-0.373,0.543-0.373h27.991c0.241,0,0.457,0.149,0.544,0.374c0.223,0.586,0.337,1.189,0.337,1.794
			c0,0.777-0.233,1.624-0.673,2.454c-0.062,0.151-0.135,0.282-0.221,0.4c-0.015,0.022-0.031,0.043-0.049,0.063
			C304.186,405.283,303.576,405.571,302.933,405.571z M277.591,404.043c0.005,0.005,0.009,0.011,0.013,0.016
			c0.166,0.218,0.444,0.348,0.743,0.348h24.587c0.298,0,0.576-0.13,0.743-0.348c0.004-0.006,0.008-0.011,0.013-0.016
			c0.031-0.043,0.058-0.097,0.084-0.164c0.009-0.022,0.019-0.043,0.03-0.064c0.36-0.67,0.551-1.338,0.551-1.932
			c0-0.336-0.046-0.672-0.137-1.004h-27.151c-0.091,0.332-0.138,0.668-0.138,1.004c0,0.594,0.19,1.263,0.551,1.932
			c0.011,0.02,0.021,0.042,0.03,0.064C277.533,403.946,277.56,404,277.591,404.043z"/>
	</g>
</g>
</svg>
