<?xml version="1.0" encoding="utf-8"?>
<!-- Generator: Adobe Illustrator 18.1.1, SVG Export Plug-In . SVG Version: 6.00 Build 0)  -->
<svg version="1.1" id="Слой_1" xmlns="http://www.w3.org/2000/svg" xmlns:xlink="http://www.w3.org/1999/xlink" x="0px" y="0px"
	 width="48px" height="48px" viewBox="-281 373 48 48" enable-background="new -281 373 48 48" xml:space="preserve">
<g>
	<g>
		<path fill="none" stroke="#212332" stroke-miterlimit="10" d="M-243.113,398.541c-0.014,0.078-0.041,0.16-0.085,0.245
			c-2.286,4.441-6.855,7.48-12.068,7.993c-7.28,0.717-13.916-3.666-15.564-10.288c-0.06-0.24-0.14-0.558-0.161-0.8
			c-0.085-0.974,0.461-1.912,1.381-2.39c0.084-0.044,0.14-0.13,0.173-0.211c0.286-0.711,0.003-2.268-0.363-2.913
			c-0.147-0.259-0.066-0.581,0.192-0.76c0.016-0.011,0.033-0.021,0.049-0.032c0.239-0.144,0.519-0.222,0.8-0.226
			c0.187-0.003,0.369,0.027,0.539,0.087c0.172-0.064,0.355-0.099,0.54-0.102c0.164-0.002,0.328,0.021,0.483,0.069
			c0.302,0.091,0.478,0.38,0.41,0.675l-0.011,0.048l-0.009,0.044c-0.005,0.021-0.008,0.04-0.013,0.061c0,0.001,0,0.001,0,0.002
			c-0.087,0.423-0.126,0.853-0.118,1.281c0,0.008,0,0.016,0,0.023c0.003,0.122,0.009,0.245,0.021,0.367
			c0.073,0.837,0.326,1.645,0.749,2.377c0.01,0.018,0.02,0.035,0.027,0.053c0.022,0.035,0.044,0.07,0.063,0.105
			c0.441,0.702,1.013,1.3,1.702,1.795c4.023,2.888,11.418,1.899,16.16,1.07c0.525-0.091,1.075-0.067,1.603-0.045
			c0.463,0.02,1.406,0.094,1.808-0.207c0.058-0.059,0.127-0.109,0.203-0.147c0.605-0.299,1.135,0.246,1.379,0.694
			c0.133,0.244,0.238,0.546,0.22,0.826C-243.01,398.349-243.049,398.454-243.113,398.541z"/>
	</g>
</g>
</svg>
