<?xml version="1.0" encoding="utf-8"?>
<!-- Generator: Adobe Illustrator 18.1.1, SVG Export Plug-In . SVG Version: 6.00 Build 0)  -->
<svg version="1.1" id="Слой_1" xmlns="http://www.w3.org/2000/svg" xmlns:xlink="http://www.w3.org/1999/xlink" x="0px" y="0px"
	 width="48px" height="48px" viewBox="-281 373 48 48" enable-background="new -281 373 48 48" xml:space="preserve">
<g>
	<g>
		<path fill="#212332" d="M-249.46,403.769h-17.786c-0.052,0-0.104-0.008-0.154-0.024c-2.672-0.828-4.003-3.298-4.605-4.917h-0.765
			c-0.678,0-1.23-0.634-1.23-1.413c0-0.78,0.552-1.414,1.23-1.414h28.834c0.679,0,1.231,0.635,1.231,1.414s-0.552,1.413-1.23,1.413
			h-0.764c-0.603,1.617-1.935,4.087-4.605,4.917C-249.356,403.761-249.408,403.769-249.46,403.769z M-267.166,402.727h17.625
			c2.381-0.781,3.513-3.202,3.979-4.585c0.071-0.212,0.27-0.355,0.494-0.355h1.131c0.065,0,0.188-0.144,0.188-0.372
			c0-0.231-0.122-0.373-0.189-0.373h-28.834c-0.065,0-0.188,0.145-0.188,0.373c0,0.227,0.124,0.372,0.188,0.372h1.133
			c0.224,0,0.423,0.143,0.494,0.355C-270.679,399.525-269.549,401.946-267.166,402.727z"/>
	</g>
	<g>
		<path fill="#212332" d="M-248.128,395.42h-1.478c-0.209,0-0.398-0.125-0.479-0.317s-0.04-0.415,0.104-0.566
			c0.022-0.023,2.184-2.258,4.696-4.502c1.369-1.223,2.702-1.896,3.755-1.896c0.83,0,1.424,0.444,1.513,1.131
			c0.161,1.219-0.756,1.711-2.767,2.787l-0.552,0.296c-2.302,1.241-4.446,2.937-4.468,2.954
			C-247.896,395.38-248.011,395.42-248.128,395.42z M-248.359,394.377h0.05c0.53-0.409,2.414-1.829,4.477-2.941l0.554-0.298
			c1.917-1.026,2.287-1.268,2.226-1.733c-0.027-0.203-0.346-0.224-0.481-0.224c-0.372,0-1.412,0.16-3.06,1.632
			C-246.113,392.172-247.504,393.526-248.359,394.377z"/>
	</g>
	<g>
		<path fill="#212332" d="M-249.606,405.861h-17.674c-0.288,0-0.521-0.233-0.521-0.521s0.233-0.521,0.521-0.521h17.674
			c0.288,0,0.521,0.233,0.521,0.521S-249.318,405.861-249.606,405.861z"/>
	</g>
</g>
</svg>
