<?xml version="1.0" encoding="utf-8"?>
<!-- Generator: Adobe Illustrator 18.1.1, SVG Export Plug-In . SVG Version: 6.00 Build 0)  -->
<svg version="1.1" id="Слой_1" xmlns="http://www.w3.org/2000/svg" xmlns:xlink="http://www.w3.org/1999/xlink" x="0px" y="0px"
	 width="48px" height="48px" viewBox="266.64 372.055 48 48" enable-background="new 266.64 372.055 48 48" xml:space="preserve">
<g>
	<g>
		<path fill="#222532" d="M295.388,400.636h-9.198c-2.525,0-4.58-2.055-4.58-4.58c0-2.526,2.055-4.582,4.58-4.582h9.198
			c2.525,0,4.58,2.056,4.58,4.582C299.968,398.581,297.913,400.636,295.388,400.636z M286.19,392.658
			c-1.873,0-3.397,1.524-3.397,3.398c0,1.873,1.524,3.397,3.397,3.397h9.198c1.873,0,3.397-1.524,3.397-3.397
			c0-1.873-1.524-3.398-3.397-3.398H286.19z"/>
	</g>
	<g>
		<path fill="#222532" d="M296.988,396.046c-0.243,0-0.47-0.15-0.557-0.391c-0.197-0.546-0.719-0.913-1.3-0.913h-3.586
			c-0.327,0-0.592-0.265-0.592-0.592c0-0.327,0.265-0.592,0.592-0.592h3.586c1.079,0,2.049,0.682,2.413,1.695
			c0.111,0.307-0.049,0.647-0.356,0.757C297.122,396.035,297.055,396.046,296.988,396.046z"/>
	</g>
	<g>
		<path fill="none" stroke="#222532" stroke-width="2" stroke-linecap="round" stroke-linejoin="round" stroke-miterlimit="10" d="
			M285.766,396.349"/>
	</g>
	<g>
		<path fill="#222532" d="M276.839,400.512c-0.041,0-0.083-0.004-0.124-0.013c-0.194-0.042-0.355-0.177-0.427-0.362
			c-0.059-0.149-1.42-3.712-0.014-8.245c0.06-0.192,0.212-0.341,0.406-0.395c0.194-0.055,0.402-0.007,0.552,0.127l4.211,3.729
			c0.123,0.109,0.195,0.264,0.199,0.428c0.004,0.164-0.06,0.323-0.178,0.438l-4.21,4.124
			C277.142,400.452,276.992,400.512,276.839,400.512z M277.161,393.142c-0.573,2.465-0.287,4.54-0.028,5.662l3.05-2.987
			L277.161,393.142z"/>
	</g>
	<g>
		<path fill="#222532" d="M304.441,400.512c-0.153,0-0.302-0.06-0.414-0.169l-4.21-4.124c-0.118-0.115-0.182-0.274-0.178-0.438
			c0.004-0.164,0.076-0.319,0.199-0.428l4.211-3.729c0.151-0.134,0.358-0.182,0.552-0.127c0.194,0.054,0.346,0.203,0.406,0.395
			c1.405,4.534,0.045,8.096-0.014,8.245c-0.072,0.185-0.233,0.321-0.427,0.362C304.523,400.508,304.482,400.512,304.441,400.512z
			 M301.098,395.818l3.048,2.985c0.258-1.126,0.542-3.205-0.027-5.661L301.098,395.818z"/>
	</g>
</g>
</svg>
