<?xml version="1.0" encoding="utf-8"?>
<!-- Generator: Adobe Illustrator 18.1.1, SVG Export Plug-In . SVG Version: 6.00 Build 0)  -->
<svg version="1.1" id="Слой_1" xmlns="http://www.w3.org/2000/svg" xmlns:xlink="http://www.w3.org/1999/xlink" x="0px" y="0px"
	 width="48px" height="48px" viewBox="-7 817 48 48" enable-background="new -7 817 48 48" xml:space="preserve">
<g>
	<g>
		<path fill="#222532" d="M4.779,848.212c-0.453,0-0.87-0.103-1.241-0.306c-2.078-1.136-2.046-5.061,0.071-8.935
			c1.697-3.104,4.206-5.189,6.242-5.189c0.453,0,0.87,0.103,1.241,0.306c1.051,0.575,1.596,1.862,1.535,3.625
			c-0.056,1.633-0.627,3.519-1.607,5.311C9.325,846.127,6.816,848.212,4.779,848.212z M9.852,834.848
			c-1.606,0-3.838,1.949-5.306,4.634c-1.953,3.573-1.833,6.756-0.496,7.488c0.213,0.116,0.458,0.175,0.73,0.175
			c1.607,0,3.838-1.949,5.306-4.634c0.902-1.649,1.427-3.366,1.477-4.836c0.046-1.32-0.311-2.286-0.981-2.652
			C10.369,834.907,10.123,834.848,9.852,834.848z"/>
	</g>
	<g>
		<path fill="#222532" d="M7.51,839.598c-0.136,0-0.262-0.031-0.375-0.093c-0.595-0.326-0.61-1.365-0.035-2.417
			c0.556-1.018,1.478-1.589,2.054-1.275c0.309,0.169,0.471,0.534,0.454,1.028c-0.015,0.429-0.164,0.922-0.419,1.389
			C8.742,839.048,8.067,839.598,7.51,839.598z M8.779,836.253c-0.298,0-0.824,0.382-1.211,1.091
			c-0.46,0.841-0.412,1.565-0.177,1.694c0.25,0.136,0.882-0.245,1.33-1.063c0.213-0.389,0.342-0.809,0.353-1.151
			c0.01-0.274-0.056-0.477-0.176-0.542C8.864,836.262,8.825,836.253,8.779,836.253z"/>
	</g>
	<g>
		<path fill="#222532" d="M7.897,843.846c-0.136,0-0.262-0.031-0.375-0.093c-0.595-0.326-0.61-1.365-0.035-2.417
			c0.556-1.018,1.478-1.59,2.054-1.275c0.309,0.169,0.471,0.534,0.454,1.028c-0.015,0.429-0.163,0.922-0.418,1.389
			C9.129,843.296,8.454,843.846,7.897,843.846z M9.166,840.501c-0.298,0-0.824,0.382-1.211,1.091
			c-0.459,0.841-0.411,1.565-0.177,1.693c0.25,0.138,0.882-0.245,1.33-1.063c0.213-0.389,0.341-0.809,0.353-1.151
			c0.009-0.274-0.057-0.477-0.177-0.542C9.251,840.51,9.212,840.501,9.166,840.501z"/>
	</g>
	<g>
		<path fill="#222532" d="M4.023,845.52c-0.136,0-0.262-0.031-0.375-0.093c-0.595-0.326-0.61-1.365-0.035-2.417
			c0.556-1.018,1.477-1.589,2.054-1.276c0.309,0.169,0.47,0.535,0.453,1.029c-0.015,0.429-0.163,0.922-0.418,1.389
			C5.255,844.971,4.58,845.52,4.023,845.52z M5.292,842.175c-0.298,0-0.824,0.382-1.211,1.091c-0.46,0.841-0.412,1.565-0.177,1.694
			c0.251,0.136,0.882-0.245,1.33-1.063c0.213-0.389,0.341-0.809,0.353-1.151c0.009-0.274-0.056-0.477-0.177-0.542
			C5.377,842.184,5.339,842.175,5.292,842.175z"/>
	</g>
	<g>
		<path fill="#222532" d="M17.677,848.219H5.043c-0.295,0-0.533-0.239-0.533-0.533c0-0.294,0.239-0.533,0.533-0.533h12.634
			c3.235,0,5.867-2.632,5.867-5.867v-0.564c0-3.235-2.632-5.867-5.867-5.867h-7.636c-0.295,0-0.533-0.239-0.533-0.533
			s0.239-0.533,0.533-0.533h7.636c3.823,0,6.933,3.11,6.933,6.933v0.564C24.61,845.108,21.5,848.219,17.677,848.219z"/>
	</g>
	<g>
		<path fill="#222532" d="M29.733,844.692L29.733,844.692c-0.351,0-0.681-0.137-0.929-0.386l-0.892-0.892
			c-0.239,0.324-0.623,0.535-1.056,0.535c-0.723,0-1.311-0.588-1.311-1.311v-3.267c0-0.723,0.588-1.312,1.311-1.312
			c0.432,0,0.817,0.21,1.056,0.534l0.893-0.894c0.496-0.496,1.358-0.495,1.854-0.001c0.511,0.512,0.511,1.344,0.001,1.856
			l-0.206,0.206h0.235c0.723,0,1.311,0.588,1.311,1.311c0,0.723-0.588,1.31-1.311,1.31h-0.102l0.072,0.072
			c0.51,0.512,0.51,1.344,0,1.854C30.412,844.555,30.083,844.692,29.733,844.692z M27.634,841.847c0.139,0,0.275,0.054,0.377,0.156
			l1.548,1.549c0.064,0.064,0.136,0.073,0.173,0.073s0.11-0.009,0.172-0.072c0.096-0.096,0.095-0.251,0-0.347l-0.981-0.982
			c-0.153-0.153-0.198-0.382-0.116-0.581s0.277-0.329,0.493-0.329h1.389c0.135,0,0.244-0.109,0.244-0.244
			c0-0.135-0.109-0.245-0.244-0.245h-1.522c-0.216,0-0.41-0.13-0.493-0.329c-0.083-0.199-0.037-0.429,0.116-0.581l1.116-1.117
			c0.095-0.096,0.095-0.251-0.001-0.347c-0.061-0.062-0.134-0.071-0.172-0.071s-0.111,0.009-0.173,0.072l-1.548,1.548
			c-0.153,0.153-0.382,0.198-0.581,0.116c-0.199-0.083-0.329-0.277-0.329-0.493v-0.254c0-0.135-0.11-0.245-0.245-0.245
			c-0.135,0-0.244,0.11-0.244,0.245v3.267c0,0.135,0.109,0.245,0.244,0.245c0.135,0,0.245-0.11,0.245-0.245v-0.255
			c0-0.216,0.13-0.41,0.329-0.493C27.496,841.861,27.566,841.847,27.634,841.847z"/>
	</g>
</g>
</svg>
