<?xml version="1.0" encoding="utf-8"?>
<!-- Generator: Adobe Illustrator 18.1.1, SVG Export Plug-In . SVG Version: 6.00 Build 0)  -->
<svg version="1.1" id="Слой_1" xmlns="http://www.w3.org/2000/svg" xmlns:xlink="http://www.w3.org/1999/xlink" x="0px" y="0px"
	 width="48px" height="48px" viewBox="-31 793 48 48" enable-background="new -31 793 48 48" xml:space="preserve">
<g>
	<g>
		<path fill="#222532" d="M1.033,829.882h-16.066c-3.842,0-6.967-3.125-6.967-6.966c0-3.842,3.125-6.968,6.967-6.968H1.033
			C4.875,815.949,8,819.075,8,822.916S4.875,829.882,1.033,829.882z M-15.033,817.167c-3.17,0-5.749,2.579-5.749,5.749
			c0,3.169,2.579,5.748,5.749,5.748H1.033c3.17,0,5.749-2.579,5.749-5.748s-2.579-5.749-5.749-5.749H-15.033z"/>
	</g>
	<g>
		<g>
			<path fill="#222532" d="M-14.726,825.348c-1.533,0-2.78-1.247-2.78-2.78c0-1.532,1.247-2.779,2.78-2.779
				c1.532,0,2.779,1.247,2.779,2.779C-11.947,824.101-13.194,825.348-14.726,825.348z M-14.726,821.007
				c-0.861,0-1.562,0.7-1.562,1.561c0,0.861,0.701,1.562,1.562,1.562c0.861,0,1.561-0.701,1.561-1.562
				C-13.165,821.707-13.865,821.007-14.726,821.007z"/>
		</g>
		<g>
			<path fill="#222532" d="M0.726,825.348c-1.533,0-2.78-1.247-2.78-2.78c0-1.532,1.247-2.779,2.78-2.779
				c1.532,0,2.779,1.247,2.779,2.779C3.505,824.101,2.258,825.348,0.726,825.348z M0.726,821.007c-0.861,0-1.562,0.7-1.562,1.561
				c0,0.861,0.701,1.562,1.562,1.562s1.561-0.701,1.561-1.562C2.287,821.707,1.587,821.007,0.726,821.007z"/>
		</g>
	</g>
	<g>
		<g>
			<g>
				<path fill="#222532" d="M-9.57,813.979c-1.081,0-1.961-0.88-1.961-1.961c0-1.081,0.88-1.961,1.961-1.961s1.961,0.88,1.961,1.961
					C-7.609,813.099-8.489,813.979-9.57,813.979z M-9.57,811.275c-0.409,0-0.742,0.333-0.742,0.742c0,0.41,0.333,0.743,0.742,0.743
					c0.409,0,0.742-0.333,0.742-0.743C-8.827,811.608-9.161,811.275-9.57,811.275z"/>
			</g>
			<g>
				<path fill="#222532" d="M-16.063,817.167c-0.012,0-0.024-0.001-0.036-0.001c-0.336-0.02-0.592-0.307-0.572-0.643
					c0.004-0.074,0.106-1.718,0.776-3.702c-2.647-2.118-3.883-5.492-3.937-5.641c-0.065-0.183-0.04-0.387,0.069-0.548
					c0.109-0.161,0.288-0.26,0.482-0.267c3.074-0.109,5.102,0.463,6.728,0.925c0.139,0.04,0.276,0.079,0.411,0.116
					c1.444-1.02,3.172-1.537,5.141-1.537c0.337,0,0.609,0.272,0.609,0.609c0,0.337-0.272,0.609-0.609,0.609
					c-1.81,0-3.374,0.494-4.649,1.468c-0.151,0.115-0.346,0.152-0.529,0.104c-0.229-0.062-0.465-0.129-0.708-0.198
					c-1.379-0.391-3.059-0.868-5.455-0.892c0.537,1.14,1.705,3.232,3.524,4.541c0.222,0.16,0.311,0.449,0.215,0.707
					c-0.74,1.99-0.853,3.759-0.854,3.776C-15.474,816.917-15.743,817.167-16.063,817.167z"/>
			</g>
			<g>
				<path fill="#222532" d="M-11.188,807.849c-0.285,0-0.54-0.201-0.597-0.491l-0.495-2.513c-0.051-0.26,0.073-0.525,0.306-0.652
					c0.232-0.128,0.521-0.09,0.714,0.095l1.827,1.751c0.243,0.233,0.251,0.618,0.018,0.861c-0.233,0.243-0.618,0.252-0.861,0.018
					l-0.435-0.418l0.123,0.622c0.065,0.33-0.15,0.65-0.48,0.716C-11.11,807.845-11.15,807.849-11.188,807.849z"/>
			</g>
		</g>
		<g>
			<g>
				<path fill="#222532" d="M-4.43,813.979c-1.081,0-1.961-0.88-1.961-1.961c0-1.081,0.88-1.961,1.961-1.961
					c1.081,0,1.961,0.88,1.961,1.961C-2.47,813.099-3.349,813.979-4.43,813.979z M-4.43,811.275c-0.41,0-0.743,0.333-0.743,0.742
					c0,0.41,0.333,0.743,0.743,0.743c0.409,0,0.742-0.333,0.742-0.743C-3.688,811.608-4.021,811.275-4.43,811.275z"/>
			</g>
			<g>
				<path fill="#222532" d="M2.063,817.167c-0.319,0-0.588-0.25-0.607-0.573c-0.001-0.018-0.115-1.786-0.854-3.777
					c-0.095-0.257-0.007-0.546,0.215-0.706c1.825-1.313,2.989-3.403,3.525-4.541c-2.396,0.023-4.076,0.5-5.454,0.891
					c-0.244,0.07-0.48,0.136-0.71,0.199c-0.183,0.048-0.378,0.011-0.529-0.104c-1.275-0.974-2.839-1.468-4.649-1.468
					c-0.337,0-0.609-0.272-0.609-0.609c0-0.337,0.272-0.609,0.609-0.609c1.97,0,3.698,0.517,5.143,1.537
					c0.135-0.037,0.272-0.077,0.412-0.117c1.627-0.462,3.654-1.035,6.726-0.924c0.195,0.007,0.374,0.106,0.482,0.267
					c0.109,0.161,0.134,0.365,0.069,0.547c-0.054,0.149-1.289,3.523-3.936,5.642c0.669,1.984,0.772,3.628,0.776,3.701
					c0.02,0.336-0.236,0.623-0.572,0.644C2.088,817.166,2.075,817.167,2.063,817.167z"/>
			</g>
			<g>
				<path fill="#222532" d="M-2.812,807.849c-0.039,0-0.079-0.004-0.118-0.011c-0.33-0.065-0.545-0.385-0.48-0.716l0.123-0.622
					l-0.435,0.418c-0.243,0.233-0.629,0.225-0.861-0.018c-0.233-0.243-0.225-0.629,0.018-0.861l1.827-1.751
					c0.193-0.184,0.482-0.222,0.714-0.095c0.233,0.127,0.357,0.391,0.306,0.652l-0.495,2.513
					C-2.271,807.648-2.527,807.849-2.812,807.849z"/>
			</g>
		</g>
	</g>
</g>
</svg>
