<?xml version="1.0" encoding="utf-8"?>
<!-- Generator: Adobe Illustrator 18.1.1, SVG Export Plug-In . SVG Version: 6.00 Build 0)  -->
<svg version="1.1" id="Слой_1" xmlns="http://www.w3.org/2000/svg" xmlns:xlink="http://www.w3.org/1999/xlink" x="0px" y="0px"
	 width="48px" height="48px" viewBox="266.64 372.055 48 48" enable-background="new 266.64 372.055 48 48" xml:space="preserve">
<g>
	<g>
		<path fill="#222532" d="M301.004,408.703h-20.522c-0.301,0-0.545-0.244-0.545-0.545v-12.102c0-0.301,0.244-0.545,0.545-0.545
			c0.302,0,0.545,0.244,0.545,0.545v11.556h19.431v-11.556c0-0.301,0.244-0.545,0.545-0.545s0.545,0.244,0.545,0.545v12.101
			C301.549,408.458,301.305,408.703,301.004,408.703z"/>
	</g>
	<g>
		<path fill="#222532" d="M301.004,388.248c-0.301,0-0.545-0.244-0.545-0.545v-3.204h-19.431v3.204c0,0.301-0.244,0.545-0.545,0.545
			c-0.301,0-0.545-0.244-0.545-0.545v-3.75c0-0.301,0.244-0.545,0.545-0.545h20.522c0.301,0,0.545,0.244,0.545,0.545v3.75
			C301.549,388.004,301.305,388.248,301.004,388.248z"/>
	</g>
	<g>
		<g>
			<g>
				<path fill="#222532" d="M277.992,396.381c-1.297,0-2.352-1.055-2.352-2.353v-2.168c0-0.301,0.244-0.545,0.545-0.545
					s0.545,0.244,0.545,0.545v2.168c0,0.696,0.566,1.262,1.261,1.262s1.262-0.566,1.262-1.262v-2.168
					c0-0.301,0.244-0.545,0.545-0.545s0.545,0.244,0.545,0.545v2.168C280.345,395.326,279.29,396.381,277.992,396.381z"/>
			</g>
			<g>
				<path fill="#222532" d="M281.606,396.381c-1.297,0-2.352-1.055-2.352-2.353v-2.168c0-0.301,0.244-0.545,0.545-0.545
					c0.301,0,0.545,0.244,0.545,0.545v2.168c0,0.696,0.566,1.262,1.261,1.262c0.696,0,1.262-0.566,1.262-1.262v-2.168
					c0-0.301,0.244-0.545,0.545-0.545c0.302,0,0.545,0.244,0.545,0.545v2.168C283.959,395.326,282.903,396.381,281.606,396.381z"/>
			</g>
			<g>
				<path fill="#222532" d="M285.219,396.381c-1.297,0-2.352-1.055-2.352-2.353v-2.168c0-0.301,0.244-0.545,0.545-0.545
					s0.545,0.244,0.545,0.545v2.168c0,0.696,0.566,1.262,1.261,1.262s1.262-0.566,1.262-1.262v-2.168
					c0-0.301,0.244-0.545,0.545-0.545s0.545,0.244,0.545,0.545v2.168C287.572,395.326,286.517,396.381,285.219,396.381z"/>
			</g>
			<g>
				<path fill="#222532" d="M288.833,396.381c-1.297,0-2.352-1.055-2.352-2.353v-2.168c0-0.301,0.244-0.545,0.545-0.545
					c0.302,0,0.545,0.244,0.545,0.545v2.168c0,0.696,0.566,1.262,1.261,1.262s1.262-0.566,1.262-1.262v-2.168
					c0-0.301,0.244-0.545,0.545-0.545s0.545,0.244,0.545,0.545v2.168C291.186,395.326,290.131,396.381,288.833,396.381z"/>
			</g>
		</g>
		<g>
			<g>
				<path fill="#222532" d="M292.447,396.381c-1.297,0-2.352-1.055-2.352-2.353v-2.168c0-0.301,0.244-0.545,0.545-0.545
					s0.545,0.244,0.545,0.545v2.168c0,0.696,0.566,1.262,1.261,1.262c0.696,0,1.262-0.566,1.262-1.262v-2.168
					c0-0.301,0.244-0.545,0.545-0.545s0.545,0.244,0.545,0.545v2.168C294.799,395.326,293.744,396.381,292.447,396.381z"/>
			</g>
			<g>
				<path fill="#222532" d="M296.06,396.381c-1.297,0-2.352-1.055-2.352-2.353v-2.168c0-0.301,0.244-0.545,0.545-0.545
					s0.545,0.244,0.545,0.545v2.168c0,0.696,0.566,1.262,1.261,1.262s1.262-0.566,1.262-1.262v-2.168
					c0-0.301,0.244-0.545,0.545-0.545s0.545,0.244,0.545,0.545v2.168C298.413,395.326,297.358,396.381,296.06,396.381z"/>
			</g>
			<g>
				<path fill="#222532" d="M299.674,396.381c-1.297,0-2.352-1.055-2.352-2.353v-2.168c0-0.301,0.244-0.545,0.545-0.545
					s0.545,0.244,0.545,0.545v2.168c0,0.696,0.566,1.262,1.261,1.262c0.696,0,1.262-0.566,1.262-1.262v-2.168
					c0-0.301,0.244-0.545,0.545-0.545s0.545,0.244,0.545,0.545v2.168C302.026,395.326,300.971,396.381,299.674,396.381z"/>
			</g>
			<g>
				<path fill="#222532" d="M303.287,396.381c-1.297,0-2.352-1.055-2.352-2.353v-2.168c0-0.301,0.244-0.545,0.545-0.545
					s0.545,0.244,0.545,0.545v2.168c0,0.696,0.566,1.262,1.261,1.262s1.262-0.566,1.262-1.262v-2.168
					c0-0.301,0.244-0.545,0.545-0.545s0.545,0.244,0.545,0.545v2.168C305.64,395.326,304.585,396.381,303.287,396.381z"/>
			</g>
		</g>
	</g>
	<g>
		<path fill="#222532" d="M305.095,392.406h-28.909c-0.302,0-0.545-0.244-0.545-0.545s0.244-0.545,0.545-0.545h28.909
			c0.301,0,0.545,0.244,0.545,0.545S305.396,392.406,305.095,392.406z"/>
	</g>
	<g>
		<path fill="#222532" d="M301.004,388.248h-20.522c-0.301,0-0.545-0.244-0.545-0.545c0-0.301,0.244-0.545,0.545-0.545h20.522
			c0.301,0,0.545,0.244,0.545,0.545C301.549,388.004,301.305,388.248,301.004,388.248z"/>
	</g>
	<g>
		<path fill="#222532" d="M276.186,392.406c-0.143,0-0.285-0.056-0.392-0.166c-0.209-0.216-0.204-0.562,0.013-0.771l4.295-4.158
			c0.217-0.209,0.562-0.203,0.771,0.013c0.209,0.216,0.204,0.562-0.013,0.771l-4.295,4.158
			C276.459,392.355,276.323,392.406,276.186,392.406z"/>
	</g>
	<g>
		<path fill="#222532" d="M305.095,392.406c-0.141,0-0.282-0.054-0.389-0.163l-4.091-4.158c-0.211-0.215-0.208-0.56,0.006-0.771
			c0.214-0.211,0.559-0.209,0.771,0.006l4.091,4.158c0.211,0.215,0.208,0.56-0.006,0.771
			C305.371,392.354,305.233,392.406,305.095,392.406z"/>
	</g>
	<g>
		<path fill="#222532" d="M294.799,408.703h-7.159c-0.301,0-0.545-0.244-0.545-0.545v-10.023c0-0.301,0.244-0.545,0.545-0.545h7.159
			c0.301,0,0.545,0.244,0.545,0.545v10.023C295.345,408.458,295.101,408.703,294.799,408.703z M288.186,407.612h6.068v-8.932h-6.068
			V407.612z"/>
	</g>
	<g>
		<path fill="#222532" d="M289.174,403.691c-0.301,0-0.545-0.244-0.545-0.545v-0.307c0-0.301,0.244-0.545,0.545-0.545
			s0.545,0.244,0.545,0.545v0.307C289.72,403.447,289.476,403.691,289.174,403.691z"/>
	</g>
</g>
</svg>
