<?xml version="1.0" encoding="utf-8"?>
<!-- Generator: Adobe Illustrator 18.1.1, SVG Export Plug-In . SVG Version: 6.00 Build 0)  -->
<svg version="1.1" id="Слой_1" xmlns="http://www.w3.org/2000/svg" xmlns:xlink="http://www.w3.org/1999/xlink" x="0px" y="0px"
	 width="48px" height="48px" viewBox="-7 817 48 48" enable-background="new -7 817 48 48" xml:space="preserve">
<g>
	<g>
		<g>
			<path fill="#222532" d="M17.02,825.56c0.127,0,0.482,0.057,0.807,0.653c0.366,0.67,2.948,6.119,3.427,11.939L21.331,841v0.595
				c0,0,0.025,0.613,0.353,1.075c0.327,0.462,2.361,2.386,2.361,2.386s0.681,0.681,0.681,1.495c0,0.815,0,3.587,0,3.587
				s-0.015,0.505,0.504,0.857c0.232,0.157,0.418,0.267,0.523,0.36c0.009,0.008,0.018,0.014,0.025,0.023
				c0.033,0.032,0.055,0.063,0.063,0.093c0.051,0.08,0.086,0.17,0.086,0.272c0,0.292-0.236,0.529-0.529,0.529
				c-0.048,0-0.092-0.015-0.138-0.028l-0.015-0.003c-0.133-0.041-0.394-0.238-0.394-0.238l-0.731-0.681c0,0-0.387-0.496-0.387-1.075
				c0-0.58,0-1.37,0-2.545c0-0.646-0.275-1.124-0.524-1.428l-1.544-1.021c-0.162-0.071-0.34-0.111-0.528-0.111
				c-0.733,0-1.328,0.594-1.328,1.328v0.19v5.713c0,0-0.118,0.941,0.655,1.798s1.234,1.282,1.234,1.282l-0.002,0.004
				c0.119,0.103,0.196,0.251,0.196,0.419c0,0.311-0.252,0.563-0.563,0.563c-0.127,0-0.239-0.05-0.334-0.122l-0.009,0.002
				l-0.076-0.076l-1.993-1.989c0,0-0.521-0.47-0.521-1.226s0-5.797,0-5.797s0.197-2.037-1.398-2.064
				c-1.594,0.027-1.397,2.064-1.397,2.064s0,5.041,0,5.797s-0.521,1.226-0.521,1.226l-1.993,1.989l-0.076,0.076l-0.009-0.002
				c-0.095,0.072-0.207,0.122-0.334,0.122c-0.311,0-0.563-0.252-0.563-0.563c0-0.169,0.077-0.316,0.196-0.419l-0.002-0.004
				c0,0,0.461-0.425,1.234-1.282c0.773-0.857,0.655-1.798,0.655-1.798v-5.713v-0.19c0-0.733-0.595-1.328-1.328-1.328
				c-0.188,0-0.367,0.04-0.528,0.111l-1.544,1.021c-0.249,0.304-0.524,0.782-0.524,1.428c0,1.176,0,1.966,0,2.545
				c0,0.58-0.387,1.075-0.387,1.075l-0.731,0.681c0,0-0.26,0.197-0.394,0.238l-0.015,0.003c-0.045,0.012-0.089,0.028-0.138,0.028
				c-0.293,0-0.529-0.237-0.529-0.529c0-0.102,0.035-0.191,0.086-0.272c0.009-0.03,0.031-0.061,0.063-0.093
				c0.008-0.009,0.017-0.015,0.025-0.023c0.105-0.094,0.291-0.203,0.523-0.36c0.519-0.352,0.504-0.857,0.504-0.857s0-2.772,0-3.587
				c0-0.815,0.681-1.495,0.681-1.495s2.033-1.924,2.361-2.386c0.327-0.462,0.353-1.075,0.353-1.075V841l0.077-2.848
				c0.479-5.82,3.061-11.269,3.427-11.939c0.325-0.595,0.68-0.653,0.806-0.653c0.008,0,0.013,0,0.019,0
				C17.006,825.56,17.013,825.56,17.02,825.56 M17.02,824.485h-0.026h-0.003h-0.01c-0.327,0-1.153,0.118-1.75,1.213
				c-0.631,1.158-3.084,6.651-3.554,12.366l-0.003,0.03l-0.001,0.03l-0.077,2.848l-0.001,0.014V841v0.563
				c-0.009,0.101-0.056,0.347-0.155,0.485c-0.181,0.248-1.295,1.35-2.223,2.227l-0.011,0.01l-0.011,0.011
				c-0.102,0.102-0.996,1.031-0.996,2.256v3.528c-0.006,0.006-0.016,0.016-0.032,0.027c-0.068,0.046-0.132,0.088-0.191,0.126
				c-0.164,0.106-0.306,0.199-0.435,0.313c-0.031,0.026-0.059,0.053-0.087,0.081c-0.11,0.111-0.196,0.233-0.259,0.364
				C7.066,851.229,7,851.482,7,851.744c0,0.885,0.72,1.604,1.604,1.604c0.166,0,0.299-0.032,0.38-0.054l0.01-0.002l0.077-0.021
				c0.21-0.065,0.454-0.202,0.728-0.41l0.044-0.032l0.04-0.037l0.731-0.681l0.062-0.058l0.053-0.068
				c0.102-0.131,0.614-0.833,0.614-1.736v-2.545c0-0.227,0.065-0.436,0.197-0.634l1.281-0.847c0.014-0.003,0.028-0.004,0.043-0.004
				c0.139,0,0.252,0.113,0.252,0.252v0.19v5.713v0.094l0.009,0.039l0,0c-0.001,0,0.027,0.485-0.387,0.944
				c-0.723,0.801-1.161,1.209-1.165,1.213l-0.627,0.581l0.136,0.239c-0.032,0.127-0.049,0.259-0.049,0.393
				c0,0.903,0.735,1.638,1.638,1.638c0.163,0,0.324-0.026,0.48-0.075l0.213,0.04l0.41-0.399l0.076-0.076l1.984-1.98
				c0.17-0.164,0.845-0.885,0.845-1.996v-5.797v-0.052l-0.005-0.052c-0.019-0.245,0.034-0.69,0.168-0.838
				c0.012-0.013,0.038-0.042,0.159-0.047c0.122,0.005,0.149,0.034,0.161,0.048c0.145,0.162,0.186,0.638,0.167,0.837l-0.005,0.052
				v0.052v5.797c0,1.11,0.674,1.831,0.845,1.996l1.985,1.981l0.075,0.075l0.401,0.401l0.222-0.041
				c0.155,0.049,0.316,0.075,0.48,0.075c0.903,0,1.638-0.735,1.638-1.638c0-0.133-0.017-0.265-0.049-0.392l0.136-0.237l-0.627-0.584
				c-0.004-0.004-0.442-0.411-1.165-1.212c-0.416-0.461-0.386-0.949-0.384-0.969l0.016-0.093l-0.011-0.016v-5.713v-0.19
				c0-0.139,0.113-0.252,0.252-0.252c0.015,0,0.029,0.001,0.043,0.004l1.281,0.847c0.132,0.198,0.197,0.406,0.197,0.634v2.545
				c0,0.904,0.511,1.605,0.614,1.736l0.053,0.068l0.062,0.058l0.731,0.681l0.04,0.037l0.044,0.032
				c0.274,0.208,0.518,0.345,0.728,0.41l0.062,0.019l0.026,0.005c0.087,0.024,0.218,0.054,0.379,0.054
				c0.885,0,1.604-0.72,1.604-1.604c0-0.261-0.066-0.515-0.197-0.753c-0.058-0.122-0.137-0.236-0.237-0.341l-0.039-0.045
				l-0.068-0.057c-0.13-0.115-0.273-0.208-0.438-0.315c-0.059-0.039-0.123-0.081-0.191-0.127c-0.016-0.011-0.026-0.02-0.032-0.026
				v-3.528c0-1.225-0.894-2.154-0.996-2.256l-0.01-0.011l-0.011-0.01c-0.928-0.878-2.042-1.979-2.224-2.228
				c-0.096-0.135-0.144-0.376-0.154-0.489V841v-0.015l-0.001-0.014l-0.077-2.848l-0.001-0.03l-0.003-0.03
				c-0.47-5.715-2.923-11.208-3.554-12.365C18.174,824.603,17.348,824.485,17.02,824.485L17.02,824.485z"/>
		</g>
	</g>
	<g>
		<g>
			<circle fill="#F2DC40" cx="12.14" cy="839.275" r="1.737"/>
			<path fill="#222532" d="M12.14,841.549c-1.254,0-2.275-1.02-2.275-2.275c0-1.254,1.02-2.274,2.275-2.274
				c1.254,0,2.274,1.02,2.274,2.274C14.415,840.529,13.394,841.549,12.14,841.549z M12.14,838.076c-0.661,0-1.199,0.538-1.199,1.199
				s0.538,1.199,1.199,1.199s1.199-0.538,1.199-1.199S12.801,838.076,12.14,838.076z"/>
		</g>
		<g>
			<circle fill="#EBD74C" cx="21.862" cy="839.275" r="1.737"/>
			<path fill="#222532" d="M21.862,841.549c-1.254,0-2.274-1.02-2.274-2.275c0-1.254,1.02-2.274,2.274-2.274
				c1.254,0,2.275,1.02,2.275,2.274C24.136,840.529,23.116,841.549,21.862,841.549z M21.862,838.076
				c-0.661,0-1.199,0.538-1.199,1.199s0.538,1.199,1.199,1.199s1.199-0.538,1.199-1.199S22.523,838.076,21.862,838.076z"/>
		</g>
	</g>
	<g>
		<g>
			<path fill="#222532" d="M11.01,834.889c-0.05,0-0.1-0.007-0.149-0.021c-2.165-0.625-3.309-1.528-3.309-2.612
				c0-1.353,1.839-2.45,5.045-3.01c0.2-0.034,0.4,0.045,0.521,0.205c0.122,0.16,0.143,0.375,0.056,0.557
				c-0.533,1.113-1.251,2.792-1.64,4.465c-0.033,0.143-0.124,0.267-0.252,0.342C11.199,834.864,11.105,834.889,11.01,834.889z
				 M11.76,830.515c-2.277,0.541-3.133,1.309-3.133,1.742c0,0.376,0.623,0.936,2.001,1.411
				C10.936,832.534,11.361,831.431,11.76,830.515z"/>
		</g>
		<g>
			<path fill="#222532" d="M22.992,834.889c-0.095,0-0.189-0.025-0.272-0.074c-0.128-0.075-0.218-0.198-0.252-0.342
				c-0.388-1.669-1.106-3.349-1.64-4.465c-0.087-0.182-0.065-0.396,0.057-0.557c0.122-0.161,0.321-0.238,0.521-0.205
				c3.206,0.56,5.044,1.658,5.044,3.01c0,1.084-1.144,1.987-3.309,2.612C23.092,834.882,23.041,834.889,22.992,834.889z
				 M22.242,830.514c0.4,0.918,0.825,2.022,1.132,3.153c1.378-0.475,2.001-1.034,2.001-1.411
				C25.374,831.824,24.52,831.056,22.242,830.514z"/>
		</g>
	</g>
</g>
</svg>
