<?xml version="1.0" encoding="utf-8"?>
<!-- Generator: Adobe Illustrator 18.1.1, SVG Export Plug-In . SVG Version: 6.00 Build 0)  -->
<svg version="1.1" id="Слой_1" xmlns="http://www.w3.org/2000/svg" xmlns:xlink="http://www.w3.org/1999/xlink" x="0px" y="0px"
	 width="48px" height="48px" viewBox="266.64 372.055 48 48" enable-background="new 266.64 372.055 48 48" xml:space="preserve">
<g>
	<g>
		<path fill="#222532" d="M289.355,406.152c-2.261,0-4.101-1.84-4.101-4.101c0-2.262,1.761-5.75,4.101-5.75
			c1.089,0,2.149,0.758,2.985,2.133c0.689,1.133,1.116,2.519,1.116,3.616C293.456,404.312,291.616,406.152,289.355,406.152z
			 M289.356,397.452c-1.522,0-2.95,2.869-2.95,4.598c0,1.627,1.323,2.95,2.95,2.95s2.95-1.323,2.95-2.95
			C292.305,400.321,290.877,397.452,289.356,397.452z"/>
	</g>
	<g>
		<path fill="#222532" d="M292.842,407.718c-0.33,0-0.553-0.018-0.638-0.026h-8.82c-0.03,0-0.058-0.002-0.087-0.006
			c-4.045-0.098-7.324-3.446-7.324-7.5c0-2.317,1.047-4.463,2.875-5.899c0.007-0.008,0.015-0.015,0.022-0.022
			c0.224-0.214,0.332-0.434,0.338-0.691c-0.003-0.318-0.197-0.615-0.574-0.868c-0.242-0.074-0.467-0.182-0.67-0.322
			c-0.046-0.026-0.088-0.057-0.124-0.093c-0.593-0.467-0.931-1.158-0.931-1.909c0-0.07,0.003-0.14,0.01-0.211
			c-0.791-0.355-1.278-0.967-1.278-1.652c0-0.708,0.509-1.33,1.351-1.679c0.305-1.42,1.547-2.449,3.029-2.449
			c0.066,0,0.13,0.005,0.194,0.012c0.036-0.008,0.073-0.012,0.111-0.012c3.588,0,5.869,2.951,7.701,5.322
			c0.298,0.385,0.589,0.761,0.875,1.113c0.898,1.102,2.522,1.734,4.456,1.734c1.726,0,3.392-0.51,4.573-1.399
			c2.113-1.592,3.664-2.068,4.4-2.21c0.005-0.001,0.056-0.01,0.061-0.011c0.238-0.041,0.35-0.045,0.35-0.045
			c0.016-0.001,0.033-0.001,0.05,0c0.04-0.005,0.077-0.007,0.114-0.007c1.508,0,2.734,1.227,2.734,2.734
			c0,0.692-0.257,1.34-0.712,1.835c0.454,0.495,0.712,1.142,0.713,1.834c0,1.183-0.762,2.206-1.846,2.576
			c0.001,0.013,0.001,0.026,0.001,0.039c0,1.051-0.611,2.002-1.549,2.454C300.252,407.182,294.558,407.718,292.842,407.718z
			 M283.459,406.541h8.774c0.022,0,0.044,0.001,0.066,0.004c0.015,0.002,0.214,0.022,0.542,0.022c1.964,0,6.711-0.661,8.37-6.78
			c0.049-0.183,0.187-0.33,0.366-0.393c0.637-0.222,1.066-0.82,1.066-1.486c0-0.106-0.015-0.222-0.045-0.354
			c-0.036-0.159-0.003-0.326,0.092-0.46c0.094-0.133,0.241-0.22,0.402-0.239c0.796-0.094,1.397-0.765,1.397-1.561
			c-0.001-0.549-0.285-1.052-0.761-1.344c-0.17-0.105-0.274-0.291-0.274-0.491c0-0.2,0.104-0.386,0.275-0.491
			c0.476-0.292,0.759-0.794,0.759-1.344c0-0.873-0.71-1.583-1.583-1.583c-0.034,0.006-0.071,0.011-0.108,0.013
			c-0.02,0.001-0.04,0.001-0.06,0c-0.03,0.004-0.071,0.01-0.12,0.018l-0.012-0.041c-0.021-0.006-0.04-0.013-0.06-0.022l0.015,0.073
			c-0.525,0.101-1.936,0.494-3.936,2.002c-1.376,1.036-3.295,1.63-5.265,1.631c-2.282,0-4.231-0.787-5.349-2.159
			c-0.293-0.359-0.589-0.743-0.893-1.137c-1.735-2.245-3.698-4.784-6.632-4.873c-0.073,0.024-0.152,0.033-0.232,0.024l-0.088-0.012
			c-0.047-0.006-0.094-0.015-0.144-0.015c-1.011,0-1.845,0.765-1.939,1.778c-0.022,0.234-0.184,0.432-0.41,0.499
			c-0.509,0.15-0.879,0.445-0.879,0.7c0,0.234,0.324,0.557,0.943,0.722c0.153,0.041,0.283,0.144,0.359,0.284
			c0.075,0.14,0.089,0.305,0.039,0.456c-0.049,0.145-0.073,0.276-0.073,0.4c0,0.408,0.192,0.784,0.527,1.031
			c0.007,0.006,0.015,0.012,0.022,0.017c0.121,0.085,0.26,0.148,0.411,0.189c0.055,0.015,0.108,0.037,0.156,0.067
			c0.755,0.469,1.175,1.142,1.183,1.897c-0.015,0.567-0.235,1.056-0.653,1.473c-0.029,0.037-0.063,0.07-0.1,0.098
			c-1.577,1.216-2.482,3.049-2.482,5.03c0,3.454,2.811,6.302,6.266,6.35C283.414,406.536,283.437,406.537,283.459,406.541z"/>
	</g>
</g>
</svg>
