<?xml version="1.0" encoding="utf-8"?>
<!-- Generator: Adobe Illustrator 18.1.1, SVG Export Plug-In . SVG Version: 6.00 Build 0)  -->
<svg version="1.1" id="Слой_1" xmlns="http://www.w3.org/2000/svg" xmlns:xlink="http://www.w3.org/1999/xlink" x="0px" y="0px"
	 width="16px" height="16px" viewBox="-297 389 16 16" enable-background="new -297 389 16 16" xml:space="preserve">
<g>
	<g>
		<path fill="#0A0A0A" d="M-284.168,397.639h-6.419c-0.226,0-0.431-0.127-0.523-0.325l-2.879-6.222h-2.441
			c-0.316,0-0.571-0.244-0.571-0.546c0-0.301,0.256-0.545,0.571-0.545h2.813c0.226,0,0.431,0.127,0.523,0.325l0.943,2.037h10.579
			c0.205,0,0.395,0.105,0.497,0.275c0.102,0.17,0.1,0.379-0.005,0.548l-2.596,4.185
			C-283.779,397.537-283.966,397.639-284.168,397.639z M-290.214,396.548h5.721l1.919-3.093h-9.071L-290.214,396.548z"/>
	</g>
	<g>
		<path fill="#0A0A0A" d="M-283.75,400.367h-8.572c-0.211,0-0.405-0.111-0.504-0.289c-0.1-0.178-0.088-0.393,0.029-0.56l1.912-2.728
			c0.176-0.25,0.53-0.318,0.793-0.15c0.262,0.168,0.333,0.506,0.157,0.757l-1.317,1.88h7.502c0.316,0,0.571,0.244,0.571,0.546
			C-283.179,400.124-283.434,400.367-283.75,400.367z"/>
	</g>
	<g>
		<ellipse fill="#0A0A0A" cx="-291.875" cy="402.636" rx="1.429" ry="1.364"/>
	</g>
	<g>
		<ellipse fill="#0A0A0A" cx="-284.122" cy="402.636" rx="1.429" ry="1.364"/>
	</g>
</g>
</svg>
