<?xml version="1.0" encoding="utf-8"?>
<!-- Generator: Adobe Illustrator 18.1.1, SVG Export Plug-In . SVG Version: 6.00 Build 0)  -->
<svg version="1.1" id="Layer_2" xmlns="http://www.w3.org/2000/svg" xmlns:xlink="http://www.w3.org/1999/xlink" x="0px" y="0px"
	 width="16px" height="16px" viewBox="-297 389 16 16" enable-background="new -297 389 16 16" xml:space="preserve">
<g>
	<g>
		<path fill-rule="evenodd" clip-rule="evenodd" fill="#010305" d="M-291.6,391c-0.2-0.6-0.8-1-1.4-1c-0.7,0-1.2,0.4-1.4,1h-2.6v1
			h2.6c0.2,0.6,0.8,1,1.4,1c0.7,0,1.2-0.4,1.4-1h10.6v-1H-291.6z M-293,402c-0.7,0-1.2,0.4-1.4,1h-2.6v1h2.6c0.2,0.6,0.8,1,1.4,1
			c0.7,0,1.2-0.4,1.4-1h10.6v-1h-10.6C-291.8,402.4-292.3,402-293,402z M-285,396c-0.7,0-1.2,0.4-1.4,1H-297v1h10.6
			c0.2,0.6,0.8,1,1.4,1c0.7,0,1.2-0.4,1.4-1h2.6v-1h-2.6C-283.8,396.4-284.3,396-285,396z"/>
	</g>
</g>
</svg>
