<?xml version="1.0" encoding="utf-8"?>
<!-- Generator: Adobe Illustrator 18.1.1, SVG Export Plug-In . SVG Version: 6.00 Build 0)  -->
<svg version="1.1" id="Layer_1" xmlns="http://www.w3.org/2000/svg" xmlns:xlink="http://www.w3.org/1999/xlink" x="0px" y="0px"
	 width="16px" height="16px" viewBox="-281 389 16 16" enable-background="new -281 389 16 16" xml:space="preserve">
<g>
	<g>
		<path fill="#0C0E0F" d="M-268.143,399.857c-0.837,0-1.573,0.406-2.042,1.025l-5.241-2.795c0.083-0.254,0.14-0.52,0.14-0.802
			c0-0.318-0.065-0.619-0.171-0.9l5.284-3.252c0.471,0.61,1.201,1.009,2.03,1.009c1.421,0,2.571-1.151,2.571-2.571
			c0-1.42-1.151-2.571-2.571-2.571c-1.42,0-2.571,1.151-2.571,2.571c0,0.386,0.091,0.747,0.243,1.076l-5.241,3.225
			c-0.46-0.697-1.248-1.158-2.145-1.158c-1.42,0-2.571,1.151-2.571,2.571c0,1.42,1.151,2.571,2.571,2.571
			c0.934,0,1.745-0.503,2.195-1.249l5.181,2.763c-0.146,0.323-0.233,0.679-0.233,1.057c0,1.42,1.151,2.571,2.571,2.571
			c1.421,0,2.571-1.151,2.571-2.571C-265.571,401.009-266.722,399.857-268.143,399.857z"/>
	</g>
</g>
</svg>
