<?xml version="1.0" encoding="utf-8"?>
<!-- Generator: Adobe Illustrator 18.1.1, SVG Export Plug-In . SVG Version: 6.00 Build 0)  -->
<svg version="1.1" id="Layer_2" xmlns="http://www.w3.org/2000/svg" xmlns:xlink="http://www.w3.org/1999/xlink" x="0px" y="0px"
	 width="32px" height="32px" viewBox="0 0 32 32" enable-background="new 0 0 32 32" xml:space="preserve">
<path fill-rule="evenodd" clip-rule="evenodd" fill="#0C0E0F" d="M6.846,20.987c-2.118-3.667-2.005-10.117,3.612-13.46
	c4.297-2.557,9.962-1.85,13.378,1.718c3.571,3.73,3.363,10.715-0.12,13.43c-1.578,1.234-3.922,0.033-3.907-1.764l-0.017-0.588
	c-1.099,1.09-2.561,1.727-4.154,1.727c-3.148,0-5.918-2.769-5.918-5.917c0-3.179,2.77-5.981,5.918-5.981l0,0l0,0l0,0
	c1.593,0,3.091,0.704,4.191,1.807v0.004c0-0.529,0.356-0.928,0.851-0.928l0.125-0.001c0.773,0,0.932,0.731,0.932,0.964l0.004,8.23
	c-0.055,0.539,0.556,0.817,0.894,0.471c1.322-1.358,2.902-6.982-0.822-10.24c-3.47-3.038-8.127-2.537-10.604-0.83
	c-2.633,1.816-4.318,5.835-2.681,9.61c1.784,4.117,6.889,5.345,9.922,4.12c1.536-0.62,2.246,1.457,0.65,2.135
	C16.691,26.521,9.981,26.418,6.846,20.987 M19.6,15.905c-0.119-2.305-1.83-3.691-3.895-3.691h-0.078
	c-2.384,0-3.706,1.875-3.706,4.005c0,2.384,1.6,3.891,3.697,3.891c2.339,0,3.876-1.713,3.988-3.74L19.6,15.905z"/>
<g>
</g>
<g>
</g>
<g>
</g>
<g>
</g>
<g>
</g>
<g>
</g>
</svg>
