<?xml version="1.0" encoding="utf-8"?>
<!-- Generator: Adobe Illustrator 18.1.1, SVG Export Plug-In . SVG Version: 6.00 Build 0)  -->
<svg version="1.1" id="Layer_1" xmlns="http://www.w3.org/2000/svg" xmlns:xlink="http://www.w3.org/1999/xlink" x="0px" y="0px"
	 width="32px" height="32px" viewBox="0 0 32 32" enable-background="new 0 0 32 32" xml:space="preserve">
<path fill="#0D0F0F" d="M13.283,15.34c0-1.302,2.75-1.679,2.75-4.738c0-1.836-0.163-2.942-1.55-3.593c0-0.456,2.45-0.156,2.45-1.007
	c-0.425,0-5.366,0-5.366,0S6.133,6.14,6.133,10.931c0,4.791,4.75,4.235,4.75,4.235s0,0.725,0,1.215c0,0.49,0.637,0.325,0.717,1.319
	c-0.321,0-6.6-0.173-6.6,4.166c0,4.339,5.533,4.131,5.533,4.131s6.4,0.304,6.4-5.086C16.933,17.683,13.283,16.641,13.283,15.34z
	 M8.647,11.208c-0.502-1.924,0.16-3.786,1.479-4.16c1.319-0.374,2.796,0.883,3.298,2.807c0.503,1.924-0.159,3.787-1.479,4.161
	C10.626,14.39,9.149,13.133,8.647,11.208z M11.395,24.611c-2.215,0.156-4.099-1.081-4.208-2.763
	c-0.11-1.683,1.597-3.173,3.812-3.329c2.216-0.156,4.1,1.081,4.21,2.763C15.318,22.965,13.61,24.455,11.395,24.611z"/>
<polygon fill="#0D0F0F" points="27,9.891 27,11.036 23.264,11.036 23.264,14.923 22.164,14.923 22.164,11.036 18.433,11.036 
	18.433,9.891 22.164,9.891 22.164,6 23.264,6 23.264,9.891 "/>
<g>
</g>
<g>
</g>
<g>
</g>
<g>
</g>
<g>
</g>
<g>
</g>
</svg>
