<?xml version="1.0" encoding="utf-8"?>
<!-- Generator: Adobe Illustrator 18.1.1, SVG Export Plug-In . SVG Version: 6.00 Build 0)  -->
<svg version="1.1" id="Layer_1" xmlns="http://www.w3.org/2000/svg" xmlns:xlink="http://www.w3.org/1999/xlink" x="0px" y="0px"
	 width="105px" height="25.296px" viewBox="0 0 105 25.296" enable-background="new 0 0 105 25.296" xml:space="preserve">
<g>
	<g>
		<path fill-rule="evenodd" clip-rule="evenodd" d="M38.341,14.115c-0.019,0.106-0.057,0.215-0.117,0.329
			c-3.142,5.972-9.426,10.059-16.592,10.749C11.623,26.157,2.5,20.263,0.234,11.357c-0.082-0.322-0.193-0.75-0.222-1.076
			c-0.117-1.31,0.633-2.572,1.899-3.214c0.115-0.059,0.193-0.174,0.238-0.284c0.393-0.957,0.004-3.05-0.5-3.917
			C1.446,2.517,1.558,2.084,1.913,1.844c0.022-0.015,0.045-0.029,0.069-0.042c0.329-0.193,0.713-0.299,1.1-0.304
			c0.256-0.003,0.507,0.037,0.741,0.117c0.236-0.086,0.488-0.133,0.743-0.136c0.226-0.003,0.451,0.028,0.664,0.092
			c0.416,0.123,0.657,0.51,0.563,0.908L5.777,2.543l-0.013,0.06C5.758,2.629,5.752,2.656,5.746,2.684c0,0.001,0,0.001,0,0.002
			c-0.12,0.569-0.173,1.147-0.161,1.723c0,0.011,0,0.021,0,0.032C5.588,4.605,5.597,4.77,5.612,4.934
			c0.1,1.126,0.448,2.211,1.031,3.197C6.657,8.155,6.67,8.178,6.681,8.202c0.03,0.047,0.06,0.094,0.087,0.142
			c0.607,0.944,1.393,1.749,2.34,2.414c5.531,3.884,15.699,2.554,22.217,1.439c0.721-0.123,1.479-0.09,2.204-0.06
			c0.637,0.026,1.933,0.126,2.486-0.278c0.08-0.08,0.174-0.147,0.279-0.197c0.832-0.402,1.56,0.331,1.895,0.934
			c0.182,0.328,0.327,0.735,0.302,1.111C38.482,13.857,38.428,13.997,38.341,14.115z"/>
	</g>
	<path fill-rule="evenodd" clip-rule="evenodd" fill="#F2C544" d="M2.416,2.48L2.416,2.48L2.416,2.48
		c0.189-0.115,0.415-0.184,0.657-0.187C3.353,2.289,3.61,2.374,3.812,2.52c0.205-0.151,0.464-0.243,0.744-0.247
		c0.136-0.002,0.267,0.018,0.389,0.055l0,0v0l0,0L4.944,2.332L4.936,2.366L4.935,2.369L4.93,2.392L4.929,2.398L4.923,2.422l0,0.002
		L4.917,2.45L4.916,2.456L4.914,2.464C4.907,2.493,4.901,2.523,4.895,2.552l0,0.001c-0.129,0.614-0.19,1.246-0.177,1.889l-0.001,0
		c0.004,0.19,0.014,0.382,0.031,0.574C4.861,6.29,5.259,7.474,5.879,8.522l0.003,0.023l0.002,0.003
		C5.929,8.611,5.97,8.676,6.008,8.743c4.73,7.385,18.344,5.452,25.457,4.235c1.662-0.284,3.984,0.414,5.164-0.567
		c0.015-0.021,0.034-0.038,0.056-0.049c0.171-0.083,0.499,0.189,0.731,0.607c0.149,0.268,0.223,0.531,0.211,0.707
		c-0.045-0.087-0.102-0.186-0.167-0.288c-0.068-0.107-0.133-0.215-0.201-0.322c-0.199-0.312-0.401-0.543-0.452-0.515
		c-0.051,0.028,0.069,0.304,0.268,0.616c0.068,0.107,0.133,0.215,0.201,0.322c0.12,0.188,0.286,0.401,0.169,0.624
		c-2.907,5.524-8.794,9.607-15.883,10.29c-9.718,0.936-18.345-4.841-20.484-13.244c-0.053-0.207-0.189-0.809-0.202-0.961
		C0.785,9.175,1.384,8.231,2.317,7.759v0c0.279-0.143,0.509-0.387,0.642-0.712C3.478,5.782,2.976,3.443,2.416,2.48z"/>
	<path fill-rule="evenodd" clip-rule="evenodd" fill="#FFF243" d="M37.479,14.017c-3.196,2.908-7.446,4.879-12.229,5.339
		C14.293,20.411,4.688,13.145,3.796,3.127C3.777,2.91,3.763,2.695,3.752,2.48c0.02,0.013,0.04,0.026,0.06,0.04
		c0.205-0.151,0.464-0.243,0.744-0.247c0.136-0.002,0.267,0.018,0.388,0.055l0,0v0l0,0L4.944,2.332L4.936,2.366L4.935,2.369
		L4.93,2.392L4.929,2.398L4.923,2.422l0,0.002L4.917,2.45L4.916,2.456L4.914,2.464C4.907,2.493,4.901,2.523,4.895,2.552l0,0.001
		c-0.129,0.614-0.19,1.246-0.177,1.889l-0.001,0c0.004,0.19,0.014,0.382,0.031,0.574c0.113,1.273,0.511,2.457,1.13,3.505
		l0.004,0.023l0.002,0.003C5.929,8.611,5.97,8.676,6.008,8.743c4.729,7.385,18.344,5.452,25.457,4.235
		c1.662-0.284,3.983,0.414,5.164-0.567c0.015-0.021,0.034-0.038,0.056-0.049c0.171-0.083,0.499,0.189,0.731,0.607
		c0.149,0.268,0.223,0.531,0.211,0.707c-0.045-0.087-0.102-0.186-0.167-0.288c-0.068-0.107-0.133-0.215-0.201-0.322
		c-0.199-0.312-0.401-0.543-0.452-0.515c-0.051,0.028,0.069,0.304,0.268,0.616c0.068,0.107,0.134,0.215,0.201,0.322
		C37.378,13.65,37.515,13.829,37.479,14.017z"/>
</g>
<g>
	<g>
		<path fill="#1C1F28" d="M54.827,13.543c1.085-0.39,1.78-1.407,1.78-2.593c0-2.22-1.847-3.017-3.847-3.017h-5.152v12.067h4.966
			c2.305,0,4.576-0.627,4.576-3.407C57.149,15.001,56.319,13.882,54.827,13.543z M49.166,9.289h3.017c1.424,0,2.83,0.085,2.83,1.898
			s-1.627,1.915-2.983,1.915h-2.864V9.289z M52.353,18.662h-3.186v-4.305h2.915c1.61,0,3.458-0.017,3.458,2.085
			C55.539,18.56,53.963,18.662,52.353,18.662z M65.591,18.035c0-1.305,0.068-2.593,0.068-3.898c0-0.78,0.017-1.678-0.593-2.271
			c-0.576-0.542-1.576-0.847-2.746-0.847c-2.254,0-3.61,1.102-3.661,2.966h1.407c0.136-1.288,0.83-1.78,2.169-1.78
			c1.288,0,1.983,0.508,1.983,1.441c0,1.186-0.712,1.136-2.797,1.39c-2.068,0.254-3.102,1.169-3.102,2.729
			c0,1.525,1.068,2.475,2.797,2.475c1.356,0,2.305-0.424,3.169-1.39c0.017,0.83,0.458,1.288,1.271,1.288
			c0.322,0,0.678-0.051,0.983-0.169v-1.119c-0.153,0.034-0.22,0.051-0.356,0.051C65.743,18.899,65.591,18.679,65.591,18.035z
			 M64.218,17.052c0,1.119-1.305,2.051-2.661,2.051c-1.085,0-1.746-0.559-1.746-1.458c0-1.407,1.424-1.525,2.474-1.661
			c0.644-0.085,1.39-0.119,1.932-0.525V17.052z M72.066,11.018c-1.339,0-2.254,0.525-2.983,1.593v-1.356h-1.356v8.745h1.441v-4.576
			c0-1.729,0.61-3.152,2.491-3.152c1.813,0,1.881,1.186,1.881,2.576v5.152h1.441v-5.813C74.981,12.187,74.201,11.018,72.066,11.018z
			 M83.778,18.035c0-1.305,0.068-2.593,0.068-3.898c0-0.78,0.017-1.678-0.593-2.271c-0.576-0.542-1.576-0.847-2.746-0.847
			c-2.254,0-3.61,1.102-3.661,2.966h1.407c0.136-1.288,0.831-1.78,2.169-1.78c1.288,0,1.983,0.508,1.983,1.441
			c0,1.186-0.712,1.136-2.797,1.39c-2.068,0.254-3.102,1.169-3.102,2.729c0,1.525,1.068,2.475,2.797,2.475
			c1.356,0,2.305-0.424,3.169-1.39c0.017,0.83,0.458,1.288,1.271,1.288c0.322,0,0.678-0.051,0.983-0.169v-1.119
			c-0.152,0.034-0.22,0.051-0.356,0.051C83.931,18.899,83.778,18.679,83.778,18.035z M82.405,17.052
			c0,1.119-1.305,2.051-2.661,2.051c-1.085,0-1.746-0.559-1.746-1.458c0-1.407,1.424-1.525,2.474-1.661
			c0.644-0.085,1.39-0.119,1.932-0.525V17.052z M90.253,11.018c-1.339,0-2.254,0.525-2.983,1.593v-1.356h-1.356v8.745h1.441v-4.576
			c0-1.729,0.61-3.152,2.491-3.152c1.813,0,1.881,1.186,1.881,2.576v5.152h1.441v-5.813C93.168,12.187,92.389,11.018,90.253,11.018z
			 M98.627,14.798c-1.186-0.271-2.322-0.424-2.322-1.407c0-0.729,0.678-1.186,1.78-1.186c1.237,0,2.034,0.441,2.135,1.593h1.441
			c0-1.847-1.525-2.797-3.491-2.797c-2.034,0-3.339,1-3.339,2.576c0,2.017,2.017,2.203,3.525,2.576
			c1.22,0.305,2.203,0.508,2.203,1.475c0,0.881-0.847,1.458-2.135,1.458c-1.39,0-2.288-0.525-2.373-1.847h-1.424
			c0.085,1.966,1.39,3.034,3.763,3.034c2.186,0,3.627-1.119,3.627-2.813C102.016,15.56,100.101,15.136,98.627,14.798z
			 M103.542,20.001H105v-8.745h-1.458V20.001z M103.542,7.933v1.763H105V7.933H103.542z"/>
	</g>
</g>
</svg>
