<?xml version="1.0" encoding="utf-8"?>
<!-- Generator: Adobe Illustrator 18.1.1, SVG Export Plug-In . SVG Version: 6.00 Build 0)  -->
<svg version="1.1" id="Слой_1" xmlns="http://www.w3.org/2000/svg" xmlns:xlink="http://www.w3.org/1999/xlink" x="0px" y="0px"
	 width="16px" height="16px" viewBox="1386.395 387.805 16 16" enable-background="new 1386.395 387.805 16 16"
	 xml:space="preserve">
<g>
	<path fill="#000103" d="M1400.743,388.661l0.141,0.092l-0.003,7.599l-0.17,0.086c-2.751,1.403-3.569,3.251-3.687,3.55v2.295
		c-0.002,0.924-0.544,1.522-1.383,1.522c-0.999,0-1.423-0.973-1.45-1.037c-0.031-0.093-0.765-2.284-0.839-3.013
		c-0.055-0.553,0.199-1.659,0.352-2.261h-4.074c-0.312,0-0.896-0.061-1.307-0.473c-0.277-0.278-0.418-0.654-0.417-1.116
		c0-0.713,0.254-1.145,0.469-1.383c-0.287-0.377-0.402-0.759-0.345-1.139c0.067-0.439,0.356-0.761,0.583-0.952
		c-0.21-0.336-0.281-0.681-0.212-1.026c0.11-0.547,0.558-0.944,0.865-1.157c-0.231-0.411-0.277-0.803-0.139-1.169
		c0.35-0.922,1.755-1.234,1.914-1.266l6.927-0.007C1399.42,387.805,1400.69,388.626,1400.743,388.661z M1389.709,389.3
		c-0.089,0.236-0.008,0.525,0.241,0.858l0.224,0.298l-0.334,0.167c-0.007,0.004-0.722,0.374-0.829,0.904
		c-0.049,0.246,0.041,0.498,0.276,0.771l0.251,0.292l-0.338,0.185c-0.005,0.002-0.491,0.278-0.555,0.702
		c-0.04,0.261,0.092,0.551,0.391,0.86l0.27,0.288l-0.342,0.2c-0.018,0.01-0.435,0.264-0.435,1.081c0,0.296,0.077,0.517,0.235,0.676
		c0.262,0.263,0.694,0.291,0.871,0.291l0,0h4.886l-0.111,0.396c-0.14,0.496-0.49,1.9-0.438,2.426
		c0.055,0.547,0.603,2.262,0.801,2.854c0.002,0.006,0.276,0.636,0.87,0.636c0.658,0,0.758-0.565,0.758-0.899v-2.35l0.015-0.096
		c0.03-0.092,0.753-2.226,3.842-3.865l0.003-6.875c-0.346-0.197-1.283-0.67-2.293-0.67l-6.831,0.001
		C1390.776,388.509,1389.898,388.801,1389.709,389.3z"/>
</g>
</svg>
