<?xml version="1.0" encoding="utf-8"?>
<!-- Generator: Adobe Illustrator 18.1.1, SVG Export Plug-In . SVG Version: 6.00 Build 0)  -->
<svg version="1.1" id="Layer_1" xmlns="http://www.w3.org/2000/svg" xmlns:xlink="http://www.w3.org/1999/xlink" x="0px" y="0px"
	 width="16px" height="16px" viewBox="-289 389 16 16" enable-background="new -289 389 16 16" xml:space="preserve">
<path d="M-277.7,398.9h-0.7l-0.3-0.2c0.9-1,1.4-2.4,1.4-3.9c0-3.3-2.7-5.9-5.9-5.9c-3.3,0-5.9,2.7-5.9,5.9c0,3.3,2.7,5.9,5.9,5.9
	c1.5,0,2.8-0.5,3.9-1.4l0.2,0.3v0.7l4.6,4.6l1.4-1.4L-277.7,398.9z M-283.2,398.9c-2.3,0-4.1-1.8-4.1-4.1c0-2.3,1.8-4.1,4.1-4.1
	c2.3,0,4.1,1.8,4.1,4.1C-279.1,397.1-280.9,398.9-283.2,398.9z"/>
</svg>
