<?xml version="1.0" encoding="utf-8"?>
<!-- Generator: Adobe Illustrator 18.1.1, SVG Export Plug-In . SVG Version: 6.00 Build 0)  -->
<svg version="1.1" xmlns="http://www.w3.org/2000/svg" xmlns:xlink="http://www.w3.org/1999/xlink" x="0px" y="0px" width="32px"
	 height="32px" viewBox="0 0 32 32" enable-background="new 0 0 32 32" xml:space="preserve">
<g id="Layer_1" display="none">
	<path display="inline" fill="#0D0F0F" d="M13.283,15.34c0-1.302,2.75-1.679,2.75-4.738c0-1.836-0.163-2.942-1.55-3.593
		c0-0.456,2.45-0.156,2.45-1.007c-0.425,0-5.366,0-5.366,0S6.133,6.14,6.133,10.931c0,4.791,4.75,4.235,4.75,4.235s0,0.725,0,1.215
		c0,0.49,0.637,0.325,0.717,1.319c-0.321,0-6.6-0.173-6.6,4.166c0,4.339,5.533,4.131,5.533,4.131s6.4,0.304,6.4-5.086
		C16.933,17.683,13.283,16.641,13.283,15.34z M8.647,11.208c-0.502-1.924,0.16-3.786,1.479-4.16
		c1.319-0.374,2.796,0.883,3.298,2.807c0.503,1.924-0.159,3.787-1.479,4.161C10.626,14.39,9.149,13.133,8.647,11.208z
		 M11.395,24.611c-2.215,0.156-4.099-1.081-4.208-2.763c-0.11-1.683,1.597-3.173,3.812-3.329c2.216-0.156,4.1,1.081,4.21,2.763
		C15.318,22.965,13.61,24.455,11.395,24.611z"/>
	<polygon display="inline" fill="#0D0F0F" points="27,9.891 27,11.036 23.264,11.036 23.264,14.923 22.164,14.923 22.164,11.036 
		18.433,11.036 18.433,9.891 22.164,9.891 22.164,6 23.264,6 23.264,9.891 	"/>
</g>
<g id="Layer_2">
	<path fill-rule="evenodd" clip-rule="evenodd" fill="#0D0F0F" d="M3.479,20.614c0,0,3.444,1.244,4.876,1.244
		c0,0,1.912,0.791,3.223-1.324c0,0,0.442-0.659-0.156-0.979c0,0-5.464-0.658-5.048-1.696c0,0-0.026-0.586,0.729-0.453
		c0,0,1.054-2.095,0.637-2.361c0,0-0.651-0.586-0.13-0.64c0,0,1.531,0.213,2.025,0.346c0,0,0.339-0.125,0.026-0.364
		c-0.312-0.24-0.833-0.78-0.729-0.886c0,0,0.182-0.453,1.015-0.08c0,0,0.464-0.513,0.23-0.779c0,0-0.702-0.426-0.364-0.773
		c0,0,1.586-2.04,3.354,1.178c0,0,0.442,0.613,0.495,0.026c0,0,2.162-6.301,4.999-6.807c0,0,0.911,0.186,1.093-0.107
		c0,0,0.789-0.319,1.049-0.053c0,0,0.26,0.4,0.572,0.16c0,0,1.119-0.453,0.781,0.293c0,0-1.072,1.21-1.462,1.237
		c-0.39,0.026-0.312,0.566,0.026,0.62c0,0,4.681,0.345,4.681,3.914c0,0,0.274,0.848,1.159-0.031c0,0,1.339-0.872,1.678-0.914
		c0,0,0.364-0.239,0.312,0.32c0,0-0.963,1.706-1.952,2.185c0,0-0.598,0.772,0.26,0.613c0,0,0.835-0.177,1.225-0.417
		c0,0,1.015-0.506,0.547,0.4c0,0-2.137,1.419-2.605,1.419c0,0-0.312,0.08-0.312,0.373c0,0-0.286,9.722-12.205,9.722
		c0,0-5.968-0.007-9.872-4.694C3.635,21.306,2.88,20.48,3.479,20.614z"/>
	<g>
	</g>
	<g>
	</g>
	<g>
	</g>
	<g>
	</g>
	<g>
	</g>
	<g>
	</g>
</g>
</svg>
