<?xml version="1.0" encoding="utf-8"?>
<!-- Generator: Adobe Illustrator 18.1.1, SVG Export Plug-In . SVG Version: 6.00 Build 0)  -->
<svg version="1.1" id="Layer_2" xmlns="http://www.w3.org/2000/svg" xmlns:xlink="http://www.w3.org/1999/xlink" x="0px" y="0px"
	 width="32px" height="32px" viewBox="0 0 32 32" enable-background="new 0 0 32 32" xml:space="preserve">
<path fill="#0C0E0F" d="M23.564,25.473c-0.023,0-0.046-0.005-0.068-0.014l-6.799-2.823c-0.055-0.023-0.094-0.072-0.106-0.129
	c-0.011-0.058,0.008-0.118,0.051-0.159c0.782-0.755,1.212-1.766,1.212-2.848c0-0.458-0.078-0.908-0.233-1.338
	c-0.007-0.019-0.01-0.038-0.01-0.057l-4.964-6.624c-0.997,0.858-1.941,2.14-1.835,3.389c0.008,0.097-0.064,0.182-0.162,0.19
	c-0.095,0.008-0.182-0.063-0.191-0.16c-0.127-1.492,1.061-2.992,2.215-3.898c1.39-1.092,2.898-1.559,3.935-1.22
	c0.093,0.03,0.143,0.129,0.113,0.222c-0.03,0.092-0.129,0.142-0.223,0.111c-0.905-0.296-2.308,0.152-3.58,1.142l5.07,6.764
	c1.309,0.798,3.066,0.757,4.339-0.11c0.05-0.034,0.114-0.041,0.17-0.016c0.056,0.024,0.095,0.075,0.105,0.134l1.135,7.241
	c0.01,0.063-0.015,0.126-0.065,0.165C23.642,25.46,23.603,25.473,23.564,25.473z M17.072,22.411l6.269,2.603l-1.046-6.664
	c-1.264,0.749-2.908,0.796-4.211,0.129c0.081,0.333,0.122,0.675,0.122,1.021C18.207,20.59,17.806,21.614,17.072,22.411z
	 M9.282,13.156c-0.091,0-0.168-0.069-0.176-0.161c-0.127-1.492,1.06-2.991,2.215-3.898c1.39-1.092,2.898-1.559,3.935-1.22
	c0.093,0.031,0.143,0.13,0.113,0.222c-0.031,0.092-0.129,0.144-0.223,0.113c-0.913-0.298-2.328,0.158-3.606,1.162
	c-1.082,0.85-2.197,2.24-2.082,3.592c0.008,0.097-0.064,0.182-0.161,0.19C9.292,13.156,9.287,13.156,9.282,13.156z M21.237,24.331
	c0.257-0.879,0.991-1.556,1.904-1.737l0.424,2.703L21.237,24.331L21.237,24.331z M13.303,6.703c-2.305,0-5.886,3.241-4.594,5.519
	l7.619,10.071l7.236,3.005l-1.234-7.871L14.71,7.397C14.39,6.912,13.888,6.703,13.303,6.703 M13.303,6
	c0.85,0,1.554,0.352,1.985,0.991l7.606,10.011c0.07,0.092,0.117,0.201,0.134,0.316l1.234,7.871c0.04,0.252-0.061,0.505-0.262,0.661
	C23.874,25.949,23.72,26,23.564,26c-0.092,0-0.184-0.018-0.273-0.054l-7.236-3.005c-0.116-0.048-0.217-0.126-0.293-0.226
	L8.143,12.644c-0.019-0.025-0.036-0.05-0.051-0.077c-0.553-0.974-0.474-2.162,0.221-3.345C9.358,7.445,11.595,6,13.303,6L13.303,6z"
	/>
<g>
</g>
<g>
</g>
<g>
</g>
<g>
</g>
<g>
</g>
<g>
</g>
</svg>
