<?xml version="1.0" encoding="utf-8"?>
<!-- Generator: Adobe Illustrator 18.1.1, SVG Export Plug-In . SVG Version: 6.00 Build 0)  -->
<svg version="1.1" id="Layer_2" xmlns="http://www.w3.org/2000/svg" xmlns:xlink="http://www.w3.org/1999/xlink" x="0px" y="0px"
	 width="32px" height="32px" viewBox="0 0 32 32" enable-background="new 0 0 32 32" xml:space="preserve">
<g>
	<g>
		<path fill="#0C0E0F" d="M21.647,18.112c0.401-0.415,0.405-0.936,0.08-1.47c-0.285-0.467-0.779-0.664-1.31-0.526
			c-0.273,0.071-0.508,0.209-0.728,0.379c-2.223,1.506-5.264,1.464-7.478-0.069c-0.109-0.076-0.222-0.146-0.341-0.203
			c-0.614-0.292-1.205-0.156-1.557,0.352c-0.411,0.594-0.359,1.17,0.161,1.673c0.135,0.13,0.287,0.243,0.434,0.359
			c1.188,0.936,2.576,1.318,4.115,1.48c-0.109,0.117-0.178,0.198-0.253,0.273c-1.129,1.14-2.257,2.281-3.388,3.419
			c-0.234,0.235-0.401,0.497-0.418,0.841c-0.024,0.508,0.288,1.013,0.779,1.253c0.462,0.226,0.936,0.155,1.334-0.241
			c0.887-0.881,1.769-1.768,2.637-2.668c0.217-0.225,0.335-0.274,0.581-0.015c0.845,0.891,1.724,1.749,2.587,2.624
			c0.225,0.229,0.479,0.391,0.804,0.414c0.513,0.035,1.036-0.295,1.27-0.798c0.214-0.46,0.133-0.95-0.255-1.346
			c-1.139-1.161-2.287-2.313-3.431-3.47c-0.08-0.08-0.139-0.149-0.266-0.288c0.842-0.102,1.692-0.254,2.469-0.557
			C20.294,19.207,21.033,18.747,21.647,18.112z M15.96,16.123c2.773,0.01,5.04-2.231,5.054-4.996c0.014-2.83-2.216-5.12-4.994-5.127
			c-2.772-0.008-5.025,2.249-5.041,5.05C10.964,13.821,13.215,16.114,15.96,16.123z M16.001,8.585
			c1.362,0.001,2.45,1.096,2.455,2.472c0.004,1.375-1.08,2.478-2.442,2.482c-1.366,0.005-2.463-1.082-2.473-2.453
			C13.53,9.699,14.627,8.584,16.001,8.585z"/>
	</g>
</g>
<g>
</g>
<g>
</g>
<g>
</g>
<g>
</g>
<g>
</g>
<g>
</g>
</svg>
