<?xml version="1.0" encoding="utf-8"?>
<!-- Generator: Adobe Illustrator 18.1.1, SVG Export Plug-In . SVG Version: 6.00 Build 0)  -->
<svg version="1.1" id="Layer_2" xmlns="http://www.w3.org/2000/svg" xmlns:xlink="http://www.w3.org/1999/xlink" x="0px" y="0px"
	 width="32px" height="32px" viewBox="0 0 32 32" enable-background="new 0 0 32 32" xml:space="preserve">
<path fill="#0D0F0F" d="M11.002,15.129h1.79V26h3.973V15.129h2.808l0.762-3.51H16.6c0,0-0.291-1.459,0.263-2.005
	c0.285-0.281,0.797-0.494,1.453-0.494c0.667,0,1.203,0.362,1.877,0.762l0.805-3.091C19.759,6.436,18.969,6,17.677,6
	c-1.26,0-1.986,0.205-2.81,0.613c-0.824,0.409-1.198,1.133-1.505,1.783c-0.307,0.651-0.46,1.442-0.46,2.763v0.46h-1.845
	L11.002,15.129z"/>
<g>
</g>
<g>
</g>
<g>
</g>
<g>
</g>
<g>
</g>
<g>
</g>
</svg>
