<?xml version="1.0" encoding="utf-8"?>
<!-- Generator: Adobe Illustrator 18.1.1, SVG Export Plug-In . SVG Version: 6.00 Build 0)  -->
<svg version="1.1" id="Layer_2" xmlns="http://www.w3.org/2000/svg" xmlns:xlink="http://www.w3.org/1999/xlink" x="0px" y="0px"
	 width="32px" height="32px" viewBox="0 0 32 32" enable-background="new 0 0 32 32" xml:space="preserve">
<path fill="#0D0F0F" d="M22.886,16.631c-0.743-0.802-1.733-1.332-2.969-1.592v-0.108c0.86-0.358,1.534-0.918,2.022-1.679
	c0.488-0.761,0.732-1.63,0.732-2.606c0-0.842-0.177-1.585-0.531-2.23c-0.354-0.645-0.889-1.16-1.606-1.545
	c-0.663-0.358-1.373-0.593-2.13-0.705C17.648,6.056,16.535,6,15.066,6H7.999v20h8.008c1.389,0,2.533-0.125,3.433-0.376
	c0.9-0.25,1.727-0.672,2.479-1.262c0.636-0.492,1.142-1.115,1.518-1.867c0.376-0.752,0.564-1.625,0.564-2.619
	C24.001,18.514,23.63,17.433,22.886,16.631z M17.337,12.81c-0.153,0.331-0.43,0.591-0.833,0.779
	c-0.367,0.17-0.723,0.264-1.068,0.282c-0.345,0.018-0.947,0.027-1.807,0.027h-0.631V9.667h0.349c0.896,0,1.57,0.007,2.022,0.02
	c0.452,0.013,0.844,0.092,1.176,0.235c0.349,0.152,0.607,0.399,0.773,0.739c0.166,0.34,0.249,0.672,0.249,0.994
	C17.566,12.094,17.489,12.479,17.337,12.81z M18.513,21.077c-0.21,0.381-0.544,0.669-1.001,0.866
	c-0.52,0.224-1.03,0.345-1.532,0.362c-0.502,0.018-1.406,0.027-2.714,0.027h-0.269v-5.01h0.927c0.896,0,1.61,0.007,2.143,0.02
	c0.533,0.013,0.952,0.079,1.256,0.195c0.502,0.179,0.878,0.443,1.129,0.792c0.251,0.349,0.376,0.833,0.376,1.451
	C18.828,20.265,18.723,20.697,18.513,21.077z"/>
<g>
</g>
<g>
</g>
<g>
</g>
<g>
</g>
<g>
</g>
<g>
</g>
</svg>
