<?xml version="1.0" encoding="utf-8"?>
<!-- Generator: Adobe Illustrator 18.1.1, SVG Export Plug-In . SVG Version: 6.00 Build 0)  -->
<svg version="1.1" id="Слой_1" xmlns="http://www.w3.org/2000/svg" xmlns:xlink="http://www.w3.org/1999/xlink" x="0px" y="0px"
	 width="48px" height="48px" viewBox="-274.893 373.125 48 48" enable-background="new -274.893 373.125 48 48"
	 xml:space="preserve">
<g>
	<path fill="#212332" d="M-246.871,394.231c-0.165,0-0.329-0.073-0.437-0.214c-0.188-0.241-0.144-0.589,0.097-0.777l1.724-1.341
		c0.242-0.188,0.59-0.143,0.777,0.097c0.188,0.241,0.144,0.589-0.097,0.777l-1.724,1.341
		C-246.633,394.193-246.753,394.231-246.871,394.231z"/>
	<path fill="#212332" d="M-253.327,399.249c-0.165,0-0.328-0.073-0.437-0.213c-0.188-0.242-0.144-0.589,0.097-0.777l1.687-1.312
		c0.241-0.187,0.588-0.144,0.777,0.097c0.188,0.241,0.144,0.589-0.097,0.777l-1.687,1.312
		C-253.088,399.212-253.208,399.249-253.327,399.249z"/>
	<g>
		<g>
			<g>
				<path fill="#212332" d="M-243.16,394.977c-0.405,0-0.779-0.183-1.027-0.503l-2.797-3.597c-0.439-0.566-0.337-1.384,0.228-1.823
					l3.597-2.797c0.544-0.424,1.397-0.318,1.822,0.226l2.798,3.599c0.213,0.275,0.307,0.616,0.263,0.962
					c-0.043,0.345-0.218,0.651-0.492,0.862l-3.596,2.797C-242.59,394.88-242.873,394.977-243.16,394.977z M-242.361,387.091
					c-0.03,0-0.074,0.007-0.117,0.04l-3.599,2.798c-0.084,0.065-0.099,0.186-0.034,0.27l2.797,3.596
					c0.053,0.068,0.124,0.075,0.153,0.075c0.03,0,0.075-0.007,0.118-0.041l3.597-2.798c0.055-0.042,0.069-0.098,0.073-0.127
					c0.004-0.03,0.004-0.089-0.039-0.143l-2.797-3.598C-242.26,387.098-242.332,387.091-242.361,387.091z"/>
				<path fill="#212332" d="M-256.114,405.05c-0.404,0-0.778-0.183-1.026-0.503l-2.798-3.597c-0.439-0.567-0.336-1.384,0.229-1.823
					l3.597-2.798c0.548-0.425,1.4-0.317,1.824,0.228l2.798,3.598c0.213,0.275,0.307,0.616,0.264,0.961
					c-0.044,0.344-0.218,0.651-0.492,0.863l-3.597,2.797C-255.544,404.952-255.827,405.05-256.114,405.05z M-255.315,397.163
					c-0.03,0-0.075,0.007-0.119,0.041l-3.596,2.797c-0.084,0.065-0.099,0.187-0.034,0.271l2.798,3.597
					c0.052,0.068,0.124,0.075,0.152,0.075c0.029,0,0.074-0.007,0.117-0.041l3.599-2.798c0.055-0.043,0.069-0.098,0.073-0.128
					c0.004-0.03,0.004-0.088-0.039-0.143l-2.798-3.598C-255.215,397.17-255.287,397.163-255.315,397.163z"/>
				<path fill="#212332" d="M-249.252,399.106c-1.973,0-3.578-1.605-3.578-3.578c0-1.973,1.605-3.578,3.578-3.578
					c1.973,0,3.578,1.605,3.578,3.578C-245.674,397.5-247.279,399.106-249.252,399.106z M-249.252,393.056
					c-1.363,0-2.472,1.109-2.472,2.471c0,1.363,1.109,2.472,2.472,2.472c1.363,0,2.471-1.109,2.471-2.472
					C-246.781,394.165-247.889,393.056-249.252,393.056z"/>
			</g>
			<path fill="#212332" d="M-262.454,409.231c-0.144,0-0.289-0.009-0.434-0.027c-0.909-0.114-1.72-0.576-2.283-1.299
				c-0.563-0.724-0.81-1.623-0.696-2.533c0.114-0.909,0.575-1.721,1.299-2.283c0.724-0.563,1.622-0.811,2.533-0.696
				c0.91,0.114,1.72,0.576,2.282,1.299c0.188,0.241,0.144,0.589-0.097,0.777c-0.242,0.186-0.589,0.144-0.777-0.098
				c-0.381-0.49-0.93-0.802-1.546-0.88c-0.615-0.077-1.226,0.09-1.716,0.471s-0.803,0.931-0.88,1.547
				c-0.077,0.617,0.09,1.226,0.471,1.716c0.381,0.49,0.931,0.803,1.547,0.88c0.617,0.078,1.226-0.09,1.716-0.472
				c0.241-0.189,0.588-0.145,0.777,0.097c0.188,0.241,0.145,0.589-0.097,0.777C-260.963,408.98-261.695,409.231-262.454,409.231z"/>
			<path fill="#212332" d="M-240.372,389.178c-0.165,0-0.329-0.073-0.437-0.214c-0.188-0.241-0.144-0.589,0.097-0.777l3.925-3.051
				c0.241-0.188,0.59-0.143,0.776,0.097c0.188,0.241,0.144,0.589-0.097,0.777l-3.925,3.051
				C-240.134,389.14-240.254,389.178-240.372,389.178z"/>
			<path fill="#212332" d="M-260.19,404.585c-0.165,0-0.328-0.073-0.437-0.214c-0.188-0.241-0.144-0.589,0.097-0.777l2.087-1.622
				c0.241-0.188,0.589-0.144,0.777,0.098c0.188,0.241,0.144,0.589-0.097,0.777l-2.087,1.622
				C-259.951,404.547-260.071,404.585-260.19,404.585z"/>
		</g>
	</g>
</g>
</svg>
