<?xml version="1.0" encoding="utf-8"?>
<!-- Generator: Adobe Illustrator 18.1.1, SVG Export Plug-In . SVG Version: 6.00 Build 0)  -->
<svg version="1.1" id="Слой_1" xmlns="http://www.w3.org/2000/svg" xmlns:xlink="http://www.w3.org/1999/xlink" x="0px" y="0px"
	 width="48px" height="48px" viewBox="-271.188 373.27 48 48" enable-background="new -271.188 373.27 48 48" xml:space="preserve">
<g>
	<path fill="#212332" d="M-247.188,403.181c-8.411,0-15-3.439-15-7.831c0-4.391,6.589-7.831,15-7.831c8.411,0,15,3.44,15,7.831
		C-232.188,399.741-238.777,403.181-247.188,403.181z M-247.188,388.561c-7.566,0-13.959,3.109-13.959,6.789
		c0,3.68,6.392,6.789,13.959,6.789s13.959-3.109,13.959-6.789C-233.229,391.67-239.622,388.561-247.188,388.561z"/>
	<path fill="#212332" d="M-246.965,400.729c-7.17,0-12.787-2.54-12.787-5.781c0-3.242,5.617-5.781,12.787-5.781
		c7.17,0,12.787,2.539,12.787,5.781C-234.178,398.19-239.795,400.729-246.965,400.729z M-246.965,389.688
		c-6.764,0-12.267,2.36-12.267,5.26s5.503,5.26,12.267,5.26c6.764,0,12.267-2.36,12.267-5.26S-240.201,389.688-246.965,389.688z"/>
	<g>
		<path fill="#212332" d="M-255.541,399.233c-0.066,0-0.132-0.025-0.182-0.074c-0.103-0.101-0.104-0.266-0.004-0.368
			c0.073-0.074,7.35-7.436,14.152-9.067c0.142-0.033,0.281,0.053,0.314,0.192c0.034,0.14-0.053,0.28-0.193,0.314
			c-6.658,1.596-13.83,8.852-13.902,8.924C-255.406,399.207-255.474,399.233-255.541,399.233z"/>
		<path fill="#212332" d="M-257.669,398.079c-0.059,0-0.119-0.02-0.168-0.062c-0.11-0.093-0.123-0.258-0.03-0.367
			c0.046-0.054,4.703-5.478,12.485-8.417c0.136-0.051,0.285,0.017,0.336,0.152c0.051,0.134-0.017,0.285-0.152,0.336
			c-7.658,2.892-12.227,8.213-12.272,8.267C-257.521,398.048-257.595,398.079-257.669,398.079z"/>
		<path fill="#212332" d="M-249.503,400.617c-0.062,0-0.124-0.022-0.174-0.067c-0.107-0.096-0.116-0.26-0.02-0.368
			c0.053-0.059,5.366-5.932,12.59-8.828c0.132-0.053,0.285,0.011,0.338,0.145c0.053,0.133-0.011,0.285-0.145,0.339
			c-7.108,2.849-12.343,8.634-12.395,8.692C-249.36,400.587-249.432,400.617-249.503,400.617z"/>
		<path fill="#212332" d="M-245.941,400.711c-0.067,0-0.134-0.026-0.186-0.078c-0.101-0.102-0.1-0.267,0.003-0.368
			c0.054-0.053,5.486-5.371,10.783-7.507c0.132-0.053,0.284,0.011,0.339,0.144c0.054,0.133-0.011,0.285-0.144,0.339
			c-5.201,2.097-10.558,7.342-10.612,7.395C-245.808,400.686-245.874,400.711-245.941,400.711z"/>
	</g>
	<g>
		<path fill="#212332" d="M-248.129,390.974c-0.035,0-0.071-0.007-0.106-0.023c-0.985-0.439-1.934-0.768-2.823-0.977
			c-0.14-0.033-0.227-0.173-0.194-0.313c0.033-0.14,0.173-0.227,0.313-0.194c0.92,0.217,1.901,0.556,2.915,1.009
			c0.131,0.058,0.19,0.213,0.132,0.344C-247.934,390.916-248.029,390.974-248.129,390.974z"/>
		<path fill="#212332" d="M-242.292,394.637c-0.056,0-0.112-0.018-0.159-0.054c-1.286-0.993-2.55-1.855-3.758-2.562
			c-0.124-0.073-0.166-0.232-0.093-0.356c0.073-0.124,0.231-0.165,0.356-0.093c1.227,0.719,2.51,1.593,3.813,2.599
			c0.114,0.088,0.135,0.251,0.047,0.365C-242.138,394.602-242.214,394.637-242.292,394.637z"/>
		<path fill="#212332" d="M-237.645,398.744c-0.069,0-0.137-0.027-0.188-0.08c-0.011-0.011-1.104-1.149-2.798-2.598
			c-0.109-0.094-0.122-0.258-0.028-0.367c0.094-0.109,0.258-0.121,0.367-0.028c1.715,1.467,2.824,2.622,2.835,2.634
			c0.099,0.104,0.096,0.268-0.008,0.368C-237.515,398.72-237.58,398.744-237.645,398.744z"/>
		<path fill="#212332" d="M-246.403,390.104c-0.034,0-0.067-0.006-0.1-0.02c-0.342-0.142-0.692-0.28-1.049-0.412
			c-0.135-0.05-0.203-0.2-0.153-0.335c0.05-0.135,0.2-0.204,0.335-0.153c0.363,0.135,0.719,0.275,1.067,0.419
			c0.133,0.055,0.196,0.207,0.141,0.34C-246.204,390.044-246.301,390.104-246.403,390.104z"/>
		<path fill="#212332" d="M-240.329,393.445c-0.052,0-0.104-0.015-0.149-0.047c-1.291-0.901-2.47-1.606-3.823-2.286
			c-0.129-0.065-0.18-0.221-0.115-0.35c0.065-0.129,0.221-0.18,0.349-0.116c1.376,0.692,2.575,1.409,3.887,2.324
			c0.118,0.082,0.147,0.245,0.065,0.362C-240.167,393.407-240.247,393.445-240.329,393.445z"/>
		<path fill="#212332" d="M-235.582,397.517c-0.073,0-0.146-0.031-0.197-0.09c-0.009-0.011-0.963-1.109-2.813-2.609
			c-0.112-0.091-0.129-0.254-0.039-0.366c0.09-0.112,0.256-0.128,0.366-0.038c1.89,1.532,2.841,2.628,2.88,2.674
			c0.094,0.109,0.081,0.273-0.027,0.367C-235.461,397.496-235.521,397.517-235.582,397.517z"/>
		<path fill="#212332" d="M-252.149,393.344c-0.045,0-0.09-0.012-0.132-0.036c-1.264-0.744-2.532-1.373-3.768-1.868
			c-0.133-0.054-0.198-0.205-0.145-0.339c0.054-0.134,0.205-0.198,0.339-0.145c1.261,0.505,2.552,1.145,3.839,1.903
			c0.124,0.073,0.165,0.232,0.092,0.356C-251.972,393.298-252.059,393.344-252.149,393.344z"/>
		<path fill="#212332" d="M-246.325,397.617c-0.062,0-0.123-0.022-0.172-0.065c-1.222-1.081-2.493-2.078-3.779-2.964
			c-0.118-0.082-0.148-0.244-0.067-0.362c0.082-0.118,0.244-0.148,0.362-0.067c1.303,0.897,2.592,1.908,3.829,3.003
			c0.108,0.095,0.118,0.26,0.022,0.368C-246.182,397.587-246.253,397.617-246.325,397.617z"/>
		<path fill="#212332" d="M-243.398,400.503c-0.073,0-0.146-0.031-0.197-0.091c-0.004-0.004-0.383-0.443-1.062-1.126
			c-0.102-0.102-0.101-0.267,0.001-0.368c0.102-0.102,0.267-0.101,0.368,0.001c0.693,0.698,1.071,1.135,1.087,1.154
			c0.094,0.109,0.081,0.273-0.027,0.367C-243.277,400.482-243.337,400.503-243.398,400.503z"/>
		<path fill="#212332" d="M-254.12,394.782c-0.048,0-0.096-0.013-0.139-0.04c-1.339-0.848-2.612-1.518-3.782-1.989
			c-0.133-0.054-0.198-0.205-0.144-0.339c0.054-0.133,0.205-0.197,0.339-0.144c1.199,0.483,2.499,1.167,3.865,2.032
			c0.122,0.077,0.158,0.238,0.081,0.359C-253.949,394.739-254.034,394.782-254.12,394.782z"/>
		<path fill="#212332" d="M-248.276,399.37c-0.072,0-0.145-0.03-0.196-0.089c-0.01-0.012-1.037-1.172-3.785-3.174
			c-0.116-0.085-0.142-0.248-0.057-0.364c0.085-0.116,0.248-0.141,0.364-0.057c2.804,2.043,3.828,3.204,3.871,3.252
			c0.094,0.108,0.083,0.273-0.025,0.367C-248.154,399.349-248.215,399.37-248.276,399.37z"/>
	</g>
	<g>
		<path fill="#212332" d="M-247.15,407.021c-1.03,0-11.058-0.201-13.116-7.774c-0.076-0.278,0.088-0.564,0.366-0.639
			c0.278-0.077,0.564,0.088,0.639,0.366c1.945,7.156,12.072,7.005,12.171,7.006c0.283-0.01,0.526,0.221,0.533,0.508
			c0.007,0.287-0.221,0.526-0.508,0.533C-247.071,407.02-247.1,407.021-247.15,407.021z"/>
		<path fill="#212332" d="M-247.226,407.021c-0.051,0-0.08-0.001-0.085-0.001c-0.287-0.007-0.515-0.246-0.508-0.533
			c0.007-0.287,0.243-0.518,0.533-0.508c0.102-0.001,10.226,0.151,12.171-7.006c0.076-0.277,0.363-0.442,0.639-0.366
			c0.277,0.075,0.441,0.361,0.366,0.639C-236.167,406.819-246.195,407.021-247.226,407.021z"/>
	</g>
</g>
</svg>
