<?xml version="1.0" encoding="utf-8"?>
<!-- Generator: Adobe Illustrator 18.1.1, SVG Export Plug-In . SVG Version: 6.00 Build 0)  -->
<svg version="1.1" id="Слой_1" xmlns="http://www.w3.org/2000/svg" xmlns:xlink="http://www.w3.org/1999/xlink" x="0px" y="0px"
	 width="132px" height="32px" viewBox="-238.9 381.2 132 32" enable-background="new -238.9 381.2 132 32" xml:space="preserve">
<g>
	<g>
		<path d="M-189.2,398.2c0,0.1-0.1,0.3-0.2,0.4c-4.1,8-12.2,13.5-21.5,14.4c-13,1.3-24.8-6.6-27.8-18.6c-0.1-0.4-0.3-1-0.3-1.4
			c-0.2-1.8,0.8-3.5,2.5-4.3c0.1-0.1,0.2-0.2,0.3-0.4c0.5-1.3,0-4.1-0.6-5.3c-0.3-0.5-0.1-1.1,0.3-1.4c0,0,0.1,0,0.1-0.1
			c0.4-0.3,0.9-0.4,1.4-0.4c0.3,0,0.7,0,1,0.2c0.3-0.1,0.6-0.2,1-0.2c0.3,0,0.6,0,0.9,0.1c0.5,0.2,0.9,0.7,0.7,1.2l0,0.1l0,0.1
			c0,0,0,0.1,0,0.1c0,0,0,0,0,0c-0.2,0.8-0.2,1.5-0.2,2.3c0,0,0,0,0,0c0,0.2,0,0.4,0,0.7c0.1,1.5,0.6,3,1.3,4.3c0,0,0,0.1,0,0.1
			c0,0.1,0.1,0.1,0.1,0.2c0.8,1.3,1.8,2.3,3,3.2c7.2,5.2,20.4,3.4,28.8,1.9c0.9-0.2,1.9-0.1,2.9-0.1c0.8,0,2.5,0.2,3.2-0.4
			c0.1-0.1,0.2-0.2,0.4-0.3c1.1-0.5,2,0.4,2.5,1.3c0.2,0.4,0.4,1,0.4,1.5C-189,397.8-189.1,398-189.2,398.2z"/>
	</g>
	<path fill="#F3C644" d="M-235.8,382.5L-235.8,382.5L-235.8,382.5c0.2-0.2,0.5-0.2,0.9-0.3c0.4,0,0.7,0.1,1,0.3
		c0.3-0.2,0.6-0.3,1-0.3c0.2,0,0.3,0,0.5,0.1l0,0l0,0l0,0l0,0l0,0l0,0l0,0l0,0l0,0l0,0l0,0l0,0l0,0c0,0,0,0.1,0,0.1v0
		c-0.2,0.8-0.2,1.7-0.2,2.5h0c0,0.3,0,0.5,0,0.8c0.1,1.7,0.7,3.3,1.5,4.7l0,0l0,0c0.1,0.1,0.1,0.2,0.2,0.3c6.1,9.9,23.8,7.3,33,5.7
		c2.2-0.4,5.2,0.6,6.7-0.8c0,0,0-0.1,0.1-0.1c0.2-0.1,0.6,0.3,0.9,0.8c0.2,0.4,0.3,0.7,0.3,1c-0.1-0.1-0.1-0.2-0.2-0.4
		c-0.1-0.1-0.2-0.3-0.3-0.4c-0.3-0.4-0.5-0.7-0.6-0.7s0.1,0.4,0.3,0.8c0.1,0.1,0.2,0.3,0.3,0.4c0.2,0.3,0.4,0.5,0.2,0.8
		c-3.8,7.4-11.4,12.9-20.6,13.8c-12.6,1.3-23.8-6.5-26.6-17.8c-0.1-0.3-0.2-1.1-0.3-1.3c-0.1-1.4,0.7-2.6,1.9-3.3l0,0
		c0.4-0.2,0.7-0.5,0.8-1C-234.4,387-235.1,383.8-235.8,382.5z"/>
	<path fill="#FFF343" d="M-190.3,398c-4.1,3.9-9.7,6.6-15.9,7.2c-14.2,1.4-26.7-8.3-27.8-21.8c0-0.3,0-0.6-0.1-0.9
		c0,0,0.1,0,0.1,0.1c0.3-0.2,0.6-0.3,1-0.3c0.2,0,0.3,0,0.5,0.1l0,0l0,0l0,0l0,0l0,0l0,0l0,0l0,0l0,0l0,0l0,0l0,0l0,0
		c0,0,0,0.1,0,0.1v0c-0.2,0.8-0.2,1.7-0.2,2.5h0c0,0.3,0,0.5,0,0.8c0.1,1.7,0.7,3.3,1.5,4.7l0,0l0,0c0.1,0.1,0.1,0.2,0.2,0.3
		c6.1,9.9,23.8,7.3,33,5.7c2.2-0.4,5.2,0.6,6.7-0.8c0,0,0-0.1,0.1-0.1c0.2-0.1,0.6,0.3,0.9,0.8c0.2,0.4,0.3,0.7,0.3,1
		c-0.1-0.1-0.1-0.2-0.2-0.4c-0.1-0.1-0.2-0.3-0.3-0.4c-0.3-0.4-0.5-0.7-0.6-0.7c-0.1,0,0.1,0.4,0.3,0.8c0.1,0.1,0.2,0.3,0.3,0.4
		C-190.4,397.5-190.3,397.8-190.3,398z"/>
</g>
<g>
	<g>
		<path fill="#212121" d="M-167.6,396.3c-0.3-0.3-0.6-0.6-0.9-0.8c-0.4-0.2-0.7-0.3-1.1-0.4v-0.1c0.4-0.1,0.8-0.4,1.1-0.6
			c0.3-0.3,0.6-0.6,0.8-1s0.3-0.8,0.4-1.2c0.1-0.4,0.1-0.8,0.1-1.3c0-0.9-0.1-1.6-0.4-2.1c-0.3-0.5-0.7-1-1.2-1.3
			c-0.5-0.3-1.1-0.5-1.7-0.6c-0.7-0.1-1.4-0.2-2.1-0.2c-0.8,0-1.6,0-2.4,0.1c-0.8,0.1-1.5,0.2-2,0.3v16.8c0.4,0.1,0.8,0.2,1.2,0.2
			c0.4,0,0.9,0.1,1.3,0.1s0.8,0,1.2,0h0.9c0.8,0,1.5-0.1,2.2-0.3c0.7-0.2,1.3-0.5,1.8-0.9c0.5-0.4,0.9-0.9,1.2-1.6
			c0.3-0.6,0.5-1.4,0.5-2.3c0-0.6-0.1-1.2-0.2-1.7C-167.1,397-167.3,396.6-167.6,396.3z M-173.8,389.5c0.3-0.1,0.8-0.1,1.4-0.1
			c0.3,0,0.6,0,0.9,0.1c0.3,0.1,0.5,0.2,0.7,0.4s0.4,0.4,0.5,0.7c0.1,0.3,0.2,0.6,0.2,1.1c0,0.6-0.2,1.2-0.5,1.6
			c-0.3,0.4-0.7,0.7-1.2,0.9c-0.1,0-0.3,0.1-0.6,0.1s-0.4,0-0.6,0h-0.7L-173.8,389.5L-173.8,389.5z M-170.6,400.9
			c-0.4,0.4-1,0.7-1.7,0.7c-0.3,0-0.6,0-0.9,0c-0.3,0-0.5-0.1-0.7-0.1v-4.8h1.2c0.3,0,0.7,0,1,0.1c0.3,0,0.6,0.2,0.8,0.3
			c0.2,0.2,0.4,0.4,0.6,0.7c0.1,0.3,0.2,0.7,0.2,1.3C-169.9,399.8-170.2,400.5-170.6,400.9z M-156.4,400.1c0-0.7,0-1.4,0.1-2.2
			s0.1-1.5,0.1-2.2c0-1.3-0.3-2.3-0.8-3c-0.5-0.7-1.5-1.1-2.9-1.1c-0.9,0-1.8,0.1-2.5,0.3c-0.7,0.2-1.3,0.4-1.8,0.7l0.7,2.2
			c0.4-0.2,0.9-0.4,1.4-0.5c0.5-0.1,1-0.2,1.5-0.2c0.7,0,1.1,0.2,1.3,0.6c0.2,0.4,0.3,1.1,0.2,2c-1.8-0.1-3.2,0.2-4.2,0.8
			c-1,0.6-1.6,1.7-1.6,3.1c0,1.1,0.3,1.9,0.8,2.6c0.6,0.6,1.3,1,2.3,1c0.7,0,1.3-0.2,1.8-0.5c0.5-0.3,0.8-0.7,1.1-1.2h0.1l0.5,1.5
			h2.4c-0.2-0.6-0.3-1.2-0.3-1.9C-156.4,401.5-156.4,400.8-156.4,400.1z M-159.1,400.6c-0.1,0.3-0.3,0.5-0.6,0.7
			c-0.3,0.2-0.6,0.3-1.1,0.3c-0.4,0-0.6-0.1-0.8-0.4c-0.2-0.3-0.3-0.6-0.3-1.1c0-0.3,0.1-0.6,0.2-0.8c0.2-0.2,0.4-0.4,0.6-0.5
			c0.3-0.1,0.6-0.2,0.9-0.2c0.3,0,0.7,0,1.1,0L-159.1,400.6L-159.1,400.6z M-145.4,392.5c-0.3-0.3-0.6-0.6-1-0.7
			c-0.4-0.1-0.8-0.2-1.3-0.2c-0.8,0-1.5,0.2-2,0.5c-0.5,0.3-0.9,0.7-1.2,1.2h-0.1l-0.3-1.4h-2.3V404h2.9v-8.4c0.1-0.4,0.4-0.7,0.7-1
			c0.3-0.3,0.7-0.4,1.1-0.4c0.5,0,0.9,0.2,1.1,0.5c0.2,0.4,0.3,1,0.3,1.9v7.4h2.9v-8.1c0-0.8-0.1-1.5-0.2-2.1
			C-145,393.2-145.2,392.8-145.4,392.5z M-134.1,400.1c0-0.7,0-1.4,0.1-2.2c0-0.7,0.1-1.5,0.1-2.2c0-1.3-0.3-2.3-0.8-3
			c-0.5-0.7-1.5-1.1-2.9-1.1c-0.9,0-1.8,0.1-2.5,0.3c-0.7,0.2-1.3,0.4-1.8,0.7l0.7,2.2c0.4-0.2,0.9-0.4,1.4-0.5
			c0.5-0.1,1-0.2,1.5-0.2c0.7,0,1.1,0.2,1.3,0.6c0.2,0.4,0.3,1.1,0.2,2c-1.8-0.1-3.2,0.2-4.2,0.8c-1,0.6-1.6,1.7-1.6,3.1
			c0,1.1,0.3,1.9,0.8,2.6c0.6,0.6,1.3,1,2.3,1c0.7,0,1.3-0.2,1.8-0.5c0.5-0.3,0.8-0.7,1.1-1.2h0.1l0.5,1.5h2.4
			c-0.2-0.6-0.3-1.2-0.3-1.9C-134.1,401.5-134.1,400.8-134.1,400.1z M-136.8,400.6c-0.1,0.3-0.3,0.5-0.6,0.7
			c-0.3,0.2-0.6,0.3-1.1,0.3c-0.4,0-0.6-0.1-0.8-0.4c-0.2-0.3-0.3-0.6-0.3-1.1c0-0.3,0.1-0.6,0.2-0.8c0.2-0.2,0.4-0.4,0.6-0.5
			c0.3-0.1,0.6-0.2,0.9-0.2c0.3,0,0.7,0,1.1,0V400.6z M-123.1,392.5c-0.3-0.3-0.6-0.6-1-0.7c-0.4-0.1-0.8-0.2-1.3-0.2
			c-0.8,0-1.5,0.2-2,0.5c-0.5,0.3-0.9,0.7-1.2,1.2h-0.1l-0.3-1.4h-2.3V404h2.9v-8.4c0.1-0.4,0.4-0.7,0.7-1c0.3-0.3,0.7-0.4,1.1-0.4
			c0.5,0,0.9,0.2,1.1,0.5c0.2,0.4,0.3,1,0.3,1.9v7.4h2.9v-8.1c0-0.8-0.1-1.5-0.2-2.1C-122.6,393.2-122.8,392.8-123.1,392.5z
			 M-113.8,397.7c-0.3-0.3-0.7-0.6-1.1-0.8c-0.4-0.2-0.7-0.4-1.1-0.6c-0.3-0.2-0.6-0.4-0.8-0.6s-0.3-0.5-0.3-0.8c0-0.7,0.4-1,1.2-1
			c0.4,0,0.9,0.1,1.3,0.2c0.4,0.1,0.8,0.2,1.1,0.4l0.7-2.2c-0.4-0.2-0.9-0.4-1.5-0.6c-0.6-0.2-1.3-0.2-2-0.2c-1.2,0-2.1,0.3-2.7,0.9
			c-0.6,0.6-0.9,1.5-0.9,2.6c0,0.7,0.1,1.2,0.3,1.7c0.2,0.4,0.5,0.8,0.8,1.1c0.3,0.3,0.7,0.6,1.1,0.8c0.4,0.2,0.7,0.4,1.1,0.6
			c0.3,0.2,0.6,0.4,0.8,0.7c0.2,0.2,0.3,0.5,0.3,0.9c0,0.4-0.1,0.6-0.4,0.8c-0.2,0.2-0.6,0.3-0.9,0.3c-0.5,0-1-0.1-1.4-0.2
			c-0.4-0.1-0.8-0.3-1.2-0.5l-0.8,2.3c0.4,0.3,0.9,0.5,1.6,0.6c0.6,0.2,1.3,0.2,2,0.2c1.4,0,2.4-0.3,3.1-1c0.7-0.7,1-1.6,1-2.7
			c0-0.7-0.1-1.2-0.3-1.7C-113.2,398.4-113.5,398.1-113.8,397.7z M-108.8,390c0.6,0,1-0.1,1.4-0.4c0.3-0.3,0.5-0.7,0.5-1.2
			s-0.2-0.9-0.5-1.2c-0.3-0.3-0.8-0.5-1.4-0.5c-0.6,0-1,0.2-1.3,0.5c-0.3,0.3-0.5,0.7-0.5,1.2c0,0.5,0.2,0.9,0.5,1.2
			S-109.4,390-108.8,390z M-110.3,404h2.9v-12.1h-2.9V404z"/>
	</g>
</g>
</svg>
