<?xml version="1.0" encoding="utf-8"?>
<!-- Generator: Adobe Illustrator 18.1.1, SVG Export Plug-In . SVG Version: 6.00 Build 0)  -->
<svg version="1.1" id="Слой_1" xmlns="http://www.w3.org/2000/svg" xmlns:xlink="http://www.w3.org/1999/xlink" x="0px" y="0px"
	 width="48px" height="48px" viewBox="-281 373 48 48" enable-background="new -281 373 48 48" xml:space="preserve">
<g>
	<g>
		<path fill="#212332" d="M-256.93,388.924c-0.309,0-0.56-0.251-0.56-0.56v-1.701c0-0.186,0.092-0.359,0.246-0.464l6.113-4.136
			c0.257-0.174,0.605-0.106,0.778,0.15c0.173,0.256,0.106,0.605-0.15,0.778l-5.866,3.969v1.403
			C-256.37,388.674-256.621,388.924-256.93,388.924z"/>
	</g>
	<g>
		<path fill="#212332" d="M-252.262,412.033h-9.337c-0.268,0-0.498-0.189-0.549-0.452l-3.615-18.321
			c-0.032-0.165,0.011-0.335,0.117-0.464c0.106-0.129,0.265-0.205,0.432-0.205h16.567c0.168,0,0.326,0.075,0.432,0.205
			c0.107,0.129,0.149,0.299,0.117,0.464l-3.616,18.321C-251.765,411.844-251.995,412.033-252.262,412.033z M-261.139,410.913h8.416
			l3.394-17.201h-15.204L-261.139,410.913z"/>
	</g>
	<g>
		<path fill="#212332" d="M-247.559,392.179h-18.881c-0.309,0-0.56-0.251-0.56-0.56v-1.715c0-0.309,0.251-0.56,0.56-0.56h1.726
			l0.308-0.665c0.092-0.198,0.29-0.324,0.508-0.324h13.794c0.218,0,0.415,0.126,0.508,0.324l0.309,0.665h1.726
			c0.309,0,0.56,0.251,0.56,0.56v1.715C-246.999,391.928-247.25,392.179-247.559,392.179z M-265.88,391.059h17.761v-0.596h-1.524
			c-0.218,0-0.415-0.126-0.508-0.324l-0.309-0.665h-13.08l-0.308,0.665c-0.092,0.198-0.29,0.324-0.508,0.324h-1.524L-265.88,391.059
			L-265.88,391.059z"/>
	</g>
</g>
</svg>
