<?xml version="1.0" encoding="utf-8"?>
<!-- Generator: Adobe Illustrator 18.1.1, SVG Export Plug-In . SVG Version: 6.00 Build 0)  -->
<svg version="1.1" id="Слой_1" xmlns="http://www.w3.org/2000/svg" xmlns:xlink="http://www.w3.org/1999/xlink" x="0px" y="0px"
	 width="48px" height="48px" viewBox="0 0 48 48" enable-background="new 0 0 48 48" xml:space="preserve">
<g>
	<g>
		<g>
			
				<rect x="13" y="18.448" fill="none" stroke="#313842" stroke-linecap="round" stroke-linejoin="round" stroke-miterlimit="10" width="22" height="4.522"/>
			
				<rect x="15.255" y="22.97" fill="none" stroke="#313842" stroke-linecap="round" stroke-linejoin="round" stroke-miterlimit="10" width="17.491" height="13.739"/>
			<g>
				<path fill="none" stroke="#313842" stroke-linecap="round" stroke-linejoin="round" stroke-miterlimit="10" d="M17.111,11.385
					c-0.353,1.546,0.294,3.514,1.815,5.035c1.521,1.521,3.489,2.168,5.035,1.816c0.353-1.546-0.294-3.514-1.815-5.035
					S18.657,11.032,17.111,11.385z"/>
				<path fill="none" stroke="#313842" stroke-linecap="round" stroke-linejoin="round" stroke-miterlimit="10" d="M30.889,11.385
					c0.352,1.546-0.295,3.514-1.815,5.035c-1.522,1.521-3.489,2.168-5.035,1.816c-0.352-1.546,0.294-3.514,1.815-5.035
					S29.343,11.032,30.889,11.385z"/>
			</g>
		</g>
	</g>
	
		<line fill="none" stroke="#313842" stroke-linecap="round" stroke-linejoin="round" stroke-miterlimit="10" x1="23.945" y1="17.491" x2="23.945" y2="36.709"/>
</g>
</svg>
