<?xml version="1.0" encoding="utf-8"?>
<!-- Generator: Adobe Illustrator 18.1.1, SVG Export Plug-In . SVG Version: 6.00 Build 0)  -->
<svg version="1.1" id="Слой_1" xmlns="http://www.w3.org/2000/svg" xmlns:xlink="http://www.w3.org/1999/xlink" x="0px" y="0px"
	 width="48px" height="48px" viewBox="-281 373 48 48" enable-background="new -281 373 48 48" xml:space="preserve">
<g>
	<g>
		<path fill="#212332" d="M-248.75,408.143h-16.518c-0.281,0-0.522-0.199-0.576-0.475l-3.146-16.338
			c-0.033-0.172,0.013-0.35,0.124-0.484c0.112-0.135,0.277-0.213,0.452-0.213h2.413c0.2,0,0.386,0.102,0.494,0.27l1.479,2.31
			l1.091-2.25c0.098-0.202,0.303-0.33,0.527-0.33h10.822c0.225,0,0.43,0.128,0.527,0.33l1.09,2.25l1.479-2.31
			c0.108-0.168,0.294-0.27,0.494-0.27h2.413c0.175,0,0.341,0.078,0.452,0.213s0.156,0.313,0.123,0.485l-3.166,16.338
			C-248.228,407.944-248.47,408.143-248.75,408.143z M-264.784,406.97h15.549l2.939-15.165h-1.383l-1.87,2.921
			c-0.114,0.178-0.315,0.279-0.528,0.269c-0.212-0.013-0.401-0.138-0.493-0.329l-1.387-2.861h-10.088l-1.387,2.861
			c-0.092,0.19-0.281,0.317-0.493,0.329c-0.214,0.011-0.414-0.09-0.528-0.269l-1.87-2.921h-1.383L-264.784,406.97z"/>
	</g>
	<g>
		<g>
			<g>
				<path fill="#212332" d="M-266.936,395.56h-0.293c-0.324,0-0.586-0.262-0.586-0.586s0.262-0.586,0.586-0.586h0.293
					c0.324,0,0.586,0.262,0.586,0.586S-266.612,395.56-266.936,395.56z"/>
			</g>
			<g>
				<path fill="#212332" d="M-249.692,395.56h-0.574c-0.324,0-0.586-0.262-0.586-0.586s0.262-0.586,0.586-0.586h0.574
					c0.324,0,0.586,0.262,0.586,0.586S-249.368,395.56-249.692,395.56z M-252.566,395.56h-0.574c-0.324,0-0.586-0.262-0.586-0.586
					s0.262-0.586,0.586-0.586h0.574c0.324,0,0.586,0.262,0.586,0.586S-252.242,395.56-252.566,395.56z M-255.439,395.56h-0.575
					c-0.324,0-0.586-0.262-0.586-0.586s0.262-0.586,0.586-0.586h0.575c0.324,0,0.586,0.262,0.586,0.586
					S-255.115,395.56-255.439,395.56z M-258.314,395.56h-0.574c-0.324,0-0.586-0.262-0.586-0.586s0.262-0.586,0.586-0.586h0.574
					c0.324,0,0.586,0.262,0.586,0.586S-257.99,395.56-258.314,395.56z M-261.188,395.56h-0.574c-0.324,0-0.586-0.262-0.586-0.586
					s0.262-0.586,0.586-0.586h0.574c0.324,0,0.586,0.262,0.586,0.586S-260.864,395.56-261.188,395.56z M-264.062,395.56h-0.575
					c-0.324,0-0.586-0.262-0.586-0.586s0.262-0.586,0.586-0.586h0.575c0.324,0,0.586,0.262,0.586,0.586
					S-263.738,395.56-264.062,395.56z"/>
			</g>
			<g>
				<path fill="#212332" d="M-247.099,395.56h-0.293c-0.324,0-0.586-0.262-0.586-0.586s0.262-0.586,0.586-0.586h0.293
					c0.324,0,0.586,0.262,0.586,0.586S-246.775,395.56-247.099,395.56z"/>
			</g>
		</g>
	</g>
	<g>
		<path fill="#212332" d="M-255.405,391.806c-0.182,0-0.362-0.084-0.476-0.242c-0.19-0.262-0.13-0.629,0.132-0.818l9.772-7.064
			c0.262-0.19,0.629-0.131,0.818,0.132c0.19,0.262,0.13,0.629-0.132,0.818l-9.772,7.064
			C-255.166,391.77-255.286,391.806-255.405,391.806z"/>
	</g>
	<g>
		<path fill="#212332" d="M-252.542,391.83c-0.104,0-0.21-0.027-0.305-0.086c-0.277-0.168-0.364-0.53-0.195-0.806l5.37-8.801
			c0.169-0.276,0.53-0.363,0.806-0.195c0.277,0.169,0.364,0.53,0.195,0.806l-5.37,8.801
			C-252.152,391.73-252.345,391.83-252.542,391.83z"/>
	</g>
</g>
</svg>
