<?xml version="1.0" encoding="utf-8"?>
<!-- Generator: Adobe Illustrator 18.1.1, SVG Export Plug-In . SVG Version: 6.00 Build 0)  -->
<svg version="1.1" id="Слой_1" xmlns="http://www.w3.org/2000/svg" xmlns:xlink="http://www.w3.org/1999/xlink" x="0px" y="0px"
	 width="48px" height="48px" viewBox="-281 373 48 48" enable-background="new -281 373 48 48" xml:space="preserve">
<g>
	<g>
		<path fill="#212332" d="M-247.047,403.939h-19.741c-0.067,0-0.133-0.014-0.195-0.039c-3.45-1.434-6.683-3.904-6.818-4.01
			c-0.173-0.133-0.241-0.362-0.171-0.568s0.264-0.345,0.482-0.345h32.982c0.215,0,0.407,0.136,0.479,0.339s0.008,0.43-0.159,0.566
			c-0.129,0.104-3.205,2.582-6.662,4.018C-246.913,403.925-246.98,403.939-247.047,403.939z M-266.686,402.921h19.537
			c2.014-0.85,3.924-2.089,5.106-2.925h-29.86C-270.67,400.835-268.7,402.072-266.686,402.921z"/>
	</g>
	<g>
		<path fill="#212332" d="M-258.113,398.464c-0.233,0-0.443-0.161-0.495-0.398c-0.559-2.489-2.817-4.295-5.373-4.295
			c-2.555,0-4.813,1.805-5.372,4.293c-0.061,0.274-0.334,0.448-0.607,0.385c-0.274-0.061-0.447-0.334-0.385-0.607
			c0.673-2.995,3.29-5.089,6.365-5.089c3.027,0,5.705,2.141,6.366,5.09c0.061,0.274-0.111,0.546-0.385,0.607
			C-258.039,398.459-258.077,398.464-258.113,398.464z"/>
	</g>
	<g>
		<path fill="#212332" d="M-267.365,398.464c-0.061,0-0.122-0.011-0.184-0.034c-0.262-0.101-0.392-0.396-0.291-0.657
			c0.611-1.582,2.16-2.645,3.858-2.645c1.695,0,3.245,1.062,3.856,2.642c0.101,0.262-0.028,0.556-0.29,0.658
			c-0.263,0.101-0.556-0.028-0.658-0.29c-0.461-1.192-1.63-1.992-2.907-1.992c-1.28,0-2.448,0.801-2.909,1.995
			C-266.969,398.339-267.161,398.464-267.365,398.464z"/>
	</g>
	<g>
		<path fill="#212332" d="M-264.71,398.621c-0.061,0-0.124-0.011-0.184-0.034c-0.262-0.101-0.392-0.396-0.291-0.657
			c0.194-0.5,0.665-0.824,1.201-0.824c0.527,0,1.01,0.331,1.2,0.823c0.101,0.262-0.028,0.556-0.29,0.658
			c-0.263,0.101-0.556-0.028-0.658-0.29c-0.08-0.209-0.424-0.207-0.504,0C-264.313,398.497-264.506,398.621-264.71,398.621z"/>
	</g>
	<g>
		<path fill="#212332" d="M-244.151,398.464c-0.233,0-0.443-0.161-0.495-0.398c-0.558-2.489-2.817-4.295-5.373-4.295
			c-1.102,0-2.11,0.298-2.995,0.885c-0.235,0.156-0.55,0.091-0.705-0.143c-0.155-0.233-0.092-0.55,0.143-0.705
			c1.055-0.7,2.252-1.055,3.558-1.055c3.028,0,5.705,2.141,6.366,5.09c0.061,0.274-0.111,0.546-0.385,0.607
			C-244.078,398.46-244.115,398.464-244.151,398.464z"/>
	</g>
	<g>
		<path fill="#212332" d="M-255.889,398.461c-0.037,0-0.075-0.005-0.112-0.012c-0.274-0.061-0.447-0.334-0.384-0.609
			c0.18-0.801,0.507-1.553,0.97-2.233c0.158-0.231,0.474-0.294,0.707-0.134c0.232,0.158,0.292,0.475,0.134,0.707
			c-0.391,0.572-0.665,1.207-0.818,1.882C-255.446,398.301-255.656,398.461-255.889,398.461z"/>
	</g>
	<g>
		<path fill="#212332" d="M-246.638,398.46c-0.204,0-0.397-0.124-0.475-0.325c-0.461-1.192-1.63-1.992-2.908-1.992
			c-0.562,0-1.01,0.11-1.452,0.358c-0.246,0.138-0.555,0.05-0.692-0.195c-0.137-0.245-0.05-0.555,0.195-0.692
			c0.594-0.333,1.213-0.487,1.949-0.487c1.694,0,3.245,1.062,3.857,2.642c0.101,0.262-0.028,0.556-0.29,0.658
			C-246.515,398.449-246.577,398.46-246.638,398.46z"/>
	</g>
	<g>
		<path fill="#212332" d="M-248.646,398.464c-0.241,0-0.456-0.172-0.5-0.418c-0.141-0.78-0.358-1.457-0.683-2.133
			c-0.121-0.254-0.016-0.558,0.238-0.679c0.253-0.121,0.556-0.015,0.679,0.238c0.366,0.76,0.61,1.521,0.768,2.392
			c0.05,0.277-0.134,0.542-0.41,0.592C-248.585,398.46-248.616,398.464-248.646,398.464z"/>
	</g>
	<g>
		<path fill="#212332" d="M-251.019,393.809c-0.137,0-0.275-0.056-0.375-0.165c-1.535-1.678-3.607-2.566-5.996-2.566
			c-2.264,0-4.388,0.903-5.976,2.543c-0.196,0.203-0.519,0.207-0.72,0.011c-0.202-0.195-0.207-0.517-0.011-0.719
			c1.783-1.841,4.164-2.853,6.707-2.853c2.681,0,5.015,1.002,6.748,2.897c0.189,0.207,0.175,0.529-0.033,0.719
			C-250.775,393.765-250.897,393.809-251.019,393.809z"/>
	</g>
	<g>
		<path fill="#212332" d="M-251.02,398.463c-0.231,0-0.44-0.158-0.495-0.393c-0.654-2.795-2.984-4.746-5.666-4.746
			c-1.179,0-2.314,0.375-3.284,1.087c-0.228,0.165-0.545,0.117-0.712-0.109c-0.165-0.227-0.117-0.545,0.109-0.712
			c1.145-0.84,2.489-1.284,3.886-1.284c3.156,0,5.894,2.275,6.656,5.533c0.065,0.273-0.105,0.547-0.38,0.611
			C-250.942,398.458-250.982,398.463-251.02,398.463z"/>
	</g>
	<g>
		<path fill="#212332" d="M-253.548,398.464c-0.229,0-0.437-0.156-0.494-0.389c-0.338-1.386-1.54-2.354-2.925-2.354
			c-0.609,0-1.196,0.187-1.697,0.539c-0.229,0.161-0.546,0.107-0.709-0.122c-0.162-0.23-0.107-0.547,0.122-0.709
			c0.673-0.475,1.462-0.725,2.283-0.725c1.855,0,3.465,1.287,3.913,3.131c0.067,0.273-0.101,0.547-0.374,0.614
			C-253.467,398.459-253.508,398.464-253.548,398.464z"/>
	</g>
</g>
</svg>
