<?xml version="1.0" encoding="utf-8"?>
<!-- Generator: Adobe Illustrator 18.1.1, SVG Export Plug-In . SVG Version: 6.00 Build 0)  -->
<svg version="1.1" id="Слой_1" xmlns="http://www.w3.org/2000/svg" xmlns:xlink="http://www.w3.org/1999/xlink" x="0px" y="0px"
	 width="48px" height="48px" viewBox="266.64 372.055 48 48" enable-background="new 266.64 372.055 48 48" xml:space="preserve">
<g>
	<g>
		<g>
			<path fill="#212332" d="M284.222,404.633h-0.549c-2.885,0-5.231-2.347-5.231-5.231v-5.703c0-0.057-0.002-0.113-0.004-0.169
				c-0.006-0.153-0.009-0.304,0.008-0.454c0.031-0.278,0.267-0.488,0.546-0.489c0.001,0,0.001,0,0.002,0
				c0.279,0,0.514,0.208,0.548,0.486c0.248,2.071,2.025,3.634,4.132,3.634h0.549c2.119,0,3.904-1.562,4.152-3.634
				c0.033-0.277,0.269-0.486,0.548-0.486h0.001c0.279,0.001,0.515,0.21,0.547,0.487c0.019,0.167,0.006,0.316-0.005,0.447
				c-0.005,0.059-0.011,0.118-0.011,0.178v5.703C289.453,402.286,287.106,404.633,284.222,404.633z M279.545,395.826v3.575
				c0,2.277,1.852,4.128,4.128,4.128h0.549c2.276,0,4.128-1.852,4.128-4.128v-3.554c-0.974,1.202-2.47,1.961-4.128,1.961h-0.549
				C282.012,397.808,280.514,397.04,279.545,395.826z"/>
		</g>
		<g>
			<path fill="#212332" d="M283.956,395.471c-1.856,0-3.309-1.114-3.309-2.537c0-1.423,1.454-2.537,3.309-2.537
				s3.309,1.114,3.309,2.537C287.265,394.357,285.811,395.471,283.956,395.471z M283.956,391.501c-1.196,0-2.207,0.656-2.207,1.434
				c0,0.778,1.011,1.434,2.207,1.434s2.207-0.656,2.207-1.434C286.162,392.157,285.152,391.501,283.956,391.501z"/>
		</g>
		<g>
			<path fill="#212332" d="M283.972,397.808c-3.034,0-5.501-2.075-5.501-4.626c0-2.551,2.468-4.627,5.501-4.627
				c3.033,0,5.501,2.076,5.501,4.627C289.473,395.733,287.006,397.808,283.972,397.808z M283.972,389.657
				c-2.425,0-4.399,1.581-4.399,3.524c0,1.943,1.973,3.524,4.399,3.524c2.425,0,4.398-1.581,4.398-3.524
				C288.371,391.238,286.398,389.657,283.972,389.657z"/>
		</g>
	</g>
	<g>
		<path fill="#212332" d="M276.191,402.003c-0.244,0-0.467-0.163-0.533-0.41c-0.078-0.294,0.097-0.596,0.392-0.674l28.897-7.663
			c0.291-0.076,0.596,0.097,0.674,0.392c0.078,0.294-0.097,0.596-0.392,0.674l-28.897,7.663
			C276.286,401.997,276.238,402.003,276.191,402.003z"/>
	</g>
	<g>
		<path fill="#212332" d="M289.124,394.258c-0.222,0-0.432-0.136-0.515-0.356c-0.108-0.285,0.035-0.603,0.32-0.711l14.97-5.678
			c0.283-0.109,0.603,0.035,0.711,0.32c0.108,0.285-0.035,0.603-0.32,0.711l-14.97,5.678
			C289.255,394.247,289.189,394.258,289.124,394.258z"/>
	</g>
	<g>
		<path fill="#212332" d="M276.192,399.161c-0.222,0-0.432-0.136-0.515-0.356c-0.108-0.284,0.035-0.603,0.32-0.711l2.609-0.99
			c0.283-0.109,0.603,0.035,0.711,0.32c0.108,0.284-0.035,0.603-0.32,0.711l-2.609,0.99
			C276.323,399.15,276.257,399.161,276.192,399.161z"/>
	</g>
</g>
</svg>
