<?xml version="1.0" encoding="utf-8"?>
<!-- Generator: Adobe Illustrator 18.1.1, SVG Export Plug-In . SVG Version: 6.00 Build 0)  -->
<svg version="1.1" id="Слой_1" xmlns="http://www.w3.org/2000/svg" xmlns:xlink="http://www.w3.org/1999/xlink" x="0px" y="0px"
	 width="48px" height="48px" viewBox="0 0 48 48" enable-background="new 0 0 48 48" xml:space="preserve">
<g>
	<circle fill="#698BC2" cx="24" cy="24" r="14"/>
	<g>
		<path fill="#FFFFFF" d="M20.644,11.912c-0.14,0.036-3.658,0.868-3.75,2.469c-0.091,1.6,0.549,2.195-0.228,2.469
			c-0.778,0.274-0.32,0.412-1.372,0.823c-1.053,0.412-4.162,1.6-4.116,4.253c0.045,2.652,1.189,4.756,2.423,5.076
			c1.235,0.319,2.378,1.875,2.104,2.423c-0.274,0.549-0.869,1.555-0.458,2.195c0.412,0.64,0.137,2.562,0.96,3.018
			c0.823,0.458,6.22,3.247,11.25,0.914s5.853-3.612,6.539-5.533c0.686-1.921,0.367-2.744,1.83-3.75c1.463-1.006,1.19-0.64,0-1.372
			c-1.189-0.732-1.417-0.686-1.372-1.783c0.046-1.098-0.365-1.83-0.823-1.83s-0.777,1.372-1.326,1.876
			c-0.549,0.503-0.595,1.326-1.509,0.503c-0.915-0.823-1.006-2.013-1.144-2.104s-1.692,0.869-1.189,1.372
			c0.503,0.504,0.777,1.783,2.561,1.783c1.783,0,1.737,0.458,0.914,1.006c-0.823,0.549-3.109,1.737-2.561,2.561
			c0.549,0.823-1.006,1.555,0.458,1.464c1.463-0.092,2.468,0.595,1.28,1.051c-1.189,0.458-2.286,0.458-2.286,0
			c0-0.458-0.092,1.144-1.418,1.692c-1.326,0.549-0.823,1.6-1.828,0.64c-1.006-0.96-1.792-3.063-1.582-4.665
			c0.21-1.6-0.659-2.562-2.991-2.378s-4.802,0-3.932-2.469c0.868-2.469,3.612-2.332,3.43-3.841
			c-0.183-1.509-0.732-1.508,0.594-2.286c1.327-0.777-3.109-0.96-1.189-1.83c1.921-0.868,2.195,1.418,2.972,0.641
			c0.778-0.778,0.413-2.058,1.418-2.516c1.006-0.458,1.646-0.045,3.384,0.137c1.738,0.183,3.109,0.64,2.332-0.365
			c-0.777-1.006-2.744-1.65-5.258-1.648C22.244,11.912,23.937,11.043,20.644,11.912z"/>
		<path fill="#FFFFFF" d="M23.068,19.32c0,0-0.118-0.16-0.08-0.197c0.042-0.04,0.265,0.061,1.014,0.654
			c1.445,1.144,0.667,1.372,1.719,1.235c1.051-0.137,2.607,0.96,2.058-0.594c-0.549-1.555-0.183-0.55-1.876-0.915
			c-1.691-0.365-1.288-0.182-1.901-0.731C23.388,18.223,22.244,18.314,23.068,19.32z"/>
	</g>
</g>
</svg>
