<?xml version="1.0" encoding="utf-8"?>
<!-- Generator: Adobe Illustrator 18.1.1, SVG Export Plug-In . SVG Version: 6.00 Build 0)  -->
<svg version="1.1" id="Слой_1" xmlns="http://www.w3.org/2000/svg" xmlns:xlink="http://www.w3.org/1999/xlink" x="0px" y="0px"
	 width="48px" height="48px" viewBox="266.64 372.055 48 48" enable-background="new 266.64 372.055 48 48" xml:space="preserve">
<circle fill="#FFFFFF" cx="290.64" cy="396.055" r="12"/>
<path fill="#37BD64" d="M301.955,400.055h-22.629c1.648,4.66,6.09,8,11.315,8S300.307,404.715,301.955,400.055z"/>
<path fill="#7BBEE9" d="M301.955,392.055h-22.629c1.648-4.66,6.09-8,11.315-8S300.307,387.395,301.955,392.055z"/>
<path fill="#E13350" d="M279.325,400.043h22.629c0.03-0.086,0.059-0.171,0.087-0.258h-22.803
	C279.267,399.872,279.296,399.958,279.325,400.043z"/>
<path fill="#E13350" d="M301.952,392.055h-22.629c-0.03,0.086-0.059,0.171-0.087,0.258h22.803
	C302.011,392.226,301.981,392.141,301.952,392.055z"/>
<path fill="#FFFFFF" d="M281.302,388.58c0.688,1.119,1.92,1.868,3.33,1.868c0.901,0,1.728-0.308,2.389-0.819
	c-0.236,0.054-0.48,0.085-0.731,0.085c-1.676,0-3.057-1.254-3.263-2.874C282.393,387.359,281.816,387.944,281.302,388.58z"/>
<g>
	<polygon fill="#FFFFFF" points="288.473,389.77 288.629,390.084 288.976,390.134 288.725,390.379 288.784,390.724 288.473,390.561 
		288.164,390.724 288.223,390.379 287.972,390.134 288.319,390.084 	"/>
	<polygon fill="#FFFFFF" points="290.637,389.77 290.792,390.084 291.139,390.134 290.888,390.379 290.947,390.724 290.637,390.561 
		290.328,390.724 290.386,390.379 290.136,390.134 290.482,390.084 	"/>
	<polygon fill="#FFFFFF" points="292.8,389.77 292.956,390.084 293.302,390.134 293.052,390.379 293.11,390.724 292.8,390.561 
		292.491,390.724 292.55,390.379 292.299,390.134 292.645,390.084 	"/>
	<polygon fill="#FFFFFF" points="294.964,389.77 295.119,390.084 295.465,390.134 295.215,390.379 295.274,390.724 294.964,390.561 
		294.654,390.724 294.713,390.379 294.462,390.134 294.808,390.084 	"/>
	<polygon fill="#FFFFFF" points="297.127,389.77 297.282,390.084 297.629,390.134 297.378,390.379 297.437,390.724 297.127,390.561 
		296.817,390.724 296.876,390.379 296.625,390.134 296.972,390.084 	"/>
	<polygon fill="#FFFFFF" points="290.586,387.857 290.741,388.17 291.087,388.221 290.837,388.465 290.895,388.811 290.586,388.648 
		290.276,388.811 290.335,388.465 290.084,388.221 290.431,388.17 	"/>
	<polygon fill="#FFFFFF" points="292.748,387.857 292.903,388.17 293.251,388.221 293,388.465 293.059,388.811 292.748,388.648 
		292.439,388.811 292.498,388.465 292.247,388.221 292.593,388.17 	"/>
	<polygon fill="#FFFFFF" points="294.912,387.857 295.067,388.17 295.414,388.221 295.163,388.465 295.222,388.811 294.912,388.648 
		294.602,388.811 294.661,388.465 294.41,388.221 294.757,388.17 	"/>
	<polygon fill="#FFFFFF" points="297.076,387.857 297.231,388.17 297.577,388.221 297.326,388.465 297.385,388.811 297.076,388.648 
		296.766,388.811 296.824,388.465 296.574,388.221 296.92,388.17 	"/>
	<polygon fill="#FFFFFF" points="292.765,386.029 292.921,386.343 293.267,386.394 293.017,386.638 293.076,386.983 292.765,386.82 
		292.456,386.983 292.515,386.638 292.264,386.394 292.61,386.343 	"/>
	<polygon fill="#FFFFFF" points="294.929,386.029 295.084,386.343 295.431,386.394 295.18,386.638 295.239,386.983 294.929,386.82 
		294.619,386.983 294.678,386.638 294.427,386.394 294.774,386.343 	"/>
	<polygon fill="#FFFFFF" points="297.092,386.029 297.248,386.343 297.594,386.394 297.343,386.638 297.402,386.983 297.092,386.82 
		296.783,386.983 296.842,386.638 296.591,386.394 296.937,386.343 	"/>
</g>
</svg>
