<?xml version="1.0" encoding="utf-8"?>
<!-- Generator: Adobe Illustrator 18.1.1, SVG Export Plug-In . SVG Version: 6.00 Build 0)  -->
<svg version="1.1" id="Слой_1" xmlns="http://www.w3.org/2000/svg" xmlns:xlink="http://www.w3.org/1999/xlink" x="0px" y="0px"
	 width="48px" height="48px" viewBox="266.64 372.055 48 48" enable-background="new 266.64 372.055 48 48" xml:space="preserve">
<g>
	<circle fill="#FFFFFF" cx="290.64" cy="396.055" r="13"/>
	<path fill="#E74C62" d="M278.119,399.556h25.042c0.202-0.727,0.345-1.478,0.418-2.25h-25.878
		C277.775,398.078,277.917,398.829,278.119,399.556z"/>
	<path fill="#E74C62" d="M280.587,404.303h20.105c0.568-0.693,1.065-1.447,1.482-2.249h-23.07
		C279.523,402.856,280.019,403.61,280.587,404.303z"/>
	<path fill="#E74C62" d="M297.961,406.803h-14.642c1.979,1.351,4.35,2.167,6.908,2.247h0.826
		C293.611,408.97,295.982,408.154,297.961,406.803z"/>
	<path fill="#E74C62" d="M290.64,390.063h11.532c-0.418-0.804-0.917-1.56-1.487-2.254H290.64V390.063z"/>
	<path fill="#E74C62" d="M290.64,383.061v2.255h7.317C295.873,383.894,293.354,383.061,290.64,383.061z"/>
	<path fill="#E74C62" d="M303.158,392.557H290.64v2.252h12.939C303.505,394.037,303.362,393.284,303.158,392.557z"/>
	<path fill="#698FC1" d="M277.701,394.813h12.939v-11.754C283.881,383.059,278.328,388.218,277.701,394.813z"/>
	<polygon fill="#FFFFFF" points="280.987,391.578 281.277,392.166 281.925,392.26 281.456,392.717 281.567,393.364 280.987,393.059 
		280.406,393.364 280.517,392.717 280.048,392.26 280.696,392.166 	"/>
	<polygon fill="#FFFFFF" points="284.608,391.578 284.899,392.166 285.548,392.26 285.078,392.717 285.189,393.364 284.608,393.059 
		284.028,393.364 284.139,392.717 283.67,392.26 284.319,392.166 	"/>
	<polygon fill="#FFFFFF" points="288.23,391.578 288.521,392.166 289.169,392.26 288.7,392.717 288.811,393.364 288.23,393.059 
		287.65,393.364 287.761,392.717 287.292,392.26 287.94,392.166 	"/>
	<polygon fill="#FFFFFF" points="284.744,388.193 285.035,388.781 285.683,388.875 285.214,389.333 285.325,389.979 
		284.744,389.674 284.165,389.979 284.275,389.333 283.806,388.875 284.454,388.781 	"/>
	<polygon fill="#FFFFFF" points="288.367,388.193 288.657,388.781 289.305,388.875 288.836,389.333 288.947,389.979 
		288.367,389.674 287.786,389.979 287.897,389.333 287.428,388.875 288.076,388.781 	"/>
	<polygon fill="#FFFFFF" points="288.526,384.741 288.816,385.329 289.464,385.423 288.995,385.88 289.106,386.527 288.526,386.221 
		287.946,386.527 288.056,385.88 287.587,385.423 288.235,385.329 	"/>
</g>
</svg>
