<?xml version="1.0" encoding="utf-8"?>
<!-- Generator: Adobe Illustrator 18.1.1, SVG Export Plug-In . SVG Version: 6.00 Build 0)  -->
<svg version="1.1" baseProfile="tiny" id="Layer_2" xmlns="http://www.w3.org/2000/svg" xmlns:xlink="http://www.w3.org/1999/xlink"
	 x="0px" y="0px" width="206px" height="104.483px" viewBox="0 0 206 104.483" xml:space="preserve">
<g>
	<g>
		<path fill-rule="evenodd" d="M150.551,62.444c-0.075,0.397-0.223,0.808-0.459,1.238c-12.337,22.453-37.01,37.821-65.15,40.415
			C45.64,107.719,9.817,85.558,0.918,52.074c-0.322-1.212-0.757-2.821-0.871-4.046c-0.458-4.927,2.487-9.669,7.456-12.086
			c0.453-0.22,0.757-0.654,0.934-1.067c1.542-3.597,0.016-11.466-1.962-14.727c-0.797-1.313-0.358-2.939,1.035-3.841
			c0.088-0.057,0.178-0.11,0.269-0.158c1.292-0.725,2.8-1.125,4.318-1.144c1.006-0.012,1.99,0.138,2.909,0.44
			c0.926-0.324,1.915-0.5,2.916-0.512c0.889-0.011,1.771,0.106,2.609,0.347c1.632,0.461,2.582,1.919,2.211,3.413l-0.059,0.24
			l-0.053,0.224c-0.023,0.102-0.047,0.204-0.069,0.306c-0.001,0.003-0.001,0.006-0.002,0.009c-0.47,2.139-0.68,4.312-0.634,6.479
			c0.001,0.04,0.001,0.08,0,0.12c0.016,0.618,0.052,1.236,0.11,1.852c0.394,4.234,1.76,8.314,4.048,12.021
			c0.056,0.09,0.105,0.179,0.148,0.269c0.12,0.176,0.234,0.354,0.344,0.535c2.384,3.548,5.469,6.575,9.19,9.077
			c21.717,14.602,61.642,9.604,87.236,5.41c2.832-0.464,5.806-0.34,8.656-0.227c2.5,0.099,7.588,0.475,9.762-1.046
			c0.314-0.299,0.684-0.551,1.097-0.742c3.266-1.51,6.126,1.246,7.44,3.51c0.716,1.233,1.284,2.763,1.187,4.175
			C151.106,61.473,150.894,62,150.551,62.444z"/>
	</g>
	<path fill-rule="evenodd" fill="#F2C544" d="M9.488,18.697l0.001,0.001l0.001,0c0.742-0.435,1.628-0.694,2.576-0.706
		c1.101-0.014,2.11,0.307,2.903,0.856c0.805-0.568,1.821-0.915,2.922-0.929c0.535-0.007,1.048,0.066,1.526,0.205l0,0v0l0.001,0
		l-0.004,0.017l-0.031,0.126L19.38,18.28l-0.021,0.086l-0.006,0.023l-0.022,0.092l-0.002,0.007l-0.023,0.098l-0.005,0.022
		l-0.007,0.029c-0.026,0.111-0.051,0.222-0.075,0.332l-0.001,0.004c-0.506,2.307-0.746,4.684-0.695,7.103l-0.003,0
		c0.015,0.716,0.056,1.436,0.123,2.159c0.445,4.788,2.007,9.238,4.439,13.178l0.014,0.088l0.009,0.013
		c0.175,0.236,0.337,0.481,0.487,0.733c18.571,27.767,72.029,20.498,99.958,15.922c6.525-1.069,15.642,1.557,20.277-2.132
		c0.059-0.08,0.132-0.143,0.221-0.183c0.672-0.311,1.957,0.71,2.87,2.281c0.586,1.008,0.876,1.998,0.83,2.66
		c-0.177-0.328-0.4-0.698-0.656-1.083c-0.267-0.402-0.523-0.808-0.79-1.209c-0.781-1.175-1.576-2.042-1.775-1.937
		c-0.2,0.105,0.272,1.142,1.053,2.317c0.267,0.403,0.523,0.808,0.79,1.209c0.469,0.706,1.123,1.509,0.663,2.345
		c-11.413,20.77-34.531,36.123-62.367,38.69c-38.158,3.517-72.035-18.201-80.432-49.795c-0.207-0.778-0.742-3.041-0.795-3.615
		c-0.358-3.847,1.995-7.394,5.66-9.169v-0.001c1.095-0.54,1.997-1.456,2.52-2.677C13.658,31.113,11.685,22.32,9.488,18.697z"/>
	<path fill-rule="evenodd" fill="#FFF243" d="M147.166,62.077c-12.551,10.934-29.238,18.343-48.02,20.074
		c-43.021,3.966-80.736-23.355-84.24-61.023c-0.076-0.813-0.129-1.623-0.172-2.432c0.08,0.048,0.159,0.099,0.235,0.152
		c0.805-0.568,1.821-0.915,2.922-0.928c0.535-0.006,1.048,0.066,1.525,0.205l0,0v0l0.001,0l-0.004,0.017l-0.031,0.126L19.38,18.28
		l-0.021,0.086l-0.006,0.022l-0.022,0.092l-0.002,0.007l-0.023,0.098l-0.005,0.022l-0.007,0.029
		c-0.026,0.111-0.051,0.222-0.075,0.333l-0.001,0.004c-0.507,2.307-0.746,4.684-0.695,7.103l-0.003,0.001
		c0.015,0.716,0.056,1.436,0.123,2.159c0.445,4.788,2.007,9.238,4.439,13.178l0.014,0.088l0.008,0.013
		c0.175,0.237,0.338,0.481,0.488,0.733c18.571,27.767,72.029,20.498,99.958,15.922c6.525-1.069,15.641,1.557,20.277-2.132
		c0.059-0.081,0.132-0.143,0.221-0.184c0.672-0.311,1.957,0.71,2.87,2.281c0.586,1.008,0.875,1.998,0.83,2.66
		c-0.177-0.328-0.4-0.698-0.656-1.083c-0.267-0.403-0.524-0.808-0.791-1.209c-0.781-1.175-1.576-2.041-1.775-1.937
		c-0.2,0.105,0.271,1.142,1.052,2.317c0.268,0.403,0.524,0.808,0.791,1.209C146.771,60.695,147.307,61.37,147.166,62.077z"/>
</g>
<g>
	<path fill="#212121" d="M75.164,20.452c-0.557-0.71-1.208-1.273-1.956-1.689c-0.748-0.416-1.538-0.728-2.373-0.936v-0.312
		c0.939-0.312,1.747-0.762,2.425-1.351c0.678-0.589,1.226-1.273,1.643-2.053c0.417-0.78,0.721-1.611,0.913-2.495
		c0.191-0.884,0.287-1.775,0.287-2.677c0-1.836-0.313-3.335-0.939-4.496c-0.626-1.161-1.469-2.07-2.529-2.729
		c-1.061-0.658-2.295-1.109-3.703-1.351C67.524,0.122,66.055,0,64.525,0c-1.669,0-3.347,0.078-5.032,0.234
		c-1.687,0.156-3.103,0.338-4.25,0.546v35.863c0.799,0.208,1.669,0.364,2.607,0.468c0.939,0.104,1.851,0.182,2.738,0.234
		c0.887,0.052,1.712,0.078,2.477,0.078c0.764,0,1.39,0,1.877,0c1.634,0,3.181-0.208,4.641-0.624s2.738-1.057,3.833-1.923
		c1.095-0.866,1.964-1.983,2.607-3.352c0.643-1.368,0.965-2.989,0.965-4.86c0-1.385-0.165-2.59-0.495-3.612
		C76.163,22.029,75.719,21.163,75.164,20.452z M61.814,5.873c0.591-0.138,1.599-0.208,3.025-0.208c0.66,0,1.278,0.078,1.851,0.234
		c0.574,0.156,1.069,0.416,1.486,0.78c0.417,0.364,0.747,0.858,0.991,1.481c0.243,0.624,0.365,1.386,0.365,2.287
		c0,1.386-0.357,2.513-1.069,3.378c-0.713,0.867-1.573,1.49-2.581,1.871c-0.313,0.07-0.722,0.13-1.225,0.182
		c-0.504,0.052-0.948,0.078-1.33,0.078h-1.512V5.873z M68.697,30.354c-0.939,0.936-2.138,1.403-3.598,1.403
		c-0.557,0-1.173-0.026-1.851-0.078c-0.678-0.052-1.156-0.13-1.434-0.234V21.102h2.66c0.73,0,1.434,0.052,2.112,0.156
		c0.678,0.104,1.278,0.338,1.799,0.702c0.521,0.364,0.939,0.884,1.252,1.559c0.313,0.676,0.469,1.585,0.469,2.729
		C70.105,28.05,69.636,29.418,68.697,30.354z M98.891,28.612c0.034-1.507,0.095-3.049,0.183-4.626
		c0.086-1.576,0.13-3.179,0.13-4.808c0-2.807-0.583-4.972-1.747-6.497c-1.165-1.524-3.225-2.287-6.18-2.287
		c-1.982,0-3.755,0.191-5.319,0.572c-1.564,0.382-2.868,0.884-3.911,1.507l1.565,4.626c0.869-0.45,1.859-0.797,2.972-1.04
		c1.112-0.242,2.19-0.364,3.233-0.364c1.425,0,2.355,0.451,2.79,1.351c0.434,0.901,0.565,2.357,0.391,4.366
		c-3.79-0.208-6.797,0.347-9.022,1.663c-2.225,1.317-3.338,3.534-3.338,6.653c0,2.287,0.591,4.115,1.773,5.483
		c1.182,1.369,2.798,2.053,4.85,2.053c1.529,0,2.798-0.33,3.807-0.988c1.008-0.658,1.79-1.489,2.347-2.495h0.209l0.991,3.17h5.058
		c-0.383-1.247-0.618-2.573-0.704-3.976C98.882,31.575,98.856,30.12,98.891,28.612z M93.102,29.73
		c-0.279,0.555-0.713,1.065-1.304,1.533c-0.592,0.468-1.356,0.702-2.295,0.702c-0.765,0-1.365-0.277-1.799-0.832
		c-0.435-0.554-0.652-1.368-0.652-2.443c0-0.728,0.165-1.325,0.495-1.793c0.33-0.468,0.773-0.823,1.33-1.065
		c0.556-0.242,1.199-0.398,1.93-0.468c0.73-0.069,1.494-0.052,2.295,0.052V29.73z M122.306,12.292
		c-0.557-0.71-1.243-1.221-2.06-1.533c-0.817-0.312-1.747-0.468-2.79-0.468c-1.739,0-3.147,0.356-4.224,1.065
		c-1.078,0.711-1.93,1.568-2.555,2.573h-0.156l-0.73-3.015h-4.954v25.988h6.206V18.867c0.278-0.832,0.747-1.524,1.408-2.079
		c0.66-0.554,1.442-0.832,2.347-0.832c1.077,0,1.842,0.382,2.295,1.143c0.451,0.763,0.678,2.097,0.678,4.002v15.801h6.206V19.595
		c0-1.767-0.139-3.248-0.417-4.444C123.278,13.955,122.861,13.003,122.306,12.292z M146.45,28.612
		c0.034-1.507,0.095-3.049,0.182-4.626c0.086-1.576,0.13-3.179,0.13-4.808c0-2.807-0.583-4.972-1.747-6.497
		c-1.165-1.524-3.225-2.287-6.18-2.287c-1.982,0-3.755,0.191-5.319,0.572c-1.564,0.382-2.868,0.884-3.911,1.507l1.564,4.626
		c0.869-0.45,1.859-0.797,2.973-1.04c1.112-0.242,2.19-0.364,3.233-0.364c1.425,0,2.355,0.451,2.79,1.351
		c0.434,0.901,0.565,2.357,0.391,4.366c-3.79-0.208-6.797,0.347-9.022,1.663c-2.225,1.317-3.338,3.534-3.338,6.653
		c0,2.287,0.591,4.115,1.773,5.483c1.182,1.369,2.798,2.053,4.85,2.053c1.529,0,2.798-0.33,3.807-0.988
		c1.008-0.658,1.79-1.489,2.347-2.495h0.209l0.991,3.17h5.058c-0.383-1.247-0.618-2.573-0.704-3.976
		C146.441,31.575,146.415,30.12,146.45,28.612z M140.661,29.73c-0.279,0.555-0.713,1.065-1.304,1.533
		c-0.592,0.468-1.356,0.702-2.295,0.702c-0.765,0-1.365-0.277-1.799-0.832c-0.435-0.554-0.652-1.368-0.652-2.443
		c0-0.728,0.165-1.325,0.495-1.793c0.33-0.468,0.773-0.823,1.33-1.065c0.556-0.242,1.199-0.398,1.93-0.468
		c0.73-0.069,1.494-0.052,2.295,0.052V29.73z M169.864,12.292c-0.557-0.71-1.243-1.221-2.06-1.533
		c-0.817-0.312-1.747-0.468-2.79-0.468c-1.739,0-3.147,0.356-4.224,1.065c-1.078,0.711-1.93,1.568-2.555,2.573h-0.156l-0.73-3.015
		h-4.954v25.988h6.206V18.867c0.278-0.832,0.747-1.524,1.408-2.079c0.66-0.554,1.442-0.832,2.347-0.832
		c1.077,0,1.842,0.382,2.295,1.143c0.451,0.763,0.678,2.097,0.678,4.002v15.801h6.206V19.595c0-1.767-0.139-3.248-0.417-4.444
		C170.837,13.955,170.42,13.003,169.864,12.292z M189.576,23.571c-0.73-0.676-1.504-1.239-2.321-1.689
		c-0.817-0.45-1.591-0.884-2.321-1.299c-0.73-0.416-1.33-0.84-1.799-1.273c-0.469-0.433-0.704-0.979-0.704-1.637
		c0-1.42,0.851-2.131,2.555-2.131c0.904,0,1.825,0.13,2.764,0.39c0.939,0.26,1.738,0.529,2.399,0.806l1.46-4.782
		c-0.8-0.485-1.877-0.892-3.233-1.221c-1.356-0.329-2.799-0.494-4.328-0.494c-2.573,0-4.52,0.659-5.841,1.975
		c-1.322,1.317-1.982,3.188-1.982,5.613c0,1.421,0.235,2.599,0.704,3.534s1.069,1.733,1.799,2.391
		c0.73,0.659,1.503,1.213,2.321,1.663c0.816,0.451,1.591,0.893,2.321,1.325c0.73,0.434,1.33,0.901,1.799,1.403
		c0.469,0.503,0.704,1.117,0.704,1.845c0,0.797-0.261,1.377-0.782,1.741c-0.521,0.364-1.182,0.546-1.982,0.546
		c-1.043,0-2.043-0.156-2.999-0.468c-0.957-0.312-1.799-0.676-2.529-1.091l-1.721,4.99c0.834,0.555,1.938,1.005,3.311,1.351
		c1.373,0.346,2.772,0.52,4.198,0.52c2.885,0,5.058-0.728,6.519-2.183c1.46-1.455,2.19-3.378,2.19-5.769
		c0-1.42-0.235-2.616-0.704-3.586C190.906,25.07,190.306,24.247,189.576,23.571z M197.189,36.903h6.206V10.915h-6.206V36.903z
		 M200.266,7.069c1.216,0,2.19-0.312,2.92-0.936c0.73-0.624,1.095-1.472,1.095-2.547c0-1.074-0.365-1.94-1.095-2.599
		C202.456,0.33,201.483,0,200.266,0c-1.217,0-2.156,0.338-2.816,1.014c-0.661,0.676-0.991,1.533-0.991,2.573
		c0,1.04,0.33,1.88,0.991,2.521C198.11,6.749,199.049,7.069,200.266,7.069z"/>
</g>
<g>
	<path fill="#212121" d="M162.601,56.392V56.34c0.277-0.121,0.484-0.323,0.623-0.604c0.138-0.281,0.208-0.582,0.208-0.903
		c0-1.074-0.618-1.611-1.855-1.611c-0.389,0-0.765,0.045-1.128,0.136c-0.363,0.091-0.657,0.201-0.882,0.331l0.35,1.232
		c0.121-0.078,0.281-0.151,0.48-0.221c0.199-0.069,0.428-0.104,0.687-0.104c0.536,0,0.804,0.216,0.804,0.649
		c0,0.199-0.074,0.368-0.22,0.506c-0.147,0.138-0.337,0.208-0.571,0.208h-0.623v1.167h0.493c0.432,0,0.728,0.06,0.888,0.18
		c0.16,0.12,0.24,0.287,0.24,0.501c0,0.506-0.316,0.758-0.947,0.758c-0.251,0-0.486-0.028-0.707-0.084
		c-0.221-0.056-0.413-0.132-0.577-0.227l-0.311,1.258c0.199,0.121,0.447,0.223,0.746,0.305s0.642,0.123,1.031,0.123
		c0.398,0,0.741-0.052,1.031-0.155c0.29-0.104,0.53-0.242,0.72-0.414c0.19-0.173,0.331-0.378,0.422-0.615
		c0.091-0.238,0.136-0.494,0.136-0.771c0-0.44-0.082-0.79-0.246-1.049C163.228,56.677,162.964,56.496,162.601,56.392z
		 M167.361,59.033h0.052l0.246,0.791h1.258c-0.095-0.311-0.154-0.642-0.175-0.992c-0.022-0.35-0.028-0.713-0.019-1.09
		c0.008-0.376,0.024-0.761,0.045-1.154c0.022-0.393,0.032-0.793,0.032-1.2c0-0.7-0.145-1.241-0.435-1.621
		c-0.29-0.38-0.802-0.571-1.537-0.571c-0.493,0-0.934,0.048-1.323,0.143c-0.389,0.095-0.713,0.22-0.973,0.376l0.389,1.154
		c0.216-0.112,0.463-0.199,0.739-0.259c0.277-0.06,0.545-0.091,0.804-0.091c0.354,0,0.586,0.112,0.694,0.337
		c0.108,0.225,0.14,0.588,0.097,1.09c-0.943-0.052-1.691,0.087-2.244,0.415c-0.553,0.329-0.83,0.882-0.83,1.66
		c0,0.571,0.147,1.027,0.441,1.368c0.294,0.342,0.696,0.512,1.206,0.512c0.38,0,0.696-0.082,0.947-0.246
		C167.028,59.491,167.223,59.284,167.361,59.033z M165.941,58.372c-0.108-0.138-0.162-0.341-0.162-0.61
		c0-0.182,0.041-0.331,0.123-0.447c0.082-0.117,0.192-0.205,0.331-0.266c0.138-0.06,0.298-0.099,0.48-0.117
		c0.182-0.017,0.372-0.013,0.571,0.013v1.077c-0.069,0.138-0.177,0.266-0.324,0.383c-0.147,0.117-0.337,0.175-0.571,0.175
		C166.198,58.579,166.049,58.51,165.941,58.372z M174.664,59.811l-1.31-2.983l-0.623-0.506l0.571-0.506l1.18-2.49h-1.66l-1.09,2.581
		l-0.311,0.182v-2.763h-1.544v6.485h1.544v-2.685h0.35l1.154,2.685H174.664z M175.675,56.361c-0.553,0.329-0.83,0.882-0.83,1.66
		c0,0.571,0.147,1.027,0.441,1.368c0.294,0.342,0.696,0.512,1.206,0.512c0.38,0,0.696-0.082,0.947-0.246
		c0.251-0.164,0.445-0.372,0.584-0.623h0.052l0.246,0.791h1.258c-0.095-0.311-0.154-0.642-0.175-0.992
		c-0.022-0.35-0.028-0.713-0.019-1.09c0.009-0.376,0.024-0.761,0.045-1.154c0.021-0.393,0.032-0.793,0.032-1.2
		c0-0.7-0.145-1.241-0.435-1.621c-0.29-0.38-0.802-0.571-1.537-0.571c-0.493,0-0.934,0.048-1.323,0.143
		c-0.389,0.095-0.713,0.22-0.973,0.376l0.389,1.154c0.216-0.112,0.462-0.199,0.739-0.259c0.277-0.06,0.545-0.091,0.804-0.091
		c0.354,0,0.586,0.112,0.694,0.337c0.108,0.225,0.141,0.588,0.097,1.09C176.977,55.894,176.229,56.033,175.675,56.361z
		 M177.945,56.945v1.077c-0.069,0.138-0.177,0.266-0.324,0.383c-0.147,0.117-0.337,0.175-0.571,0.175
		c-0.19,0-0.339-0.069-0.447-0.208c-0.108-0.138-0.162-0.341-0.162-0.61c0-0.182,0.041-0.331,0.123-0.447
		c0.082-0.117,0.192-0.205,0.331-0.266c0.138-0.06,0.298-0.099,0.48-0.117C177.556,56.915,177.746,56.919,177.945,56.945z
		 M184.113,58.756c0.091-0.238,0.136-0.494,0.136-0.771c0-0.44-0.082-0.79-0.246-1.049c-0.164-0.259-0.428-0.44-0.791-0.544V56.34
		c0.277-0.121,0.484-0.323,0.623-0.604c0.138-0.281,0.208-0.582,0.208-0.903c0-1.074-0.618-1.611-1.855-1.611
		c-0.389,0-0.765,0.045-1.128,0.136c-0.363,0.091-0.657,0.201-0.882,0.331l0.35,1.232c0.121-0.078,0.281-0.151,0.48-0.221
		c0.199-0.069,0.428-0.104,0.687-0.104c0.536,0,0.804,0.216,0.804,0.649c0,0.199-0.074,0.368-0.22,0.506
		c-0.147,0.138-0.337,0.208-0.571,0.208h-0.623v1.167h0.493c0.432,0,0.728,0.06,0.888,0.18c0.16,0.12,0.24,0.287,0.24,0.501
		c0,0.506-0.316,0.758-0.947,0.758c-0.251,0-0.486-0.028-0.707-0.084c-0.221-0.056-0.413-0.132-0.577-0.227l-0.311,1.258
		c0.199,0.121,0.447,0.223,0.746,0.305s0.642,0.123,1.031,0.123c0.398,0,0.741-0.052,1.031-0.155c0.29-0.104,0.53-0.242,0.72-0.414
		C183.881,59.198,184.022,58.993,184.113,58.756z M191.291,59.798c0.372-0.121,0.666-0.277,0.882-0.467l-0.48-1.077
		c-0.121,0.095-0.296,0.186-0.525,0.272c-0.229,0.086-0.482,0.13-0.759,0.13c-0.458,0-0.791-0.143-0.999-0.428
		s-0.32-0.696-0.337-1.232h3.152c0.043-0.251,0.076-0.484,0.097-0.7c0.021-0.216,0.032-0.419,0.032-0.61
		c0-0.493-0.063-0.901-0.188-1.226c-0.125-0.324-0.29-0.584-0.493-0.778c-0.203-0.195-0.435-0.333-0.694-0.415
		c-0.259-0.082-0.528-0.123-0.804-0.123c-0.822,0-1.464,0.279-1.926,0.837c-0.463,0.558-0.694,1.42-0.694,2.588
		c0,0.536,0.05,1.014,0.149,1.433c0.099,0.419,0.253,0.776,0.46,1.07c0.208,0.294,0.473,0.519,0.798,0.674
		c0.324,0.156,0.711,0.233,1.161,0.233C190.53,59.98,190.92,59.919,191.291,59.798z M189.411,54.863
		c0.164-0.264,0.411-0.396,0.739-0.396c0.277,0,0.48,0.128,0.61,0.383c0.13,0.255,0.182,0.629,0.156,1.122h-1.79
		C189.151,55.497,189.246,55.127,189.411,54.863z M197.608,61.29h1.141v-2.892h-0.778v-5.071h-3.904c0,0.804-0.03,1.505-0.091,2.101
		c-0.061,0.597-0.132,1.098-0.214,1.505c-0.082,0.406-0.167,0.729-0.253,0.966c-0.086,0.238-0.156,0.404-0.208,0.499h-0.623v2.892
		h1.128l0.169-1.479h3.463L197.608,61.29z M196.428,58.488h-1.582c0.086-0.191,0.162-0.438,0.227-0.742
		c0.065-0.304,0.123-0.627,0.175-0.97c0.052-0.343,0.093-0.696,0.123-1.061c0.03-0.364,0.054-0.703,0.071-1.015h0.986V58.488z
		 M203.484,56.115c-0.147-0.182-0.342-0.322-0.584-0.422c-0.242-0.099-0.541-0.149-0.895-0.149c-0.147,0-0.311,0.007-0.493,0.019
		c-0.182,0.013-0.359,0.037-0.532,0.071v-2.309h-1.544v6.485c0.242,0.026,0.521,0.047,0.837,0.065
		c0.315,0.017,0.681,0.026,1.096,0.026c0.475,0,0.873-0.05,1.193-0.149c0.32-0.099,0.579-0.246,0.778-0.441
		c0.199-0.195,0.341-0.439,0.428-0.733c0.086-0.294,0.13-0.636,0.13-1.025c0-0.285-0.032-0.551-0.097-0.798
		C203.737,56.51,203.631,56.296,203.484,56.115z M202.128,58.313c-0.117,0.143-0.313,0.214-0.59,0.214
		c-0.19,0-0.376-0.026-0.558-0.078v-1.66c0.182-0.052,0.372-0.078,0.571-0.078c0.277,0,0.471,0.074,0.584,0.221
		c0.112,0.147,0.169,0.372,0.169,0.674C202.303,57.935,202.245,58.171,202.128,58.313z M204.457,53.326v6.485H206v-6.485H204.457z
		 M168.788,68.29c-0.804,0-1.431,0.281-1.881,0.843c-0.45,0.562-0.674,1.418-0.674,2.568c0,2.274,0.852,3.411,2.555,3.411
		c0.813,0,1.444-0.279,1.894-0.837c0.45-0.558,0.674-1.416,0.674-2.575c0-1.133-0.212-1.984-0.636-2.555
		C170.297,68.575,169.653,68.29,168.788,68.29z M169.521,73.277c-0.16,0.307-0.404,0.46-0.733,0.46
		c-0.346,0-0.592-0.177-0.739-0.532c-0.147-0.354-0.221-0.856-0.221-1.505c0-0.744,0.084-1.269,0.253-1.576
		c0.169-0.307,0.404-0.46,0.707-0.46c0.354,0,0.605,0.173,0.752,0.519c0.147,0.346,0.22,0.852,0.22,1.518
		C169.761,72.445,169.681,72.97,169.521,73.277z M175.338,70.949h-1.556v-2.49h-1.544v6.485h1.544v-2.581h1.556v2.581h1.544v-6.485
		h-1.544V70.949z M178.535,71.26c-0.056,0.692-0.132,1.213-0.227,1.563c-0.095,0.35-0.214,0.564-0.357,0.642
		s-0.318,0.082-0.525,0.013l-0.182,1.349c0.112,0.069,0.246,0.119,0.402,0.149c0.156,0.03,0.341,0.045,0.558,0.045
		c0.354,0,0.642-0.127,0.863-0.383c0.22-0.255,0.396-0.61,0.525-1.064c0.13-0.454,0.225-0.997,0.285-1.628
		c0.06-0.631,0.108-1.323,0.143-2.075h0.934v5.071h1.544v-6.485h-3.839C178.632,69.634,178.591,70.568,178.535,71.26z
		 M187.815,72.875c0.009-0.376,0.024-0.761,0.045-1.154c0.021-0.393,0.032-0.793,0.032-1.2c0-0.7-0.145-1.241-0.435-1.621
		c-0.29-0.38-0.802-0.571-1.537-0.571c-0.493,0-0.934,0.048-1.323,0.143c-0.389,0.095-0.713,0.221-0.973,0.376l0.389,1.154
		c0.216-0.112,0.463-0.199,0.739-0.259c0.277-0.06,0.545-0.091,0.804-0.091c0.354,0,0.586,0.112,0.694,0.337
		c0.108,0.225,0.141,0.588,0.097,1.089c-0.943-0.052-1.691,0.087-2.244,0.415c-0.553,0.329-0.83,0.882-0.83,1.66
		c0,0.571,0.147,1.027,0.441,1.368c0.294,0.342,0.696,0.512,1.206,0.512c0.38,0,0.696-0.082,0.947-0.246
		c0.251-0.164,0.445-0.372,0.584-0.623h0.052l0.246,0.791h1.258c-0.095-0.311-0.154-0.642-0.175-0.992
		C187.813,73.614,187.807,73.251,187.815,72.875z M186.376,73.154c-0.069,0.138-0.177,0.266-0.324,0.383
		c-0.147,0.117-0.337,0.175-0.571,0.175c-0.19,0-0.339-0.069-0.448-0.208c-0.108-0.138-0.162-0.341-0.162-0.61
		c0-0.182,0.041-0.331,0.123-0.448c0.082-0.117,0.192-0.205,0.331-0.266c0.138-0.06,0.298-0.099,0.48-0.117
		c0.182-0.017,0.372-0.013,0.571,0.013V73.154z M191.895,66.532c-0.108,0.143-0.253,0.214-0.435,0.214
		c-0.173,0-0.316-0.073-0.428-0.221c-0.112-0.147-0.182-0.385-0.208-0.713l-1.31,0.285c0.034,0.32,0.11,0.588,0.227,0.804
		c0.117,0.216,0.261,0.391,0.435,0.525c0.173,0.134,0.367,0.231,0.584,0.292c0.216,0.061,0.437,0.091,0.661,0.091
		c0.467,0,0.871-0.136,1.213-0.409c0.342-0.272,0.56-0.702,0.655-1.291l-1.167-0.285C192.078,66.154,192.003,66.39,191.895,66.532z
		 M190.902,71.338l-0.467,1.077h-0.039l0.117-1.012v-2.944h-1.544v6.485h1.038l1.738-2.776l0.48-1.102h0.039l-0.117,1.051v2.828
		h1.544v-6.485h-1.038L190.902,71.338z M197.906,70.949h-1.556v-2.49h-1.544v6.485h1.544v-2.581h1.556v2.581h1.544v-6.485h-1.544
		V70.949z"/>
</g>
</svg>
